<mxfile host="app.diagrams.net" modified="2024-01-30T10:33:51.583Z" agent="Mozilla/5.0 (Macintosh; Intel Mac OS X 10_15_7) AppleWebKit/537.36 (KHTML, like Gecko) Chrome/121.0.0.0 Safari/537.36" etag="SFeNPCidsRQLRHMfXsw9" version="23.0.2" type="github">
  <diagram name="Page-1" id="-B_ZdQSH43DQnpviQwAO">
    <mxGraphModel dx="1876" dy="587" grid="1" gridSize="10" guides="1" tooltips="1" connect="1" arrows="1" fold="1" page="1" pageScale="1" pageWidth="850" pageHeight="1100" math="0" shadow="0">
      <root>
        <mxCell id="0" />
        <mxCell id="1" parent="0" />
        <mxCell id="1AfLMDBqWOaOHhTdISSM-1" value="Conversation Entity" style="swimlane;fontStyle=0;childLayout=stackLayout;horizontal=1;startSize=30;horizontalStack=0;resizeParent=1;resizeParentMax=0;resizeLast=0;collapsible=1;marginBottom=0;whiteSpace=wrap;html=1;" vertex="1" parent="1">
          <mxGeometry x="160" y="210" width="140" height="180" as="geometry" />
        </mxCell>
        <mxCell id="1AfLMDBqWOaOHhTdISSM-2" value="id" style="text;strokeColor=none;fillColor=none;align=left;verticalAlign=middle;spacingLeft=4;spacingRight=4;overflow=hidden;points=[[0,0.5],[1,0.5]];portConstraint=eastwest;rotatable=0;whiteSpace=wrap;html=1;" vertex="1" parent="1AfLMDBqWOaOHhTdISSM-1">
          <mxGeometry y="30" width="140" height="30" as="geometry" />
        </mxCell>
        <mxCell id="1AfLMDBqWOaOHhTdISSM-3" value="related entity(meeting/deadline/comment/etc.)" style="text;strokeColor=none;fillColor=none;align=left;verticalAlign=middle;spacingLeft=4;spacingRight=4;overflow=hidden;points=[[0,0.5],[1,0.5]];portConstraint=eastwest;rotatable=0;whiteSpace=wrap;html=1;" vertex="1" parent="1AfLMDBqWOaOHhTdISSM-1">
          <mxGeometry y="60" width="140" height="30" as="geometry" />
        </mxCell>
        <mxCell id="1AfLMDBqWOaOHhTdISSM-53" value="isNotificationOn" style="text;strokeColor=none;fillColor=none;align=left;verticalAlign=middle;spacingLeft=4;spacingRight=4;overflow=hidden;points=[[0,0.5],[1,0.5]];portConstraint=eastwest;rotatable=0;whiteSpace=wrap;html=1;" vertex="1" parent="1AfLMDBqWOaOHhTdISSM-1">
          <mxGeometry y="90" width="140" height="30" as="geometry" />
        </mxCell>
        <mxCell id="1AfLMDBqWOaOHhTdISSM-55" value="isPrivate" style="text;strokeColor=none;fillColor=none;align=left;verticalAlign=middle;spacingLeft=4;spacingRight=4;overflow=hidden;points=[[0,0.5],[1,0.5]];portConstraint=eastwest;rotatable=0;whiteSpace=wrap;html=1;" vertex="1" parent="1AfLMDBqWOaOHhTdISSM-1">
          <mxGeometry y="120" width="140" height="30" as="geometry" />
        </mxCell>
        <mxCell id="1AfLMDBqWOaOHhTdISSM-54" value="committeeId" style="text;strokeColor=none;fillColor=none;align=left;verticalAlign=middle;spacingLeft=4;spacingRight=4;overflow=hidden;points=[[0,0.5],[1,0.5]];portConstraint=eastwest;rotatable=0;whiteSpace=wrap;html=1;" vertex="1" parent="1AfLMDBqWOaOHhTdISSM-1">
          <mxGeometry y="150" width="140" height="30" as="geometry" />
        </mxCell>
        <mxCell id="1AfLMDBqWOaOHhTdISSM-5" value="Conversation Member" style="swimlane;fontStyle=0;childLayout=stackLayout;horizontal=1;startSize=30;horizontalStack=0;resizeParent=1;resizeParentMax=0;resizeLast=0;collapsible=1;marginBottom=0;whiteSpace=wrap;html=1;" vertex="1" parent="1">
          <mxGeometry x="380" y="210" width="140" height="90" as="geometry" />
        </mxCell>
        <mxCell id="1AfLMDBqWOaOHhTdISSM-6" value="conversationId" style="text;strokeColor=none;fillColor=none;align=left;verticalAlign=middle;spacingLeft=4;spacingRight=4;overflow=hidden;points=[[0,0.5],[1,0.5]];portConstraint=eastwest;rotatable=0;whiteSpace=wrap;html=1;" vertex="1" parent="1AfLMDBqWOaOHhTdISSM-5">
          <mxGeometry y="30" width="140" height="30" as="geometry" />
        </mxCell>
        <mxCell id="1AfLMDBqWOaOHhTdISSM-7" value="userId" style="text;strokeColor=none;fillColor=none;align=left;verticalAlign=middle;spacingLeft=4;spacingRight=4;overflow=hidden;points=[[0,0.5],[1,0.5]];portConstraint=eastwest;rotatable=0;whiteSpace=wrap;html=1;" vertex="1" parent="1AfLMDBqWOaOHhTdISSM-5">
          <mxGeometry y="60" width="140" height="30" as="geometry" />
        </mxCell>
        <mxCell id="1AfLMDBqWOaOHhTdISSM-10" value="" style="edgeStyle=entityRelationEdgeStyle;fontSize=12;html=1;endArrow=ERzeroToMany;endFill=1;rounded=0;exitX=1;exitY=0.5;exitDx=0;exitDy=0;entryX=0;entryY=0.5;entryDx=0;entryDy=0;" edge="1" parent="1" source="1AfLMDBqWOaOHhTdISSM-2" target="1AfLMDBqWOaOHhTdISSM-6">
          <mxGeometry width="100" height="100" relative="1" as="geometry">
            <mxPoint x="370" y="420" as="sourcePoint" />
            <mxPoint x="470" y="320" as="targetPoint" />
          </mxGeometry>
        </mxCell>
        <mxCell id="1AfLMDBqWOaOHhTdISSM-11" value="" style="edgeStyle=entityRelationEdgeStyle;fontSize=12;html=1;endArrow=ERzeroToMany;endFill=1;rounded=0;exitX=1;exitY=0.5;exitDx=0;exitDy=0;entryX=0.006;entryY=0.103;entryDx=0;entryDy=0;entryPerimeter=0;" edge="1" parent="1" target="1AfLMDBqWOaOHhTdISSM-25">
          <mxGeometry width="100" height="100" relative="1" as="geometry">
            <mxPoint x="300" y="254.5" as="sourcePoint" />
            <mxPoint x="370" y="370" as="targetPoint" />
          </mxGeometry>
        </mxCell>
        <mxCell id="1AfLMDBqWOaOHhTdISSM-25" value="Comment" style="swimlane;fontStyle=0;childLayout=stackLayout;horizontal=1;startSize=26;horizontalStack=0;resizeParent=1;resizeParentMax=0;resizeLast=0;collapsible=1;marginBottom=0;align=center;fontSize=14;" vertex="1" parent="1">
          <mxGeometry x="380" y="340" width="140" height="176" as="geometry" />
        </mxCell>
        <mxCell id="1AfLMDBqWOaOHhTdISSM-26" value="conversationId" style="text;strokeColor=none;fillColor=none;spacingLeft=4;spacingRight=4;overflow=hidden;rotatable=0;points=[[0,0.5],[1,0.5]];portConstraint=eastwest;fontSize=12;whiteSpace=wrap;html=1;" vertex="1" parent="1AfLMDBqWOaOHhTdISSM-25">
          <mxGeometry y="26" width="140" height="30" as="geometry" />
        </mxCell>
        <mxCell id="1AfLMDBqWOaOHhTdISSM-61" value="commentId" style="text;strokeColor=none;fillColor=none;spacingLeft=4;spacingRight=4;overflow=hidden;rotatable=0;points=[[0,0.5],[1,0.5]];portConstraint=eastwest;fontSize=12;whiteSpace=wrap;html=1;" vertex="1" parent="1AfLMDBqWOaOHhTdISSM-25">
          <mxGeometry y="56" width="140" height="30" as="geometry" />
        </mxCell>
        <mxCell id="1AfLMDBqWOaOHhTdISSM-27" value="userId" style="text;strokeColor=none;fillColor=none;spacingLeft=4;spacingRight=4;overflow=hidden;rotatable=0;points=[[0,0.5],[1,0.5]];portConstraint=eastwest;fontSize=12;whiteSpace=wrap;html=1;" vertex="1" parent="1AfLMDBqWOaOHhTdISSM-25">
          <mxGeometry y="86" width="140" height="30" as="geometry" />
        </mxCell>
        <mxCell id="1AfLMDBqWOaOHhTdISSM-28" value="content" style="text;strokeColor=none;fillColor=none;spacingLeft=4;spacingRight=4;overflow=hidden;rotatable=0;points=[[0,0.5],[1,0.5]];portConstraint=eastwest;fontSize=12;whiteSpace=wrap;html=1;" vertex="1" parent="1AfLMDBqWOaOHhTdISSM-25">
          <mxGeometry y="116" width="140" height="30" as="geometry" />
        </mxCell>
        <mxCell id="1AfLMDBqWOaOHhTdISSM-62" value="createDate" style="text;strokeColor=none;fillColor=none;spacingLeft=4;spacingRight=4;overflow=hidden;rotatable=0;points=[[0,0.5],[1,0.5]];portConstraint=eastwest;fontSize=12;whiteSpace=wrap;html=1;" vertex="1" parent="1AfLMDBqWOaOHhTdISSM-25">
          <mxGeometry y="146" width="140" height="30" as="geometry" />
        </mxCell>
        <mxCell id="1AfLMDBqWOaOHhTdISSM-58" value="" style="shape=image;verticalLabelPosition=bottom;labelBackgroundColor=default;verticalAlign=top;aspect=fixed;imageAspect=0;image=data:image/png,iVBORw0KGgoAAAANSUhEUgAAApgAAAFaCAYAAAC6+S3rAAAMPmlDQ1BJQ0MgUHJvZmlsZQAASImVVwdYU8kWnluSkEBoAQSkhN4EESkBpITQQu8IohKSAKHEGAgqdnRRwbWLCNjQVREFKyAWFLGzKPa+WFBQ1sWCXXmTArruK987+ebeP/+c+c+Zc+eWAUDtBEckykHVAcgV5otjgvzo45OS6aQegMCfMiABcw43T8SMigoD0IbOf7d3N6AvtKv2Uq1/9v9X0+Dx87gAIFEQp/HyuLkQHwQAr+KKxPkAEKW82bR8kRTDBrTEMEGIF0txhhxXSXGaHO+V+cTFsCBuA0BJhcMRZwCgehny9AJuBtRQ7YfYUcgTCAFQo0PsnZs7hQdxKsTW0EcEsVSfkfaDTsbfNNOGNTmcjGEsn4vMlPwFeaIczoz/sxz/23JzJEMxLGFTyRQHx0jnDOt2K3tKqBSrQNwnTIuIhFgT4g8CnswfYpSSKQmOl/ujBtw8FqwZ0IHYkcfxD4XYAOJAYU5EmIJPSxcEsiGGKwSdLshnx0GsC/Fifl5ArMJns3hKjCIW2pAuZjEV/DmOWBZXGuuBJDueqdB/nclnK/Qx1cLMuESIKRCbFwgSIiBWhdghLzs2VOEzrjCTFTHkI5bESPM3hziGLwzyk+tjBeniwBiFf0lu3tB8sc2ZAnaEAu/Pz4wLltcHa+NyZPnDuWCX+UJm/JAOP2982NBceHz/APncsR6+MD5WofNBlO8XIx+LU0Q5UQp/3JSfEyTlTSF2ziuIVYzFE/LhgpTr4+mi/Kg4eZ54YRYnJEqeD74ChAEW8Ad0IIEtDUwBWUDQ0dfYB//JewIBB4hBBuADewUzNCJR1iOEx1hQCP6EiA/yhsf5yXr5oADyX4dZ+dEepMt6C2QjssFTiHNBKMiB/yWyUcLhaAngCWQE/4jOgY0L882BTdr/7/kh9jvDhEyYgpEMRaSrDXkSA4j+xGBiINEG18e9cU88DB59YXPCGbj70Dy++xOeEjoJjwjXCV2E25MFReKfsgwHXVA/UFGLtB9rgVtCTRfcD/eC6lAZ18H1gT3uDOMwcR8Y2QWyLEXe0qrQf9L+2wx+uBoKP7IjGSWPIPuSrX8eqWqr6jKsIq31j/WR55o2XG/WcM/P8Vk/VJ8Hz6E/e2KLsQPYWewkdh47ijUCOtaCNWHt2DEpHl5dT2SrayhajCyfbKgj+Ee8oSsrrWSeY61jr+MXeV8+f7r0GQ1YU0QzxIKMzHw6E74R+HS2kOswiu7k6OQMgPT9In98vYmWvTcQnfbv3II/APBqGRwcPPKdC2kBYJ8bvP0Pf+esGfDVoQzAucNcibhAzuHSAwE+JdTgnaYHjIAZsIbzcQKuwBP4ggAQAiJBHEgCk2D2mXCdi8E0MAvMB8WgFKwAa0EF2AS2gp1gD9gPGsFRcBKcARfBZXAd3IWrpxu8AP3gHfiMIAgJoSI0RA8xRiwQO8QJYSDeSAAShsQgSUgqkoEIEQkyC1mAlCKrkApkC1KD7EMOIyeR80gncht5iPQir5FPKIaqoFqoIWqJjkYZKBMNRePQiWgGOhUtRBeiy9BytBrdjTagJ9GL6HW0C32BDmAAU8Z0MBPMHmNgLCwSS8bSMTE2ByvByrBqrA5rhtf5KtaF9WEfcSJOw+m4PVzBwXg8zsWn4nPwpXgFvhNvwNvwq/hDvB//RqASDAh2BA8CmzCekEGYRigmlBG2Ew4RTsN7qZvwjkgk6hCtiG7wXkwiZhFnEpcSNxDriSeIncTHxAESiaRHsiN5kSJJHFI+qZi0nrSb1EK6QuomfVBSVjJWclIKVEpWEioVKZUp7VI6rnRF6ZnSZ7I62YLsQY4k88gzyMvJ28jN5EvkbvJnigbFiuJFiaNkUeZTyil1lNOUe5Q3ysrKpsruytHKAuV5yuXKe5XPKT9U/qiiqWKrwlJJUZGoLFPZoXJC5bbKGyqVakn1pSZT86nLqDXUU9QH1A+qNFUHVbYqT3WuaqVqg+oV1ZdqZDULNabaJLVCtTK1A2qX1PrUyeqW6ix1jvoc9Ur1w+o31Qc0aBpjNCI1cjWWauzSOK/Ro0nStNQM0ORpLtTcqnlK8zENo5nRWDQubQFtG+00rVuLqGWlxdbK0irV2qPVodWvrantrJ2gPV27UvuYdpcOpmOpw9bJ0Vmus1/nhs6nEYYjmCP4I5aMqBtxZcR73ZG6vrp83RLdet3rup/06HoBetl6K/Ua9e7r4/q2+tH60/Q36p/W7xupNdJzJHdkycj9I+8YoAa2BjEGMw22GrQbDBgaGQYZigzXG54y7DPSMfI1yjJaY3TcqNeYZuxtLDBeY9xi/JyuTWfSc+jl9DZ6v4mBSbCJxGSLSYfJZ1Mr03jTItN60/tmFDOGWbrZGrNWs35zY/Nw81nmteZ3LMgWDItMi3UWZy3eW1pZJlousmy07LHStWJbFVrVWt2zplr7WE+1rra+ZkO0Ydhk22ywuWyL2rrYZtpW2l6yQ+1c7QR2G+w6RxFGuY8SjqoeddNexZ5pX2Bfa//QQcchzKHIodHh5Wjz0cmjV44+O/qbo4tjjuM2x7tjNMeEjCka0zzmtZOtE9ep0unaWOrYwLFzxzaNfeVs58x33uh8y4XmEu6yyKXV5aurm6vYtc61183cLdWtyu0mQ4sRxVjKOOdOcPdzn+t+1P2jh6tHvsd+j7887T2zPXd59oyzGscft23cYy9TL47XFq8ub7p3qvdm7y4fEx+OT7XPI18zX57vdt9nTBtmFnM386Wfo5/Y75Dfe5YHazbrhD/mH+Rf4t8RoBkQH1AR8CDQNDAjsDawP8glaGbQiWBCcGjwyuCbbEM2l13D7g9xC5kd0haqEhobWhH6KMw2TBzWHI6Gh4SvDr8XYREhjGiMBJHsyNWR96OsoqZGHYkmRkdFV0Y/jRkTMyvmbCwtdnLsrth3cX5xy+PuxlvHS+JbE9QSUhJqEt4n+ieuSuwaP3r87PEXk/STBElNyaTkhOTtyQMTAiasndCd4pJSnHJjotXE6RPPT9KflDPp2GS1yZzJB1IJqYmpu1K/cCI51ZyBNHZaVVo/l8Vdx33B8+Wt4fXyvfir+M/SvdJXpfdkeGWszujN9Mksy+wTsAQVgldZwVmbst5nR2bvyB7MScypz1XKTc09LNQUZgvbphhNmT6lU2QnKhZ1TfWYunZqvzhUvD0PyZuY15SvBT/k2yXWkl8kDwu8CyoLPkxLmHZgusZ04fT2GbYzlsx4VhhY+NtMfCZ3Zussk1nzZz2czZy9ZQ4yJ21O61yzuQvnds8LmrdzPmV+9vzfixyLVhW9XZC4oHmh4cJ5Cx//EvRLbbFqsbj45iLPRZsW44sFizuWjF2yfsm3El7JhVLH0rLSL0u5Sy/8OubX8l8Hl6Uv61juunzjCuIK4YobK31W7lylsapw1ePV4asb1tDXlKx5u3by2vNlzmWb1lHWSdZ1lYeVN603X79i/ZeKzIrrlX6V9VUGVUuq3m/gbbiy0Xdj3SbDTaWbPm0WbL61JWhLQ7VlddlW4taCrU+3JWw7+xvjt5rt+ttLt3/dIdzRtTNmZ1uNW03NLoNdy2vRWklt7+6U3Zf3+O9pqrOv21KvU1+6F+yV7H2+L3Xfjf2h+1sPMA7UHbQ4WHWIdqikAWmY0dDfmNnY1ZTU1Hk45HBrs2fzoSMOR3YcNTlaeUz72PLjlOMLjw+2FLYMnBCd6DuZcfJx6+TWu6fGn7rWFt3WcTr09LkzgWdOnWWebTnnde7oeY/zhy8wLjRedL3Y0O7Sfuh3l98Pdbh2NFxyu9R02f1yc+e4zuNXfK6cvOp/9cw19rWL1yOud96Iv3HrZsrNrlu8Wz23c26/ulNw5/PdefcI90ruq98ve2DwoPoPmz/qu1y7jj30f9j+KPbR3cfcxy+e5D350r3wKfVp2TPjZzU9Tj1HewN7Lz+f8Lz7hejF577iPzX+rHpp/fLgX75/tfeP7+9+JX41+HrpG703O946v20diBp48C733ef3JR/0Puz8yPh49lPip2efp30hfSn/avO1+Vvot3uDuYODIo6YI/sUwGBD09MBeL0DAGoSADS4P6NMkO//ZIbI96wyBP4Tlu8RZeYKQB38fo/ug183NwHYuw1uv6C+WgoAUVQA4twBOnbscBvaq8n2lVIjwn3A5oivablp4N+YfM/5Q94/n4FU1Rn8fP4X9s98Qp13PZkAAACKZVhJZk1NACoAAAAIAAQBGgAFAAAAAQAAAD4BGwAFAAAAAQAAAEYBKAADAAAAAQACAACHaQAEAAAAAQAAAE4AAAAAAAAAkAAAAAEAAACQAAAAAQADkoYABwAAABIAAAB4oAIABAAAAAEAAAKYoAMABAAAAAEAAAFaAAAAAEFTQ0lJAAAAU2NyZWVuc2hvdNOy0JgAAAAJcEhZcwAAFiUAABYlAUlSJPAAAAHWaVRYdFhNTDpjb20uYWRvYmUueG1wAAAAAAA8eDp4bXBtZXRhIHhtbG5zOng9ImFkb2JlOm5zOm1ldGEvIiB4OnhtcHRrPSJYTVAgQ29yZSA2LjAuMCI+CiAgIDxyZGY6UkRGIHhtbG5zOnJkZj0iaHR0cDovL3d3dy53My5vcmcvMTk5OS8wMi8yMi1yZGYtc3ludGF4LW5zIyI+CiAgICAgIDxyZGY6RGVzY3JpcHRpb24gcmRmOmFib3V0PSIiCiAgICAgICAgICAgIHhtbG5zOmV4aWY9Imh0dHA6Ly9ucy5hZG9iZS5jb20vZXhpZi8xLjAvIj4KICAgICAgICAgPGV4aWY6UGl4ZWxZRGltZW5zaW9uPjM0NjwvZXhpZjpQaXhlbFlEaW1lbnNpb24+CiAgICAgICAgIDxleGlmOlBpeGVsWERpbWVuc2lvbj42NjQ8L2V4aWY6UGl4ZWxYRGltZW5zaW9uPgogICAgICAgICA8ZXhpZjpVc2VyQ29tbWVudD5TY3JlZW5zaG90PC9leGlmOlVzZXJDb21tZW50PgogICAgICA8L3JkZjpEZXNjcmlwdGlvbj4KICAgPC9yZGY6UkRGPgo8L3g6eG1wbWV0YT4KNTwiQQAAABxpRE9UAAAAAgAAAAAAAACtAAAAKAAAAK0AAACtAABdqPfY20oAAEAASURBVHgB7J0HuC011f4jTZo0BUGkqVSRT0E6AiJFFJSiVKVXgQ9RQEAUFJQmCEhROtJRihQpKpePjiJIFxCuIiBFAanS/vPPL953WDtnZu+Zfc6593L3yvPMTiZZySRvMmveWUlmv6uILrhzBBwBR8ARcAQcAUfAERhYBP7f//t/4V3veleAFuLL5TTRnkvexin8rhhwgikU3XcEHAFHwBFwBBwBR2DAEMipIOcijzkUihch5ZwwzuZzgpkj5+eOgCPgCDgCjoAj4AgMEAI5wbRNJ80SR5umcJWME0yh474j4Ag4Ao6AI+AIOAIDiEAVwZSlUmk6Fzx5POfWmukEU0i57wg4Ao6AI+AIOAKOwAAiILKopus8J5WkKw4ZkUqFlT/JxUhfg2kR8bAj4Ag4Ao6AI+AIOAIDhIClgiKQNF8WSdIJW6c4fIVJ13pMt2BatDzsCDgCjoAj4Ag4Ao7AgCEggmjJoo0T0cS3YW30ka804HOCOWCDyJvrCDgCjoAj4Ag4Ao6ARcASS+JFLiUjAsk5JNLKKyxZzpNcDPgUuVBx3xFwBBwBR8ARcAQcgQFDoIoKEicyWQUH6Xk+WTBT3vjjBLMKOY9zBBwBR8ARcAQcAUdgABCACiZSOM46CVHEiTDmEEiWeNFIlSFZnyIXEu47Ao6AI+AIOAKOgCMwgAiIJNqmy3qZpyneTpvnMiktRroF0yLqYUfAEXAEHAFHwBFwBAYIAagghyyXanpOEUUuSbdpCquM5McfJ5hC0n1HwBFwBBwBR8ARcAQGEAFrkYRI6ly+haSDSI6TVTppKT3+OMEUKu47Ao6AI+AIOAKOgCMwYAiICiZiGAmjJZhKEySyYtp4S0IV72swhZj7joAj4Ag4Ao6AI+AIDCACIpb4CgODwta3YUFFnJzCTjCFiPuOgCPgCDgCjoAj4AgMKAIihmq+LJWyTopYki5ZyehcaUk2/rxNO1Wq+46AI+AIOAKOgCPgCDgCA4EAVDCRwnGfJ7KNVnwuw7mcDROX8sSftyUk6b4j4Ag4Ao6AI+AIOAKOwMAgYOkglkkccTZeYJAuy2Yup3ifIhda7jsCjoAj4Ag4Ao6AIzCgCIgY5s0nHifSSdiSToU1Xa50J5gg4c4RcAQcAUfAEXAEHIEBRUAkEb8bkSRNRFJ5gEz5FJfO449PkQ/ogPJmOwKOgCPgCDgCjoAjICqYk0d7TlhO8vk58cgla2g8cYIphNx3BBwBR8ARcAQcAUdgwBAQFSzJYRcyKWhEJvHzMDI+RS6k3HcEHAFHwBFwBBwBR2AAERDBVNMtYRTpJI2wPZc8viWabsG0yHjYEXAEHAFHwBFwBByBAUQgJ5gWAqVBLC2JVDyyVWG3YFoUPewIOAKOgCPgCDgCjsCAIQBBFIFU03Vu0xRGRqRScnYXepKLP74GU2i67wg4Ao6AI+AIOAKOwIAhkFPBRBDHrcO0nynK4yGXOOWXT5xbMEHBnSPgCDgCjoAj4Ag4AgOKgIihfBFHwUE8h43XeZ7Gua/BFHLuOwKOgCPgCDgCjoAjMKAIQArlRBw5VzzE0k6BS1ZxyCmf4tyCKZTcdwQcAUfAEXAEHAFHYAARsASxikyKNFpoRCiVlzSb1wmmRcvDjoAj4Ag4Ao6AI+AIDBgCkMQ6l5NLSyJJq3IpTyy0vtSqXB7nCDgCjoAj4Ag4Ao6AIzDJICArJOSRMD5OZDJvqKij5HUuP+WNJ04wc+T83BFwBBwBR8ARcAQcgQFBoI4K2njCEEqRSmvZVJrk3YI5IAPHm+kIOAKOgCPgCDgCjkA3BDTdDYHE5aSROJFLpVf5kvE1mKDjzhFwBBwBR8ARcAQcgQFGQBbJXsQSiGSpFFz2nHAqI/74FLkQct8RcAQcAUfAEXAEHIEBQ0BUMBHDzIIJFMRLxlo4bZqNJ+wWzAEbRN5cR8ARcAQcAUfAEXAEcgREIKtIpuLwbVhlEIeDWGIJTTLxZ5KzYP7rX/8K//znP9XuSv+9731veN/73leZNpzIyy67LHzve98LTzzxRFh55ZXDYYcdFj7wgQ8Mp0jP6wg4Ai0Q+Pe//x123333cOWVV4bZZ5897LDDDmHrrbduUYKLOgKOgCMwWAiIClorpBDQ1DnnpCMreeJ0nuedJC2Y+++/fyJ5NLyb+/CHPxyWWWaZsNFGG4W11lqrm2ijtHvvvTd84hOfCG+88UYpv/TSS4dbbrmlPPeAI+AIjC4Cm266aTj77LM7LvLrX/86rLnmmh1xfuIIOAKOgCPwNgI5kdQ5BFLEEun8XHFvlzROJgpOchbMpgRTYAAclsZvfvObiurLP/zww5PlJM/81FNPhdlmmy2PnuDnd999dzjmmGPKemBp3W+//cpzDzgCEwsCBx10UPjrX/9aVme77bYLSyyxRHluA+95z3vCSy+9ZKPCjjvuGI477riOOD9xBBwBR8AReBuBnA6KVBLPwbni8CGgcjavwgNtwRQw8r/+9a+HH//4xzpt7Z944omBB591dMKzzz4bZpppJhs9UYQvv/zyDsvtIossErDCunMEJjYEllxyyXDbbbeV1Tr//PPDl7/85fLcBuacc860RMXGDffetmV52BFwBByBSREBWSzztlXFi0Qia8PKS5wTTKExzr/pppvCsssum8U2O33mmWfC4osvHh577LEyw8Ybbzxkuq5MnMABJ5gTuAP88o0RaEMwsXbus88+Zdnvfve7wx/+8IfwsY99rIzzgCPgCDgCjsDbCNSRRCQSWYzGMvmyYto8SlNcOo8/k/wU+Uc/+tH0gBGUL7/8crjkkkvCSSedFG6++WZFJ3+LLbYIp556akdcm5N//OMf4ayzzgpMP7Mec6eddgpTTjllmyLGmyxWoA033LC8nlswSyg8MJEhwNi8//77y1p1s2AidNVVV4VLL700vPXWW2H77bcPH//4x8u8HnAEHAFHwBEYikAiheOIpE21NDGfGpecZGwZA2HB5OFyxx13CIfSf/XVVwMPLru2C0vJ73//+1KmW+A///lPePHFF8OMM84Ypppqqm6i4yXtueeeC9NMM02Yeuqpe16PQcAU4wUXXFDK9kMwMZ2//vrrja5ZXqjPANfhmH766fss4b/Znn/++cA6vcknn3xY5SgzLyzTTjttWpuiuPHpj3QfMI5wM888c20z2KnNWOtn3L/22muBe4/7BmXVy/Gytthii3WI9SKYHcItTqgbY4zxMRIOHcE46+cl880330xrSSfG5TUjgY2X4Qg4AhMPAiKIsk7amimNOBFIwpo6F+lU3lImBiY5FzeqYJUtj0gwa9v41a9+tZQjT/ysSSk7yyyzFDqQw/35z38uttpqqySna1x44YVlnk996lNlHvIeeuihKS2uwyzip5E60g444IAyXx74zW9+0yFLWddee22HWNw8VMTPsRRx6q+YbrrpynbEzTpF/DRLceedd3bIc3LeeecVcdq+iDvoS3m1Iz4IO64Zd9YPyU/Egw8+mMqPO+SLSKyKySabrJhnnnmKL33pS8WPfvSjIpLuynz9RF5xxRVFtCoX//M//1PEh3Sqc/y8VLHKKqsU5557bhHJQM9i42erir333jvlIS/tnWKKKYr55puv2GWXXYq77rqrtoyDDz64A5MHHnggyZ522mlF/AJBEUlWan8kS8WnP/3p1P5405XljUa/U3i/fZC3J5K3Ilr5iuOPP75YaqmlivhykvCJhK5sA4FIvIqTTz45tZm2gmFUJgVjLVoIi2hd7JDPT6I1sVhttdWKD37wgymf+iB+yqv4yU9+UsQvL3RkictNik022aT43Oc+V/a7xil+fMno6Jfrr7++zB8/FdaRNsccc3QdJ8hzT8SZjjQuKD+SumKllVYqTjnllOKVV14py84D0g/46AXc2LFjEyZcF4wYawsuuGARd7cX9913X15Exznp8ZNKxbzzzltwP1IX7jHGWlzjXUTS2SHvJ46AI+AIjAQCPLfswXMhPydO8egiwvgc6HCexxyEeWbARic514Zgfvazn01KXA8vS0YVJyUfNwAlZW/jCVuCyYPZpu+1114lvjwkbNqiiy5apuUBCKKV5cFviRsPbB48ViYPk+fnP/95R9GQtVyu7nzFFVfsyMvAOfDAA0sSUpdvrrnmKq6++uqOvG1PIBg8kOuuofhPfvKTxd/+9rfK4rk5IAgilcqT+xBkCGhOcig0H0s//OEPExnJy7DnEPNo4SvrNJL9Ptw+yNuzzTbbJCJl60/YEkwIOmM1l7Hn0eJXjBkzpmyzAtGCl4illa0KQ+boc7k4q9D1enkZ11xzjbKm+zFPpx65Y9yss846Pa8DOYwzIHn2dG6vwwtknJpPL5I23obB6eKLL64s62c/+1lJvm0eG15//fWT4q4swCMdAUfAEegTAUsmFaYowiKW8kUueWZagsk5h4jmQBPMuPC/tBJIiW+55ZZl9yiul9+UYMZPIQ15mD300EPl9RSgQ7F+2Ot+8YtfVHJxzz33dFgsrVwexnqCtUtuOARz880376hTfi17DrmNSw102VZ+/Eh+snTZ8rqFsTrHta9DrvHd7363cX0pHytW7nJC1q0eNu1rX/taWdRI9TsFDrcPmrbHEkysjLZtdWH6PLeat6kvsnKjTTCffPLJIn46rFG7aC+W6iqSWYdFt/i4rKCIGwHV1OT/7ne/S5bwbvmUVjVOOwrzE0fAEXAEWiIA78BZQklYR04urfWSsIilSObAWDA/9KEPFfFDy+XB1Op3vvOdNM0mpS0/fhey7BbF9fIvuuiiMk83C+bDDz885IGmKfSygBiIG4+GyFlLJNO6eZ1oI1O0TB3maVgC5X7wgx8UK6ywQjqwNFpZLKJKw995552VrdIqRF5IBVZfTV/b8pgOjesTyzKaBuLa0I562TLrwquuumpH8TfeeOOQlwflhXQrnPtM11rXi5BBPPIyOAeX+G9OqaiR6ndeZOqu1bQPerVH5bMkAQcRU5x8lmMwdb388ssPSfvGN76R8vGDRRLrsPLhgwuW8bjetyOeNGRZgoLDAvyZz3wmjceq6yy00EIdY/WPf/xjysdPFU7WgonCjB9dH3J96sCUtqambb0JM21tZxG4Vi5jzykHMmnjFP7f//1fspcufqdziBwYsewEy6jy4TN+sSq7cwQcAUdgpBAQkazyZaUUyZQPmVSaiKWIJlbMgbBgWuXcLcy6xPiB5rK/6mR54J155pnJQgcZhKnLdSOYyMSd5R0Pi+WWW05ZS3/PPffskIG8xY0XZTrXJ04Ha7bocBx14eFl6876yCq37777dsjxQKtyDJR8mpmHJ+sQRSAhBN/+9rc7yqMOcUd9VZG1cb/4xS+GlBE/M1OwXvVPf/pT8X//939F/CD+EOLCtegLHDcI6ystBoSZumatIOlMj4JbLsOaQm4QuTpChlVPazdZ/xc3hw0pi/WocsPt95Hqg7r2zDDDDGmZAGt/sdTJ6s10bo4R1jY51gBDyiTDi44c08Uao/hcI35nVclpPWLcSFTmpYxTTz21TFcABaby5cdNPkoe4vcimIxblSOfdaWnn356IrZxA1LBusx8FgHZ+LH2juspv/Uh4EceeWRBOdy3rHu1GCHLVLl1vCDYMljLLffoo48OIZn2hVNy7jsCjoAj0C8CPBdxIo850SQeXax0EUv5IpicEx4YC6ZV3HVhHgDXXXddR99UyfJA7eZ6EUzWMNpysdrk07vzzz9/hwzrRJs4rCtYy9jIk1/DkmCV1ZRgQjhseYSxuDDNlx/5Wj0sXW0cGzvstegXSGXujjjiiA458rBuFQc5smUQXnvttfMi0jlLInLZ+AmrUraKkNE/+cYPyG9OIsBIbrj9PlJ9UNWeWWedtRg7dqyq2uEz5Z3jE/9atWBzkJwUjnzF1/koICyjEHQ2a9nyGZO5Q97KEB4OwczHGPdg1XIOlq/kFsj4nduO6uX14jx+/qxDhpP11ltvSBvYpCe37rrrdqSzaYiXWL3wouyFL74eBsrvviPgCDgCw0EgJ5Q6R9+gg6V3rB4SmZQvkgnfcAtmfBjwQGDqC8tN7vKHBxZOwO3mehFMdonm5bK4Xw4LT57O7tEqh9WQvJtttlnlrnBbDlaQ3DUlmOwetmW1CWMFauPYUGHLp211jnV6jzzySHlAWnDnnHNORxmUV7fLGVzs9QizkUeuipDF/7lWcofPLmRbFtOwcsPt95Hqg6r2YLmrcyiZ97///R3tUhuxEu+6667FmDFjOqy+VWXFPzAoGG8s47BfPFBZ8rUT25Yx0gQzH2PxW7D2ch3h3MrNFD+YyKne8im7ylVZ5m+99dZSFMuoyrA+1vs11lgj7fJ//PHHS3kPOAKOgCMwkghYQqmw9UUsRTY5h1ByrkMEE3I5MASTNUtsBLHHwgsvnDZ1YAmTlSDvLKvoCXcjO8rbi2Ail68/sxbK3NLFVPTTTz+t4ksfCw7TuXkd686rdlo3JZhVaz7rrpPH51OBZQMqAi+88MIQKyDEqq3DymzrwSdnurmcQMW/+yzFqwhZ3adm8nV98b+yy3IIDKffR6oPqtoDSe/msCB3I4VgzXre+FeOQ4qB9Df5GoD6y26yU2EjSTCrxhjT2XWOzzepbvK1tpY8ipO/wQYbVBYFmZSMfL4EIYcyrrJyShYfCznrolHi7hwBR8ARGEkELJkkjFOcJZWWaBIvUpn7AzNFbj891KZDrHInzMO5l2tCMNlgZMtmGk6fteGzOzaNtX65w8pjZZqEJxTBZPqxqWPKMG8L6+XaunzDBNON3Vy+1s5ubsoJGYS/7gHPGk9b/5xgDqffh0MwbR/k7aG+TRxT4hBF1lLaNtowG55uueWWsjim1yH3VqZXeLQJZtUYO/roo8s65wFmCPI685UDuTyNLxdUOch3LmsJJnkgmWwy/MhHPjJE1uaFiLpzBBwBR2AkEYBMQh5FKi3JFKnEryObIpiyXg6MBXOkCOb+++/fsz+bEMyq9XRM61ZN1+a7mpmOtA8bhVkbxnTlqXGTRNV023AI5uGHHz7kmjx4mxzs2G/j8l3Z2267bZvsSZZNFcJFfp2VrmqXNN/OlMsJGVOkda4XwRxOv49UH+TtAZ82DrzYuEW/sHZT+MpnDMrxbUvFy2czDTuj+XoCG4jyb4SONsGkbvkY6zYzkb+szD333Gpe8tUu+Yy9KteEYCofSpyvIPDFhyoMeWGwJFf53HcEHAFHoF8ELLG0YUsu87BIpSyZ8ol3C2aPntBDQ/5IEUwum/+TDlNrWFJ0LXymxPJ1VzlBYPo/Xz96yCGHdJRDWXw7M3f5FDlLCBgguWPXsK0XYbsRxsozsPgkjA7eYto4/h3IXov22U/QqCxIDp+qsccJJ5yQkqmbLYMwG1OqHNbKXJYNO3I53sMhmJTZb7+PVB/k7aHt3RzrUfkYuY4zzjijFGdTWd5f9AeOfs+tnZRhv4bARqn8Ezx8SDx3jMm8j4499thcrDzvtYuclzFbHmOs6v74+9//PoSM0gbrbDmE+yGYbMwTvvh8pstuIqtav9n2xc3W2cOOgCPgCFQhAIGEXFb5Ipeko5N1LlKJj94X6XQLZhXCJi5/eIwkwdxjjz06HnKsVeQvH+01l112WVOb/wb5Wz4rQz67Q5y1XlX/8MN3QHOHpc6WRZg1ZwwgymQTDY7znBixJg+Sx6CSwyLFdLQtk08KtXFVU5K0EassD3w26xx00EHlX/rpWpBxfQKHgQ1ZVpp8LFXaucuSBD4Hle/8Zj0mN4hcTsiGSzD77feR6oO8PWDTzeXrWVlryTpGua985SsdODNOcHwZQbjLt+SLPsp3cyPH31VWOT61pXLw+VqB+pJxSnlyvQgmswK2LML0O58mYjyDNZuS8jGPXD6dnpdj26j64HezYPJ3ojkZt+tCx44dO6S+lujb63jYEXAEHIF+EEDviVgS1rmIZH6OrrSHiCU+/AGd3P3p0k8tJ4I8+UN0YpsiByLWquUPp/zcfkdRsPL9u1yOb2nyDUqsdKwRzNM5Z2qPDUTWMW1eJcvDFpIKidQnlNhpXCXLv6HwDch8HSOyrL9rO5XHdzUXWGCBymtVXV9x+WeIwE5puQ9hZZoxj+cckmFdPpaGSzD77XfqNBJ9kLeHNndzEK0cpznnnDNteAPznKBDGuX4JqbNy3jgryn5+9Ru6wyZQr/99ttVTPKrPieF5ZGP+XMN+yLTi2DyclG3QY7+Zee2rbfCTOfbFyoqpjT5/RBMyll99dWHlMV/t7OLnXtX5cvXd0rJ684RcAQcgeEiYEmlwiKV8kU25YtgilxCKhXG7/50GW6NJ1D+/CE6MRJMOkwPRz00cr9q3SA7WOvIUZ4/P4c05i5fA5fn0bclyddmcxF17NfKwhR1r13Ltp4QUruzl7qCL9ONVq5X2H63kjJw+VgaLsHst9//W5vh90HeHjDp5qhv1T/pVGEJ2bz88svL4vL1i1V56uLyf7jCAp+TWZsXUiiLey+CSQUh+nVE0parMP+Q9Ze//KVsmwJKl98vwQS33IqpMnOfZQnuHAFHwBEYaQTQ9xzWkqmw9SGWnFufMKQSH6LpazB79E6u2EdyipxL5/+4Y6+Xf9DZVpW/poToWPk8zN/sbb755h0yVQQTC2M+NW/LwkqkdXMMHCyl3R705KVuF1xwga1y6zA7kKv+jcfWjTAvD/k6VV2Mf1LZaaedOjDI83POpg+m3e00q8rICdlwCSbl9tvv5B1uH+Ttof29HOsBv/CFL/TEMb8/mErHCleFueLAnnWe+dKKnGBSR5ZPdBt7smI2IZiUd8MNNxT51LvqZX2Wquhfm8hnnZUj3C/BpMwrr7yy8q9e7TWwHteNd1svDzsCjoAj0AYBkUvri1Ty3LGEUmHiOSCW1npJmKP306VNDScSWciCVcpY6fpxOYmre3jYsvNND2ykqXN8X9DW04bz6ey8DNZaYl3kLwghgeTFysJfzH3/+98vzdQ8vNnZztR5FcGkXP4zmv+Qtg95LJD8H7m1SKkOTF8ydWc3aPDgZ33et771rSHWROVr60NsIBW00f6jClPc1O2Xv/xletvqVS5EgvWX9pM5WIvAhXaMjWvc6lw+liijzjG1a/sw/0yR8g2n31VGv32Qt6cbYda18FEiRx11VCL0luQx5iCR/F1mlUPJsOmMHfYspwAf8jNFzsY2fTvzD3/4Q/ouLbvMkakimJTPBi4sqtaKz9+Y7rbbbgVrGXFXXHFFRz8ga9cpJ6FxP88//3zx4x//uOC/1+3yEpaJ0C7+5ACFW+dyHWHXTto8bCKyY4Nw/pki5CGym8cXQ/5WU/LUHyL8ve99r2P9qy3fw46AI+AIDBcBa72kLBFM64tcyrfk006Po/vfRSFRkbl7ByMQLXUhbngIca1WiA+jYbUkWjRDtDyFOH0fIqnrWVZczxYiQQ3RshKiNaqnfL8CceCHaLkJkRiGuIGn32IC9Y2kIsQ1eKmsvguaiDKOrz5Qk6PiCHFJQojkqnVfxL8WDfEFIUQiqeL68qkDZUUiFiLB7KuMPFNUlCH+qUGIL2whkuE8ebyfR8Ic4uxBurfA2p0j4Ag4AqOJAHQwGgAwPHZchnOlkc7zWHI6txmU3wmmRcXDjoAj4Ag4Ao6AI+AIDBgClkSKTAoCnYs4El8VzsmmE0wh6L4j4Ag4Ao6AI+AIOAIDiIAljGq+JZZKh0TKKY5zK1uex8hOW6hyuu8IOAKOgCPgCDgCjoAjMBAIiCRqClyNzmmiPc+tluRRulswhaD7joAj4Ag4Ao6AI+AIDCACJSnM1mAq3kICqSTeElErp7ATTIuahx0BR8ARcAQcAUfAERgwBEQKq5pdlUaciCZ5OJecrJpOMKvQ9DhHwBFwBBwBR8ARcAQGBAGRQ9tcEciqNOTcgmnR8rAj4Ag4Ao6AI+AIOAKOQAcClkQqDMHE6VwZLPEkzZ5LBt8tmBYNDzsCjoAj4Ag4Ao6AIzBgCEAURRbzpudpllBWhcmfyoo/vos8R9PPHQFHwBFwBBwBR8ARGBAEEiEct3nHhkUggUHxNiwKKR95ps6TbPxxgjkgA8ib6Qg4Ao6AI+AIOAKOQI4AVDCRwnHT4ja9jiba+KqwT5FbFD3sCDgCjoAj4Ag4Ao7AgCEggoiPFTJ3SrfxNi4Pp3Lij1swLWIedgQcAUfAEXAEHAFHYIAQsFQwkUNDMrVbvGq6XGnkUT6V5RbMARpA3lRHwBFwBBwBR8ARcARyBEQKRRJtOnF18bJ2QjTlSvkYcAumUHHfEXAEHAFHwBFwBByBAUOgjgrWxQOPrJeEkdMGH1k63YIJMu4cAUfAEXAEHAFHwBEYYAREGEUW5cs6KWslEClN4dxP6fHHLZgg484RcAQcAUfAEXAEHIEBREBUMBHDuP5yiDUyxklGaZIFrjyNOLdggoI7R8ARcAQcAUfAEXAEBhQBEUT5slaKRMq6mcMjefmkK48TzBwtP3cEHAFHwBFwBBwBR2DAELAkkaZDMonL4wWLiKRNJ1xOqccTnyIXWu47Ao6AI+AIOAKOgCMwYAjUUUFNh1uyqTAQKR8+8UpL5/HHCeaADSRvriPgCDgCjoAj4Ag4AhaB0vJoiCLpOU1M5DHK2GlzK6OwT5FbdD3sCDgCjoAj4Ag4Ao7AACIg4iiCKAjsuSyUpClevpUnzgmmEHHfEXAEHAFHwBFwBByBAURAJDERwxoLpmQgmTidE66yZjrBBBl3joAj4Ag4Ao6AI+AIDCgCIou5hVLnNh2IdC64OEdWRDOdxx9fgymE3HcEHAFHwBFwBBwBR2AAEeggh+OslMCQ00R7bgmowirHLZgDOIi8yY6AI+AIOAKOgCPgCAgBSxqJ41yEUTLyFV8SyXGWyzyfE0wh5r4j4Ag4Ao6AI+AIOAIDiEBOMC0EShOx1Hkuk5NSJ5gWIQ87Ao6AI+AIOAKOgCMwYAhUkcacUOpc0CiP4kUwsWzinGAKKfcdAUfAEXAEHAFHwBEYQAREFtV0nYs8Kh5fcciIVCrcIRcjfZOPRcTDjoAj4Ag4Ao6AI+AIDBAClgqKQNJ8wlgkSSdsneLw83DKGyOdYFrEPOwIOAKOgCPgCDgCjsAAIZATRJFM+UAhGZFOG1e14cenyAdoAHlTHQFHwBFwBBwBR8ARyBGAPIpAkmbDnItAEhbplIzykobjHOcEM8HgP46AI+AIOAKOgCPgCAwmAiKFtvWWQNp4hXNiSbysmylv/PEpcqHlviPgCDgCjoAj4Ag4AgOGgMiirJP4OBHGHI5EIMfJiEaqDMm6BVNIuO8IOAKOgCPgCDgCjsAAIiCSWNX0PE0k1E6b5zIpLUa6BbMKUY9zBBwBR8ARcAQcAUdgABCACnLIcqkm5xRR5JJ0pclXnGTcgikU3XcEHAFHwBFwBBwBR2BAEbAWSUiizuVbWERGRS7lI0M4pccft2Ba1DzsCDgCjoAj4Ag4Ao7AACEgKpiIYSSXlmAqTXDIQmnjLQlVvFswhZj7joAj4Ag4Ao6AI+AIDCACIpb4CgODwta3YUFFnJzCTjCFiPuOgCPgCDgCjoAj4AgMKAIihmq+LJWyTopYki5ZyehcaUk2/rxNO1Wq+46AI+AIOAKOgCPgCDgCA4EAVDCRwnGfHrKNVnwuw7mcDROX8sSftyUk6b4j4Ag4Ao6AI+AIOAKOwMAgYOkglkkccTZeYJAuy2Yup3ifIhda7jsCjoAj4Ag4Ao6AIzCgCIgY5s0nHifSSdiSThsmDUecE8z/YuG/joAj4Ag4Ao6AI+AIDCQCIomJGJppcsUDitLq1l0qvpSNGXyKfCCHkzfaEXAEHAFHwBFwBByBty2SIomihvacsJzS83PikUvW0HjiBFMIue8IOAKOgCPgCDgCjsCAISAqWJLDLmRS0IhM4udhZHyKXEi57wg4Ao6AI+AIOAKOwAAiIIKpplvCKNJJGmF7Lnl8SzTdgmmR8bAj4Ag4Ao6AI+AIOAIDiEBOMC0ESoNYWhKpeGSrwm7BtCh62BFwBByBSRiBV199NUwzzTSTcAu9aVUIvPnmm4kATDnllFXJ4zVuEMfgxIR/XWdDEEUgJaNzm6YwMiKVkrO70FNa/Jmk3PLLL18st9xyXY9PfepTxWuvvZbaPeOMMxbxpisef/zxSQqHCdmYiQnTI488MvXvLrvs0giSH//4x0l+99137yl/zDHHJNlvfetbPWUnlID64qWXXmpUBck//fTTjeRdaMIi0GZ8f/3rXy8mm2yyomq8Xn/99cXqq69ezD///MUWW2xRPPXUUxO2YX71EUPggQceKGafffZi5plnLp544okRK7efgrqNwX7KGx95pBP71aETE/7d8IrksLDHW2+9VZ5HglxwECef8BtvvJHOiSPM8frrr6eDMAx0knKQ6ibHK6+8kto97bTTJvnHHntsksJhQjZmYsL00EMPTf37ta99rREkhx9+eJLfbbfdesqr7CZktGdhoySgvmiqHCU/GgRzq622KtZZZ51RaunEV+z4aK/GYJPxPffcc6exPddcc3WA9Z///Kd4z3vek9LQnRCR0ej/jov6yYgjUDfeTjnllLJvTz755BG/bpsC68ZgmzLGt6x0Yr86dGLCvxt2IpcQR0subbwll5ZsimDiK4wRb5IjmFdddVWh4xe/+EV5Y9HJiv/Nb36TmDlga/A4wew29NqlTUyYtnkA00onmP994RoNgrHQQgsVM800U7vB9A6WHh/tbTO+zz///GKFFVYozjnnnA5Ur7jiiqQnP/axjxV33XVXce+993ak+8k7A4G68YYxZd111y023HDD4tlnn52gjakbgxO0Uj0urudZvwRzYsK/W1NFJPEtwbSEMyeYpMmKKeslPuQSS+YkRzAtgP/85z9Lgvnoo4/apDKsweMEs4Rk2IGJCdM2D2Aa7gRzdAgmSnaGGWYYGII5vtrbdnxX3dx77bVX0pP77rtvVbLHvQMQGF/j7R0AxYhXUc+zfgnmiFdolAqsIpaWdFaRS8XJagm5tERzkt7k869//Su8733vi7M+IUSCGeLUUArbn+mmmy7EmzP85S9/Cddcc024+eabQ2TeYfHFFw/bbbddmH766a14Cr/88svh9NNPD7fddlsgvMgii4SNN944LLDAAkNkqyLGjBkTzjjjjLDiiiuGuN6pQ+Tss88Ov/3tb0N82wxrrLFGmRbXRIVLL700RCtsqtNqq60WNtpooxDXVJUyBJrWTXU4+uijw+9///sQrRjhnnvuCVw/TpF1lKmTONjCjTfeGH71q1+Fhx9+OMQ35rD99tuHeeedVyLJ7wfTOChDtKyEm266KTz55JOp7C233DIsuOCCHWWr3k2xO+yww8Kee+4Z4hRiOPbYYzvKiuvOwq9//etw//33h2i9CV/84hfDddddF775zW+GOEUejjjiiA75/ERlxyny8NWvfjVcdNFF4e677w4f+chHwiqrrBLimrY8Szpv2keVmcdFxrVU4cQTTwzR2hTiW2RYZpllwo477jhkvKovouUi9RttBuull146rL/++iGuzeq4jOSjBTPMOuusZdpw6hyn5cKZZ54Zrr322jDVVFOFTTfdNJXL+LUYMf7A8I477ghx3VNYeeWVwyabbBLabkyw5cQ1hWHNNdcMcW12ZTltx91RRx0V7rzzznD11VeH++67L419xk1c111i1au9GsPd7r2m9dIYrBrfZYXGBaL1KFx55ZVhrbXWCuutt1548cUXw6677hoYE+g/xgS6DJ1H3Xq5Cy+8MOmqv/3tbwkHdBb3ZVNn2/j888+Hz3zmM6mvPvjBD1YWYeWb6IgmfXXAAQeEsWPHhm222SbEtfsd1+V5wLhlDO29995lWtN7YYcddkjjAj1+3nnnJZwZh3E9eCqrqU7vda/3Gm/RmpR0AxdFZ0w++eRlW0YD07LwikA+BiXSFAvJW184M/54Lt9www1p8wlYf+ELXwjvf//7rXhAnmc8+j3OqJRp9Ct9M/XUU4fjjjuujJdO7FeHNsW/yT1QVmoUApG31pbKs5+NPHKEicPV5Uvpo0SGJ4pi21gwP/ShD5XWTjDjWHTRRYtnnnmmoy233nprMd988w2RjQ/O4qSTTuqQrTuR1SEqtSEicfCnsn/4wx+WaVHRFVNMMcWQa8YHdSlDoE3dVIeVVlqpo9youDvK1AlvKJHUdsiCUbz5ittvv11iydcbX1NMH3rooSIS+iFlsyHhrLPO6ihb9W6KneTtGjXM+vHBOuR6bPaKRC3Ft1mDGR/KRVRKQ8r79re/3VF3Ttr00ZDM4yIiCU64a5zKj2S8iKShI5v6gs1vkpM/77zzFmBvneTtFPlw68x1dE3rRwVfXvrggw9OG6ZsOuEll1yyeOGFF0q5XoG6chZeeOEin8XoZ9xF0jukLYxTNnzJ9WqvxmTdvddPvez4Vj1yn7XCYLrPPvukJPo4x5vz2WabLc/acc79w1raPG986BQ/+9nPOmTrTuraSBmRNA/JViffTUc06SvpW9Yv5m6DDTZIbdxjjz3KpDb3AvcSY2GeeeYpseJ6uKY6vcm93mu8YXlTXzFtKTdamKr8Kj8fg8g0xaKqPOLAGd236qqrlu1Ue1nzGV+eOrJKx+Wzljz7yMez3DrJ96tD2+Jfdw/YOo1GOBLCcmqce5xzHZznB5ygyoLJGNPhU+TjNvnEt7oivqUW0XpSxLfNYpZZZkmDze645EGnRcoor3PPPbeI1q+0K5OBCQmM1sCefa8HTFOSFC0wqS6bb7558de//rW45JJLimhlSHG33HJLul7buqkO1JuH70EHHVSwNpVBVOVQrMhCKMeMGVM8+OCDBQSXuM9+9rMdWXRDNsGUgbjYYoulciCkP/3pT4toGUk7WYXp5ZdfXpavejfFTvL2ARwtmel6lL/11lsXF198ccHu8fe+971lfBuCSTn0By8F9A07JWk78dF6Wta9bR+VGbPAhz/84VT2l7/85aScL7vssgKSy/UOPPDADmn1BWnRqlqwLvm0004r5ePbffHII4+UeSQvgjkSdf773/9eRMt3ql/8RE5S+Cj9+Maersv9Rv04okW8iFbMgj5iMwpxn/70pws2ovRyeTkXXHBBAclXOTyIWRuE63fcUZ+PfvSjBZhzr2+22WapjtwXehnt1V6NScrK771+62XHdx1O+cOdhwcv4TvttFNqww9+8IN0Tp93cz//+c+TPDqSl2r69jvf+U6KY41t/pKTl1XVRsqMluBUBriccMIJZbYq+SY6oklfofOQ4z6wuo9rsqSDtH51rO4lXly/8pWvFL/85S+T3qRhTXQ6ck3u9V7jrYrgjCam1LvO5WMQuaZY1JUpnOmrKh0355xzFtHKXmaXfFuCWVd+Lx3aFP9u90BZ+VEMiEzmviWWIpTIEB8t4B27yEknjgNd6wRzHMH8xje+0dF1KDgGVJyuKeN5eBPHAyt+y6uMJ8DAJi1OlXbEV53oAdOUJH3iE59IZcdp9bI4iAzWGj6BgGtbN9UBa8Vzzz1XllsXiNPiqQ5xGUCpiFkwTh3ynYm6gZtgGqfiUrngnNdjv/32S2lYN+VU76bYSV4PYAY9D0H6ylqJKT9Ob5dWtDYEkzdOSLd1p556aroGD5d//OMfKaltH9nyFObBwKdpOLiJ5Xh40aY6ss/4RCnIsWaLTQHksZ9wUt+JYI5EnbkmY4VrQcSsQyExBkn70Y9+ZJPSTuY4TZ/SGO/dXLdyeBlSu2QR73fcsdvaftKMPtBLZ5x+LKtY114ENCar7r1+66XxXVagIlD1cEcsLglJGDOmmrg4BVlgfca3jhkf+lGEzKbZcLc2brvttqkM9IzGazf5bjqiSV/RfzImxOVRZTXjEohUD/SS6tH2XtCYy/UMF2mi09vc693GWxXBGU1MSxArAlVjsAkWFUWVUcK5m45jxkpO8m0JZrfyu+nQtvhX3QOq+2j7IpOMeQ7O5SsNX0QTn4P7iIMxy6GwE8xxBDO3PMb1lUnBQB5k9YjrOVIc06gQK3uwSw/lynRIL6cHTFOSxBQNZaMIWZCP1TR3beumOsS1WHlRledxPWvx7ne/O9UjrpVK1tucZCujbuAmmGKFo21VDzfKxzLINJjIp+rdFDvJ6wH8pz/9qcSSmyB3cV1iSm9DMPnuapVj2oa2sXMS17aPqsq0cX/+85+TxTeuvSzi2rd0LSxi1qkveGDmLq63TXmwfspJXgRzpOpc9wBkxzIYQSSr+iOukUvpvfqjVzm/+93v0jR2XN+cmtrvuPvc5z4nqEo/rmlMddTUMwl17SVNY7Lq3uu3XhrflF/nqh7uyLYlmCofS2Vc05msl3E9bepD+hJLcjfXrY2UyXIDDllSu8l30xFN+yqu9U79xwyWHISBtlji0PZe0L3EzvzcNdHpNk+ve73beKsiOKONqa27DVeNwbZY2PIIC+e2Oq4twWxbvnRoW/yr7oG8zaN1bgllTizzc5FL+ehvHZBMt2CawZkPNjoZBcOhj9PyVq24Oh9C1MvpAYNiy53WBNm3XqYHWSMkgse1l1hiiSJuUCmzt62b6lBF1MpCswAPZz7ErLYzhcSUJjeQdbrhm2AKIaI8CECV+/jHP57SeZDhVO+m2EleD2A+0cL1eEmocpAE0nsRGluXqvVbpH/pS19KZbEzHde2j1Kmih+s1lXry6g3/WOd+iJff4hM3AyT6oelR07yUo4jVee6B6CmtfnzgyrH8oVu/aU8vcqRnPx+x13V/aKHZtwUqOIbEcyqsvqtl8Z3WYGKgOppiTBibQkmDyFeCLVMh/6xh6zEFVVIUb3amOfrJV+nI6rwFQa2r1juQP1Z+iCHoYC4uDFNUa3vX91LuR6kwCY6Hbmm93rd/UUZVQRntDHlulVO+Nsx2BSLqvKIE85tdZydNqecXmsw25YvHdoP/tRnfDsIpEhkXVhkUtZMnUMsZbm0YbdgjrNgVikBbdwQwdQGECxGkLu6o9fA+MlPfpKUF1bP3GlhuSWYksGKyJs95BLlxzo/1kbi2tZNxKtKCet6dT5TY+TTx5nXXnvtDlHd8E0wlfWH9axVjvUztFUbidpip3bqAUyfUV7c6V11uULTE20IJm2ocpAmroWlENe2j6rK5MbXmkLWZ2Hhg/gzvc+16ggmFvncQerJA4mUU99JOY5EnSm77gGomQKm66sc087UEetRN9ernDxv23GncVR1vzCTQR0taalrL/XoVla/9dL4zttpz6se7qS3JZjqE2YW4i7/grVjrF0HG3DoRTB7tdHWmXAv+VxHdMO3qq8gOFpvyXrk+JWA1A6WMPAglWt7L+heqtKDKrObTm9zr3cbb1UEZ7QxVftyv24MItcNi7wcey6cm+o4rbWnn62LX4VI/V63yadp+aqPdGg/+Nt6jc9wHbEk3lo3IZaci2Diy3opgukWzNhzGgxVSiAnmChxFCgfK84dNzhrvZr8xZrWM37gAx/IiynXxYlg/vvf/06L8FmAbx1r7ajLd7/73RTdtm7dlLC9jsJY/rgGU8xyrLWiDqwzREnLtcGUdXeUwULv3LG7kDRueC1TaIMd5amdegDzFsqDkaUPbE6wLn6mopDlog3B5J9PtMFD5TGlRb2pP+QP17aPVJb1x8S1npQJKbSYaxNWHcGs+sahNqiwLEBOfSflOBJ1pmw9AMGEN105FBN/xUZ/VK3d09T//vvvryyVfrdyuB47TCEi2jzSdtxpHLUlmHl7qXy3svqtl8Z3JTjjIuse7m0Jpqzn/HmFddqs0Ytgdmsj9zf9xLINkbtu8lU6ohu+VQSTNkCUua+wzGqtpX1hQKbtvaB7KX+2NNXpbe71uvuLelcRnPGBKdfOXT4Gm2KRl2PPhXM3HcdskpzWfOZfPNDsFvesdU3K76ZD2+JfdQ/Y+oxWWORS5escH/3K/ZiTTOI5RCpFMtG5HG7BbGHBZC2NSAOLpKUAebjPMcccSUFhYevlsIiqHG50ueOPPz6VgaITwdSDE3n7BqU1nyKYbevWTQmrPtaXQuLfIBhEOK1nHA7BhJSz8YM2o3wgeTj+G5kF9opPkfGnDXbkUTvtA1i7VSGTIpm8PWv9JddsQzCRZwG4Nn/QF0y3EQ9BkmvbR8pnfVkdsWKKqPG5kaWWWipdD0sMY0ZOypHxo01ikPXvf//7SZ462uUJkhfBHIk6qy6yNPHPMdRR94+sxnz+SySTJSra3QwBFbYqq8qvKmfs2LGF1tjxlQd23OLajjuNo6YEk2vUtbdbWf3Wy45vrl3l8oe7ZNoSTFnm+eIDjhcdwrwkMJ7QgbRD/avryK9qI2OSr0XwskYZ+pwPearkia/TEd3wrSOY2iTHfax7iX9+s67tvaB7KSeYTXV623u9brxVEZzxganFTuF8DDbFQvmrfOHcTcfZpQ5aX8tXS6Tn8PknK8Ye5VjXpPxuOrQp/t3uAVuf0QyLQEIqcTqXTzxh6W98HSKX8p1gRgA1eHIlALi5BZM4lKDiIUbagcjA5JM3Td3OO+9cPuDZhao1MVjXKEsEk/L22++/u6lR4EyPa/cvNwJTU3Jt6tZNCas864OPFBgPAawYIoZM61vXFlMUOW2h3ZAAu7aL7yCy49m6NtipnfYBzOYBrNBcj4M+1GeF1MY2BDN+rDyVQ99ph7rKZdrFujZ9ZPMpzKYGLN+Uz1SPPk+ktuDzvVI5+oKlDOoTfLuW1z7IySM5KV7ihltnysBxf1A/sAYnHvY4FGv84HpKI536qj94edESgyTc5ScvB2IqXLh34keYO3K3GXcaR20IZl17u5VFBfuplx3fHY00J/nDXUltCWb8gHnCFUz5xJiWyghrXrbRDVXrpHXNvI3SJZSBhQnLlnW5fDcd0Q3fOoLJiy1jH/1Du9BxeoGz9WhzL+heqnq2NNHpbe/1uvFWRXBo02hjanFTuGoMNsFC+at84awxwbnVcXajFvlZe6nxhhxfKdESCXR4FcEcjg5tir/qVHcPVLV9pOOs1dKGLakUycQXucQXscTn3pnkCSY7j6X0tI4y7xApx6oPjKvD7cOW/ExdMB2kvKzV4Xt7POCaOjqMPCILPHD5eDHrG6mzJZiUicUUywEPXBQgnwSxm3x03aZ1kxLOCYbKqfJZcB7/eagkmuDDJp/8YSBc2mDKGyC7sUUsWF+IdbZKybfBTu3MlQw3PVNgmhKnDyGu9DUY248rV2FBnMrGGoC8+pKHE1MyVQ8W8jXtI2SrXPwXpTT+pBRpwyGHHFLEf3pKH3a2CpK+YCr8j3/8Y1oDShpKFAtr1R8DqO+w6Fo33DpTFsReD0Ee5PaTXvQHREcvbIwtrElae2vr0i2cl0N7uW+sBcPmbzru1NdV9wsfBueezUleXXu7laW6ta1XPr5VjvXr/hKyLcGkTNrASzG6iG+b0ld83UIfu2b2oVff5W3kRY3NH7k+URty+Tod0Q3fur7iGuzq1/Ni880312WH+E3vBd1LVXqQQpvo9Db3et144wWdfuLg4W/daGNqr0W4bgw2wSIvS+cimMx+8M1cDEDoOCySp8bPxVU5rNHLLrtsIpPgwos6M4g836z+JO9wdWgb/HvdA1VtGck4nq2WWCoMgSTNHnXkUkSTZ/ck/VeRUVmMqosAp79bi4RiWNeJRDj9ZVUc6D3L4e+s4s0TolLvKjtSdau7SCQgIVrQ6pL7jo+DMkSiHuJN3aiMNtjVFUgZw+1DlR3XQoVIknTa1R9uH8WbP8SHSsffnXW9YEwEW64bCVwv0cr04daZQvlLtPgQSEfVReiPSJ47/tKuSq5XHH1BOZHM9hJNfx3XZtz1LNAI9GqvER0SbHs/DClglCMiGUx/LRlfDMsrEcdffTZ1tDE+hBuP44kFk5G4F8CoiU5vc6/3M94mFkybYJGPK3QZ4ye+XCa91kbH9dPuNuXnda07b3sP1JUznPhIVIdkVxw+/ES+wkono9IUl87jz9BSh1zGIxwBR8ARcAQcAUfAEZi4EMgJ5sRVu3dWbRIpHEckbc1zmpifI6s4W4ZbMC2KHnYEHAFHwBFwBByBdwwCTjBHpqtEEGWdtKUqjTgRSMJY1pHnUJh0yTjBBCV3joAj4Ag4Ao6AI/COQ8AJ5sh0mSWRlCiSqNJtek4oJS+ZMj1G+BS5EHTfEXAEHAFHwBFwBN4xCMTPtCUyFL8BnCxp75iKT2QVraKCEEXi8zTOSxIZZXBWRmG3YE5knezVcQQcAUfAEXAEHAFHYHwiINKIXxLEceSReihOcjZOZNOmpSnzGOEWzPHZi34tR8ARcAQcAUfAEXAEJiIEulFByCIOImmd1l0SZ/Mr7BZMi5aHHQFHwBFwBBwBR8ARGDAEIIWyRNL0nEySLhnSRSIJ43ROPsJuwfwvLv7rCDgCjoAj4Ag4Ao7AwCIggpgDQDwHxFHkUTI2zeaXZdMtmELKfUfAEXAEHAFHwBFwBAYQARFEkckcgqp0EUnJWhninGAKGfcdAUfAEXAEHAFHwBEYQAREDtV0a63MiSQykpevfPJ9ilxIuO8IOAKOgCPgCDgCjsCAIlBFFEUybRph4nEK40tGPuluwQQFd46AI+AIOAKOgCPgCAwoApYYWgjq4pHBSokTEZVPnFswQWEicW+++WZ6A5hyyiknkhoNTjVeffXVMM000wxOgyfRlno/jp+O7VdX9Ztv/LTKr+IIOAKaCodUiizKFzqcS444ZCWfx5PgbgIj8MADDxSzzz57MfPMMxdPPPHEBK7NyF5+lVVWKZZbbrmO4wtf+EJx0EEHFbfeeuuwLnbMMccUkZAX3/rWtxqVc+SRRyb5XXbZpZT/+te/Xkw22WSNyygzemCiQsD7cfx0R7+6qi7fjDPOmO7Jl156qVEDJP/00083kn+nCuXtrNJd79S2TYh6x5fPYvfddy8WW2yx4pOf/GRx3nnn9V0NPXd22GGHvsuYGDNGcli89dZbBb4OznUoXefxhbGwxxtvvFHoeO2114rXX389Mc+Jsa0DVadTTjmFj92n4+STTx7Vto8ZM6ZYddVViwsvvHBUr6PCp5122rJtaqP199tvP4m29g899NBUNoqjiZP81772tVJ87rnnTmXMNddcZZwHJk4Euo1d78fx02f96qq6fNIPTQmm5EeDYG611VbFOuusM36A7HGVvJ1VuqtHEZ5sEPjhD3/Y8Rzad999TWp1sG48qC+22Wab6ozv0FhLKhUWqZQvcilfBFPEElJJWL5bMCeCwfDKK68U6667brHhhhsWzz777KjW6Nxzz003Gm/E48NJUf7+978v7r777uKuu+4qzj777GLzzTdPlkPIJuf9ON3owyGY559/frHCCisU55xzTj9V8DzjEYFuY9f7cfx0RL+6qi6f9MPEQDAXWmihYqaZZho/QPa4inARkZausy/HPYrwZIPA0ksvnZ57P/nJT4o//OEPBRbNXq5uPKgvJjWCCR4ilhDIPKw4fIhl7kMsiRfBxIrpBLPXKJvE0g888MAJQjCrHiC8RUIwN9lkk75Q1o0+HILZ14U90wRBYHyP3QnSyAG7qIhUlX6ogkLyIl5VMv3EQYBnmGEGJ5j9gDeR54FMxnWDaSkG/dzEdRsPeu5MagRThNL6IpU5oRS5zC2YlmBixZykd5Hfc8894aKLLgp33HFHiGtawsorrxwimQn5Rpq4liJ86lOfCmussUaIazPC9ddfH5ZffvkQ1+pF/lPtlCdaHcPpp58ebrjhhrTQlXxxjWF4//vf35FR8lXXiEw/7Ljjjkn+xBNPDPfee2+IFsYw66yzhkMOOaSjHE523XXX8OKLL4ZIrMIiiyyS0uPazaC8sfPDMsssk8qcfvrpU/r9998fTjvttHDCCSeE559/PsQ3upSXzS3HHntskuHn5ZdfTu257bYSxSJFAAAdaElEQVTbUpjyN95447DAAguUMm0C0003XYg3a4gPkEDYuuuuuy6stNJKYb755guPPPJIiFOg4Ywzzggrrrhi2GKLLaxoiFbO8Nvf/jaANxjiDjvssLDnnnsmHL761a+mvo5W0vCRj3wkxLWfYfXVV+8oQ/LRClC2OVq+wpVXXhnWWmutsN5663XI2/Ez//zzhzXXXDONi3z8dGTKTtqWYeV7jdloeQ2f//znwwUXXBBuuummEN8cw+KLLx623XbboH6PFuPWY4km3HzzzeGyyy4Lce1cmG222UJcR5vGweSTT162UP119NFHh2ihDldccUWg/vRVXE+cFoLfeOON4Ve/+lV4+OGHQ7QIhO233z7MO++8ZRkKxCUbqX//9re/pXT6mXGAazJ2m/bjSGCqOkdFHJq2T3lyv1u7JdsLZ+SGc98ecMABYezYsSE+MFM/67r411xzTTjzzDMD43/vvfcOua7SeOiFRV0+6Yc4c5PGCbqXcYx+Wn/99UNcm26rk3QI+iQSzKQflTic9sdlSamN1157bZhqqqnCpptumordaKONOnRI03tTdarye+lp5REuameV7pJs7mu8NNWj5H/qqafCpZdeGq666qqkO1ZbbbVA++P69I7im+KsOoyEbuiogDlp0h+MXfQSOsn2LX38mc98xpT2drDXeFBfcL/wXEe/8cyeZ555QlxiUeqtt0v8b6iJTs3zjO/zSL4Tj2EjD45zbfKRn8dzrjTk5VI4/kyS7uCDD05vLLGxyUomf8kllyxeeOGFjjbzVhwfekUcIKVsHDgdMvkJeRZccMG0nlFly2c92F/+8peOLN2uwdu78sL62ejDxhPiHn300Y5y7rvvvhTP5pbnnnsupUWiVkSFVJahsqhfJKJJJpLLIenI8dYux6abSPaGyMUbszjppJMk1sqXxaHKQhEJcbpWJP6pzG5vhvQH9WUtjZzkIwkupp566iH1/va3vy3RjvLtNBPWT8rdZ599OmTrxs/CCy88pE86MpqTtmXUydeNWcZrVX8tuuiihSw8bccSb6Y777xzeuPXOJK/xBJLlGOOZgr/+JLQgf2TTz6ZpkriQ6ojnnIYp7fffnuJEtdj3ZuuIT8qrOJnP/tZkmsydtv243AwpVK8qTdpX9nQLNCk3crSDWdkhnvf6t5izVnuNthgg9Q3e+yxR0rKdRWRTbCoykde6Yf4Yj5kDKCTH3roIcRKJ3mNbxKG236uo3Fn/SOOOKK8bpt7s8yUBZroaWXJ26kxYHWXZHNfslUWNvW11aPxJaKYYoophmAQSVhH0W1wVh2Goxs6Lp6dNO0P8LJ9qvBxxx2Xlfj2aa/xoLbxnM9x47kdDTZvFxZDbXRqR8YJcIL1EmetmIRpA/c5vg0rjmlxe8BjOGCok5xjh5gGUrSYFNGKmTqdjRzEf/rTny7+85//lO3WzQxp+8pXvlL88pe/LB588MEyvSqgPJTHTulf/OIXBQ9CyA5xc845ZxGtMWVWyVddo0r5SuGyY806bizK/+xnP1tGf/jDH05xX/7ylwuURbQ8lfVgWhHHNEG0BBV6YOy1116JBEfLYUqHdGujBISP9W7Is0Ob63EjsY6yrVO7LcFkbcbll19eRAttKnv//fdPxerGbaoYJU/9osUukc9LLrmkYEdxtKyksqOFs6yy5K2SriIm+fiJFsICsqrxgwKiDd1c2zJy+aZjlnZGy1IRrfRpZ+Qss8wypN1txtJRRx2V8rOLlTHypz/9qYgW3iJasFM8XwCQE57gD/HmywC/+c1vkgLiYUQ8hHJM3FjG/cQDizg7dn/+85+nOOrNS0y0CBbf+c53Uhzr4XhB6jV2qU+TfhxJTJu2T1jlfpN2K083nEfivqXP6Jc465L6TtflAcELKGm33HJLiq7SVU2wqMpHgdIPXKNKj1In6SgrL4I5Eu3/+9//nsYddYgzOkkvYiCIMz2pzW3vzZSp4qeJnlY24aJ2agxY3SXZ3JdsUz0aZ2ZSH28e18X/9a9/LdCh6FPb721xVh0oo1/dkLdL5236g3HHc5h6oNP++c9/pgMyVOd6jQfbto9+9KPpecuzcbPNNkvXQec988wzZfFtdGqZaQIERCStL6IJqVS8JZkQTA6RS8Iil5MkwaSBcUovdfSPfvSjjm7iZhWp4SaS081s3+qUVucrD0oR4OVYu8HiYAZ0nMpWdKlIq65RpXx5e6aMOB1clkGAT/4QH6e6UzydyIYdDnvTQJKRsw9zMvzv//5vio9m/pRfP1rfBonKF0DTRsqK09ASb+wLJzbSxCmbArKjhxZlYm3T9XTjNlWMksfaBYmx7tRTT011htD/4x//SEmSt0o6Jybdxg8kSe0566yz7OU6wm3L6Cbfa8x+4xvf6Lg24wJcecGRazqWIM2yhOdv4VhfKBesZZ0XntxvsqbrmnHaKMlDTFFIODaw8YJkv5QQl5YU1A/fOsYF1xOxIa1u7JLWph9HAtOm7aNuVa5Nu7vhPBL3LXpDLyZxGq+s7tVXX5364IMf/GCp46p0VRMsqvJxId1P3fSo/ayY5EW8RqL91IOxyXhj/FvXz71p8yvcVk/n7dQYsLpLZee+ZJvq0U984hOp7XF5UlkUz0fuVT4vhWuLs+owHN1QVsYE+ukPXlLp2zYbuOrGA1VR297znvcUjz/+eFk77iMZaTTj11anloVNgIDIpPUtsQR7DhFMfMXh0375hGn7JGfBjGsh0mCCSNLI3MX1Ril9t912K5N0M7PDualTHpRw7tgVzYDGmikn+aprVClf3iQpg+lp3h5xKFVM8FitpGBVPv6f//zn4qc//WkR13MmMkd+3h6tq3tIY5lCPq7dTIoF5aKDHe6kMSXb1qnd5LcHlgKsy//617/KInXjNlWMkod0VzmWCHBNdhjjJG+VdE5Meo2f3/3udwVW5bgetOqSKa5tGb3ku43Z3Koc186mNkMEZWVtOpaYulYfcU31v3wUKumnRvKOE55x7Wo6tz/067vf/e4kH9c6JYu4XiSsnMI8BLCUYr2Ma7/KF0GsFXJ1Y5f0tv04XEzbtk9tyP0m7e6G80jdt1tuuWXqK6zhchA7+tsSvCpd1QSLqnxcR/qhrR6V/hup9tcRin7uTeFX5zfR08JF7dQYsLqrrnzJNtWjLH+gn3nJYNaCmavctcVZdRgJ3WDr0k9/jBbB/NznPmerlsJxLX/CUsuz2urUIQWO5wgZy0QsRTYtqcyJpSWVcC4OWTEnOYIp83nctFPZNRdffHEaABApOd3Mjz32mKJ6+sqTr5EkY1x8nK7BA1lO8lXXqFO+fBCWG5/pdxwPds61ZlFl85ZJHGn5ERfnSyz5dQ9pTYHm+e050yZtndodN6GkaVymcrEEMkhzJ6XEwy53VWuHJF+1doz8X/rSlxIehx9+eCpO8lZJ58Sk1/jJ61V13raMXvJtxqyUKf3G+ku5JmNJL0a2z6vCmhkQnlUPMq4LCWf8qQws17xUMN7lGAdY3zUlJ1n51lJcN3Ypq20/jgSmTdqnduZ+m3Z3w3mk7luW1YA5U35yvFASFze/KCr1nfqGh4hcLyzqdJz0Q1s9KuI1Uu2vI5j93JvCJPfb6GnhonZqDFjdlZevc8k21aMsF0OH6oWQ/mW99a9//WsVWS6RUd9X+fb5oDoMRzeUFzeBfvpDOnGkLZhVbZMe2m677VKt2+pU09TxHhSZ5MIK46Or8kPxkElZMUUuJ2mCKQsO09RVThtLeCOT081cRf4kk/vKw/Vyh5WLGxDlJyf5qmvUKV/WtFEOaztwsiTyLS85OlprA1njg2UGZc83J8nblGBCuJHH+oliqTt03aa+2m1JRV1e2kUdaGfutHbULjGQEuOtscrxkkF53OQ4yVslLYWgTT69xk/VdfK4tmX0km87ZrXhyRLMJmMJCyJ4sVaJNbJ1Y0AbL4RnlaK1mDAdjIwsoGuvvXaZrLZhmedzVaxN5CUEeerSL8EcH5iqEd3aJ5ncb9PubjiP1H0LydDSFdY83nnnnQl/pjh5uMjV6Sql12FRl0/6gf7KXTc9KuI1Uu2vI5j9jKO8HZy31dPCRe3UGLC6q+o6xLXVoyoHSzSzM5BL7j1mylhfi2uLs+o7HN2gelm/n/4YnwST2R6wE8Fsq1NtW8d3mDFad+QEk3OIpXxZMWW5hGROklPkNJQHJFOEdv2WOot1gAwAbSwhXjdzFflTvtxXnqp/BNBiXyxocpKvukad8uWNl7q+973vTZYD1gfRLlvGmDFjkgxk1m5c0sL7OoJp208dUVxci7WSuUP5YnWMn7LIk3qeq91NCKbWcn3gAx8YUq7WtVYRTP5i0y6qJjPTUCwvoE2QbZyUnlXSOcHsNn64efgXJNY3ag1sKjj7aVtGN3mKbjtmqwhmk7EEIdXmKF5ScsfaS8YB9cUJz6qHCB+uB2c2CclxP9IfrIvVWJXlnX96sU4bD6oIZj52ydemH5EfLqZN28e1qlybdnfDeSTvWwg+/YNFWWvu9KBUG6p0VRMsqvJRpvRDNz0aP1eky5fyIl4j1X4RTHSGtcz2c2+WlTWBtnpauKidGgNWd5niO4Jt9Oi///3vYqeddip+8IMfdJTB2n3Gwne/+90U3xZn1Xc4uqGjQuNO+umP4RDMfDxQjW5tywlmW51a1ebxFVdFLrk28VUEk7iBs2ACSPwOYLo5+ISLSCaDjBuJmwYCahfn6ma2xI1yujnlYQBqcTSM/fvf/366BtexU0uSr7pGnfLl+trswNooylx22WU7qqW3fKyYUoxYmJZaaqkkj1VChICMspywbpF4rdNjbagIWfx2WWm1gKjOMcccqSxZTvknBD5lg6Wpl1O7mxBMbkbVQdOwlH/88ceXmFYRTHBhk4D6lLYw1Uc8REJOisEq6ZyYIFs1fsaOHVtonRo76tlp2M21LaNKvt8xW0UwqWuvsYRM/OZpwg0rRvx2JVFpDTAb1sATK7k29AjPqocI/Yc8/06FEsJBNomzBFNWZtYO4yCehHmRQpZryNWNXdKb9uNIYdq0fap77rdpdzec29y3eR3yc20M5F6S/ojfRewQq9JVTbCoykfB0g/d9Cg6Tk7yIl4j2X5eHBlz8buJpXWG67a9N1VX67fV03k7NQas7rLl23AbPSrCBv7WiqzZMhHMtjirvsPRDbZNNty2P/ohmFyvbjx0a1tOMCmnjU5FfkI5SzBFKBWnc/kinYwfkUx8WTDlT3JrMOkcSFP8yHZSFigMpuZkmeHhpilTdaRu5iryJ5ncVx6tHePcrmGxC+PJK/mqa9QpX/Ltt99+qR1VxIt0Nk5g8aOdWDr1mSTOdfC9PjnWOimeRd2QR32Og2lRkROspdpZivzWW2+tIgq+IUhcvha0FDABtbsJwSQbxFX1Y0cem5Q413dBqwhm/BhzKcM6G+Wn/nw3VE6KwSrpKmKSjx9eSFQmxCd+WF9F1vpty8jlhzNm1Yc8aKzrNZaQ5SsIfLlA7WVs6d7hZYVF9nLCs+ohwjiXgsbCzFjRDnWWO8jpEx7guthii5XT6Lo+eVkfiOs2dpv040hi2rR9amfut2l3N5wpt+l9m9chP48f0U56ihco+gPs9dIq2Spd1QSLqnyUiX6gX6Qn8K0eZe21dZITwSRtpNqPjmPcMd7RI5AFXNt7M2XKftrq6bydGgNWd2WX6Dhto0elF+hzXiw1W8QzxxoR2uCs+g5HN3Q0yJy07Y9+CWbdeOjWtiqC2UanmmaO96BIo0il9SGWkEkRTPmKy4mmyOYkSTDpGRTaN7/5zZIk8XDjzdx+5Fk9iIJDsfCB6KZOCgALKd/V5KEOCfrYxz5WnBo34+Su2zUYgNzcHLL2KD9vjnrY4rM+KndYmphS1BoqFufHfwAq4j8zpA/IoyiswyrBp0coD4IpKy8yTOVQlurLGix2xHFTy7FekbraHadKy32V05RgMnC5nkgzip4PcbO2i/pWEUymbdkJqTw8GFmekJN5KQZL/tk1Sbn5FF0+fsAQq5O1Sudtzc/blpHL9ztmReTsQ5i6NRlLyGFF5N4RuYdwQBDZqGWd8MxJgGSYlo//yFQSTerFJh+m5ayjHK7FmOLrAtyn7GTFisJ9Zfu8buw27ceRxLRp+2xbbbhpu3vhTJlN7lt77bowu365Hzg233zzIWJ1uqoXFnX50A8sKfrjH/+Y1vlxn6FHmYHQp15sJaRPWC9o3Ui0n691iFQw5u1n2drcm7ZeNtxGT+ft1BiwusuWnYfb6FHyMmuFfsMAw33IbIfd5KPym+Ks+g5XN+i6ud+mP/olmHXjoVvb+Pwf907+ItBUp+btHJ/nEEqcJZqMI50TFqG0YeJEMGXN5MUUzjBJ/1Vk7Ojk4pReiOQrxDdTRQ3bjw+qjr9AjGCGCPKQv0Mc9oVaFBAHQog3RYikrGcu6spfRr7vfe+rlCU93pjpL/+qBOINXv4dYVX6SMTRb7QlKrzGxcW1VCFaLhvLNxGkTMZPfOg0Ea+UaVvGaIzZyor1iGSMRCv9sNrOJSIhCNHC3vVqkXima/W6T3uN3bqLjCamTdpXV6+m7a7Lb+N73bdWdrTCw8FiuHp0JNrPmI8vNumowmi446iNnq66ftu4NnqUv4KMBD/wF8Ld3EjgrPKHM14oY7j9oXrU+b3GQ12+uviR0ql15fcbH7klBsfK5y3x1vFMlrzirYzCA0EwBcBI+jnBHMmyvSxHwBFwBBwBR8ARcATGFwIihfhVRh2l2/rYuDycyok/ndTU5vZwLQJOMGuh8QRHwBFwBBwBR8AReAchYKlgIodm5hCrO6RTlkuaJRmlca44fJxbMBMM7X+cYLbHzHM4Ao6AI+AIOAKOwMSHgEihSKKtIXF18SKdyk++Uj4G3IJpkWwYjp8CSiDG70xWmpMbFuNijoAj4Ag4Ao6AI+AITFAE6qigjSdsp89lvaTiSlNcOo8/TjAnaLf6xR0BR8ARcAQcAUfAEZiwCHSQw3EbeSCUxOMsuRShJF400vopPf44wQQhd46AI+AIOAKOgCPgCAwgAqKCiRiOW3+psPUFDXGKJ46wnMK+BlOIuO8IOAKOgCPgCDgCjsAAIiBSmDddJFLWzap04mx+5XGCmaPl546AI+AIOAKOgCPgCAwYApYk0vSqDTyCRLJWxoYTyYw/b9s1ldN9R8ARcAQcAUfAEXAEHIGBQKAbFUxkcdxaTK3DlLx8QBLBJJzyxB8nmKDhzhFwBBwBR8ARcAQcgQFFwG7mycmiILHxdtrcUkmFfYpcqLnvCDgCjoAj4Ag4Ao7AgCIAMRSBVBgoRBgJK93G23TFp/zxxy2YIOLOEXAEHAFHwBFwBByBAURAVDARwzgd3o1IkoZTHsJV1ky3YIKMO0fAEXAEHAFHwBFwBAYUAZHFnFjq3KYDkc4FF+eSVboTTKHzDvVfffXVMM0007xDaz/61X7zzTfTjTDllFOO/sX8CpMMAj5uJpmuHJWG9Kt3fVyNSnd4oSOEgKyQIosqtopMKk2k0soo7ARTKL0D/d122y0cffTRYY899ggHH3zwO7AFQ6t89tlnh2OPPbYjAXK40EILhZVXXjmsscYaYeaZZ+5Irzt58MEHw0orrRRee+21cO+994Y55pijTtTjHYESAR83JRQTZWCmmWYKr7zySnj88cfDrLPOOt7r2K/erRtXas9zzz0Xpptuup7tkfyEan/PCvYpgN4H26233jocf/zxfZbi2fpFQKRQ+TkXeVScfOIho5IhXvkVl87jj7t3KAJzzz0362eLueaaq6MFY8aMKVZdddXiwgsv7IjXyVZbbVWss846Op2o/EMPPTS1iXZVHfPNN1/xyCOPNKrzKaecUpZx8sknN8rTr1AvzPst1/ONHgJ198H4HDej17pJt+Rpp5023ddPP/30BGlknd7tVZm6caX2vPTSS72KSOmSH432190TjSrWUKjuGtL922yzTcOSXGwkEYiEsag73nrrrSJa3wv5hPPjjTfeKF5//fVCPmFYp7t3KALnn39+scIKKxTnnHNORwvOPffcpICPPPLIjnidRGtgEd+CdTpR+VIyW2yxRXH33Xen48YbbywOOOCAgnpDOhdYYIFGdY5WjmLdddctNtxww+LZZ59tlKdfoV6Y91uu5xs9BOrug/E5bkavdZNuyaNJsJqgVqd3e+WtG1dqz8RAMOvuiV5ta5Nedw3pfieYbdAcOdkqcknpxEMsOWzYkk2FIZdOMEeuTybKkg488MBagomSm2GGGSZ6grn77rsPwfaZZ55J9YZkxummIekTMqIb5hOyXn7tagQm9vugutYeCwIiZKNhwZsQCKs9E5pgjo97ots1nGBOiNH39jVzgllHKi3RxIoJoZSP1dIek/QazHvuuSdcdNFF4Y477gjzzz9/WHPNNcPyyy8f6jZ8WPkZZ5wxrfnbZJNNhsjvsMMO4VOf+lRYffXVw1lnnRVuuOGGsPDCC4doKQuLLrpoiGCHSy+9NFx99dUhKo2w7LLLhu222y5MMcUUkRv9141EGfFNOlx55ZVhrbXWCuutt164//77w2mnnRZOOOGE8Pzzz4ell146LLLIImkTEOtb4jRxOPPMM8O1114bpppqqrDpppumymy00UapLarbzTffHC677LLwwAMPhNlmmy0st9xyYeONNw6TTz65REr/5ZdfDqeffnq47bbbAmGuh2y0MpYybQKHHXZY2HPPPUMkmIFw7lZZZZUQp6PTNTfbbLMgHFmbed5554Xrr78+9fEuu+yS1l7uuOOOqYgTTzwxrcOMVt20buuQQw7Jiw677rprePHFF9O1aQfuiSeeCMobb6ywzDLLBMqcfvrpU3ovzJNQ/BkpnOwY7TWm440fonU73HTTTeHJJ59M61i33HLLsOCCC6payQfPM844Ixx11FHhzjvvTOP2vvvuC/POO2/44he/mMa6Mtx1112hLYZN296tL7l+VIAhWrPDr371q/Dwww+n9my//fapnqoffq8+63UfsGbXjhs77kcDU9X9qaeeSnrjqquuSuNrtdVWC9ybk002mUS6+r3arcy9cEaujQ5Qublvx2ovfRpnYsLnP//5cMEFF6TxCs6LL7542Hbbbct7TeWzTjESlRAJZrqXL7nkknDxxReHpZZaKukDycm/7rrrkl5EJ+21116K7vDjDEkYO3ZsiNazpO9s4jXXXJP0Jvfb3nvvHXK9K9le/Vc3rtSeOMuSxjY6jPajv9dff/0w++yz6xLJl7zar8Sm95nkrd/rnpBs0z6VvPV7XUO6nz5gjHKfs3Z+nnnmCXFJV1hxxRVtcWV4uGOVa0VSFI444ojA+lY58OQ5MvXUU4fjjjtO0Y31EBma1q3XPdlrbJWVG0YgUs0yd772kjQO4q1TnE1XOMnFk0nSxU0vRSSSyZIXG1r6kQgWjz766JA218kvueSSxQsvvNAhzxtnfPgWWouj8uNALCKhLdZee+3yekqLBCiZmFXQSJSBlY/y99lnn1RsJJdDrks6FkscdVZ9rB9vrJTOm8nOO+9cxEE0RG6JJZYo4iL0JKefW2+9tWBNpC2LcCSvxUknnSSxVr7eYqssmLwlCfNIklO5wjEqobIe8WZNaVgEVDfequIDuIgP6xSXj4FIqFI8Y0btjA+mIirzsgyVFQlaEYloukYvzBEaKZzqxmjVmH7ooYeK+IAeUnfaH1+KUt31I8zjJqpK+WOOOUairTFs0/ZufUnfR8I1pH70z+23317Wr0mf9boP8nGjwkcLU8qPJKaIL6BD2hdfAnX5rn6TdquAbji31QEqM/frxmqdPuX+rdIl8YW9yC2V1J97UfG//e1v0/kss8xSRBKXVyUtk0F+3333HZKmCHQGMqwPzN0GG2yQ0uJmypSU610im/Rf3bhSe6LxI11Hegafscq4s07yaj9pbe4zW5bCve4J5Nr0qcq1fq9rSA+h4/N7Ab0VjSS2uPQ8bfO86shsToTnY489ZmKLIr6Up/7geSbXVA+1vY+oA/hUPceajC3Vbzg+FkycpsFznzbRfnzSCHPEl6Hk84y1Yc7/PwAAAP//5gTriAAAQABJREFU7Z0FuC212bbTluJuLW7F3d2dAgVavFBci0uxD7iKS3GXAsWLu3P4cCvu7sXdC//8ufOdZ5qVPTNrZu29D/vs9ea6ZiWTvMkkT+yZN8kslw1Cc/HFF2fOuXBtueWW2WWXXZbtvffe2WSTTRb8ppxyyuy7777LS57KX3HFFdmJJ56Yyy+55JLZt99+m8uPOuqoIZ2RRhopO/roo7NHHnkk22qrrfJn8uzFF188I50LL7wwG2WUUUIY9zJ9kcauu+4a0t1rr71Cst9880327LPPZmuttVbw32OPPbKXXnope+WVV0L4m2++md1zzz0hjDwRxvXpp5+G8GOPPTaEjTXWWBlxH3vssezGG2/MpptuuuC/6qqrKvvZ559/nk0++eTBf4kllsguuuii8Oy//OUvwW+EEUbIHnzwwVy+ruPwww8P8SlbbF599dVs8803D2FjjDFG9sUXX4Rg4fjLX/4y++Mf/5hdeuml2QsvvBDCvvzyyyBPfXz//ffBb+GFFw5+J5xwQpx8duihhwb/FVZYIfefZpppgt+aa66Z3X777dm1116bzTTTTMHvwAMPDHLtMO8rnNI2WtWmKetss80W8jn11FNnp5xySnb55ZdnG220UfCjbq677rq8nMIcnGaeeeZQTupuww03DPKjjTZa9sEHH+TydTFsWvaqunzggQfyvAwZMiTU8frrrx/8mtZZu35Q1G76G9MVV1wxlOVPf/pT9tprr2VXX311Nvroowe/+++/P8e+zFGnrSpuFc5NxgCll9ppW607nv7iF7/I9txzz+zRRx/NSGPccccN5d99991bHqH8v//++8H/xx9/zCaddNIgSzuPzSeffJIxTtO2GRvLzC233BJkfvWrX2WkJ0O9jznmmCFM9ZCOu8jWqb+idkVclYc8LrXUUtkll1ySnX322flYQ540hsfyKn/TfkYaqWnXJ5rWaZo+9+2e0XQc6ou2Sr6E/1tvvcVtbt59991Q7yOOOGLuV3ccapo35aFoHqvTtvIM9sLx//7f/wttHzt1c//DDz+EcPqHwuWH/Z///Ce/6Ddcrhf5GZBRKeiEE04YGsaRRx7ZkkeIhyry/PPPD2FV8nTgCSaYIKTFgC+jNPbff395BfDHH3/8IDv99NPnhAaBHXbYIfivu+66uXxfpFE00PGA7bffPjzviCOOyJ8nx8cffxzCIA2xgXDjxyAHuY7NnXfeGfx/9rOfBUJKGAQLWUg7JCs2DJKEbbDBBrF3LbcGGSaMxRZbLFwzzjhjSI80uc4777w8LeF48MEH535yFA3oRx11VEhj+eWXl1iwF1pooeB/2mmnhXs6xzHHHBMuOo4MBJY8xKSGsDLM+wKnqjZa1KaPO+64kEcwZIKNzX777RfC5pprrtxbmEPc33777dyfcusl4vTTT8/962LYtOxVdXnVVVeFfPOyIwJAW+bF4Mwzzwx5a1JnZf2AhIraTX9jOuecc4bynXvuuTnOjDmU7/nnn8/9ihxNyk38MpybjgFFealqq+3G05133rklSfoifW2SSSZp8Vf+RbAIhIQiu/rqq7fInnHGGcEffKsMbV2E9r777stFb7755hCfvsSkiikad+vUX1G7Ij2Vh3FTz8D/66+/zmaYYYbw/O222w6vYCSv8jftZ0ontcv6RCd1mqat+7JnEF5nHKI+MX3RVkNC/kd41iGYdcahTvKmPBTNY3XalsrSG5u2l14xmcSdXrSNmFjKzZgEDoOOYD799NOhQ0IMKWxqbrvttgzt1a233hqC2skfcMABIb2ddtopT0qN4eGHH879cMw///xBdscdd2zxP+mkk4I/JEamL9IoGuhIv4zsEFbWwdHCMkBzUWYmtviCfBB21llnkUyGNpP7BRZYoEWOOAzyhE0xxRRBtsmPBhnipxdEEy1ibITjE088EXsHd9GAjnaIdHkr5c0fw0D985//PEODokE7BAz9ee6554IWcOuttw6El/jkJTZlmPcFTu3aaNqm0biSRwhyangZQDNGeUU+hflKK62Uimcrr7xySEtacgTqYti07FV1+dFHH+WaqKWXXjpozNMXmzjz7eqsrB+QRlG76W9Md9ttt4AzJIfVgyptW1zO1N2u3MiX4dx0DEifzX27tlo1nqYrHoyvtGNebJmsZJT/uK8++eSTQZZ+TVuRYfWJNFJlg8Jje+ONNw6yaFFlIHbEjwle0bhbp/6K2hXPUXkgs6m54IILwvNZOZGRvMrftJ8pndQu6xOd1Gmatu7LnkF4nXGIlUhMX7TVkJD/EZ51CGadcaiTvCkPRfNYnbalsvTGhlzGhDImmymx5B5yKX/cIpuQS12DjmBKlb/ooovWwrqd/JVXXhk6OERKRo0hbZDrrLNOkD3ooIMkGuwbbrgh+KPZlOmLNIoGOtIvIzuElXVwDWQMplWXBmotm1fJQmSaGg0yLM+yVMbFUr3IUJpeGY7IlQ3o88wzTygjS1EYSDPlYKk/NmiO8Csq47TTThuLlmLeFzi1a6MtGfE30vhCPIvMHHPMEcrE9geMMN9ss816iKuNbbHFFi1hdTBsWvaquuThvBSCu+qDpUu2wFDPMnXrrKwfkE5Ru+lvTNmCs8kmm+QkmjLOPffc2fXXX6+iVdp1y00iZTg3HQOKMtSurTYZT9kGo7p+55138scp/yJYCpCmhxd6DOMzL1Jc6VitOLHNyyvPY5uIDC/J+N1xxx3yKtRg1qm/onZFoirPG2+8kT9Djqeeeio8nxd8Gcmr/E37mdJJ7bI+0UmdpmnrvuwZhDcZh/qirSpPwvP111+XV7CLlsgJaDcOdZI35aGondZpWy0Z7/AmJpRyk5SIp8gktvxQ4sXkUhpM7EGpwdRbL0sLdUw7eZYGGWB4S5Qpawzah5kSTJZcSKMOwWyShib/WLtEHjshmJAN8sj+S/bnMbEVXS+++GKAAcKNPFq9Ijn5CbO6tgYZylbHlNUFccsG9EMOOSTkHRKLkcb1+OOPD/f80IG0Z5f9bWheGFikKalLMPsCp3ZtNM/0UIe0juyLLTIsOVJ3vGljhHkRwUQjjWxKMOtg2LTsVXUZl+Puu+/OyKu06qusskoIblJnVRNdUbsZFphSCDQkrLBALsEdrTr7vqpMk3KTThnOTceAojy1a6tNxlPSH3nkkQMOdQimtm4suOCCIWtsEQJDlp7rGCZy7bdkz+Pjjz8e4rPliklVpmzcJbyq/oraFXFUH2CXGl4SKQMkUkbyIphN+5nSSe2yPtFJnaZp677sGYQ3GYf6oq0qT+ONN17AmPqOzTPPPBP84z2YcXjZONRJ3lSnRQRTz6xqW5LpjS3SiB1fMbGMySVukUtpLyGWaC9lDzoNJgWFJLGsok3ZAp2CL7PMMmFPj/baVckTj32AdPB4v2VZY2hCDvsijbKBTgQzzrMwUAen04CHDAM4kxll1fYBhWFzGIj9fuCF2WabbYLsIossEu7jH56B7HvvvRd713JrkOlPgom2h3IysDDos/eU9hJ37iFDhgQZBnYmHhlt8i4jmCnmfYFTVRstatNomSkfm8NTw2Elwqh/LTsK8yYEsw6GTcte1icoA4flSA9ttgz9m7KwMZ46alJnZf2AtIuIQH9i+tlnn2Xbbrttlr6Yss+X8u27774qcqHdpNwkUIZz0zGgKDNVbRX5JuMp8k0I5r///e98DONFWJp67dsjvXZmvfXWC5izvUR7G9OXq3TcrVt/Re2K/Kg+9tlnnx7Z00G73//+93mY5EUwm/azPKHEUdYnOqnTJOn8tuwZCDQZh/qirSpT0nyfeuqp8go2Y47GSgXUGYc6yZvqNJ6DeGbdtqX89dYWgYRgYnRPG8AdX/LD5oq1l8xLg1KDCSg6bTzVVFPlJPPVV1/NtMeGU7ScaJMpkmd5hkGfBgZhjQ8/lDWGgUIwpSVgzycVLyKh8kqDxdK9GglhHEKivGhPXn755SDOPkUdUkKTp6Vq9opAUpDnAAQNDwMBm2iiiYK/NII0PDYvpxNoiJD8aJDpT4LJI2eZZZaQR/ZbUQZpPZQdaQ7QYoqIM2nNN998QR5NB9jJlGHeBCelVWQXtdGyNg2514EtcPzqq69CknfddVd+2jbGV5g3IZgk2A7DpmUv61c8SwRv7bXXzvdWQzapOxHMpnVW1g+KiEB/Yko7YoyhP8VaLGnW2xHMpuWuwrnJGEC9FJmittrJeEraTQgm8iLlf/jDH0Lb4AS5xizC2xkd4kPrqb5+0003tURLCWbd+itqVySs+qD+dciLMfuvf/1rKANtnDqWkbwIZtN+pnSK7LI+0bROi9KWX9kzmo5DfdFWyZP22fLFDWGKPeusswb8qReZOuMQsk3zpjpNCWbdtqX89caW1lKkkrTkjoll7Ef+dDFPimTi5hp0GkxAoXMut9xyeedk8KaTcqGpOueccxDLTSrP0pu0eUxe7KmITVljGCgEk708Ki+HBiB8+hQR5dh0001DOGUce+yxwyEd/Dm1yOlqxZ144olzHCBUbPaODUvpmgAgNDqFSXyeIYOc0oz3Mik8tjXIxAQoDk/dZXWBXNmATth++/3faWqRZAaO2HCAhPKTbzSd+jyRyoG97LLL5lGqMK+LU55YgSNto+3aNJOiysYLlT55Q77nnXfeUNd6jDBvSjDbYUj6TcpeVZcMvJqYxhlnnLA3ViSaz3JhmtZZWT8oazf9iamwZHziBU+nh6lD9iFXmablrsK56RhQlK+0rXY6npK2xhe0QjLKv8iA/LH5OkjcR9dYY404uK2blzHSp89QF7Q1vWAqckow8a9Tf2XtiueBkcqFrU8rURbmldhILi5/k34Wp5W6y/pE0zpN043vy57RdBzqi7ZKvth7qbEE3PnChrZKsH83Jph1xiHSbJo31WlKMEmrTttCrrdGWktskcjYLT9sSKVsEUyRS+xBTTABms68yy675KSHRsLBnzKCk8rT4HiL1T61uPK094tNwLEpI5gPPfRQGPTiPZh9kQanTRmAipZWmAz1bTgIZrxdAK2kOjkDafw5IZYawU2HGgjnoMu9994bFzV3szzHUqzKw34lTvoxIMmwVA6R5WR/UQeSHLYGmboEU89N64K06ORMElw0+tjw1h9PRPF35iSHFpeyabCZwm/4P+yww7Jrrrkm41uq8cBDnCrM6+Ck55bZaRtt16bReqDF1ssSGmi0YemEKczTiYx8aB8by3CpqYMhceqWvaouSYdleb7lKaJJH+WQD8tIMk3qrKwfVLWb/sSUlQDGKF5qabNoiNnLXMc0KXc7nJuOAUX5S9tqJ+Mp6Wrij8mU8s+etNRAEOOXKTSSTQ2kVGPDn/70px7Ry8bddvVX1q4oD0vh//rXv8JXOejXEBsOGxUt75eVv24/61GgyKOsTyDSpE6jJHs4y57RyTjUF22VDDKWsYoF9vQ9FAonn3xyGG/Scb7OOESaTfKmOi2ax0irXdtCpi+MtJiySRN3TCghljG5lDslmHCAn5GA70yD2vh9H86TBOfJUq1y+iWVIO8n5lryA1XINwrnNZfOf5+zMIuEeQ1BuIoECPeDdS3ceJZfBnP+jb8oKedJTfD3nbUwfCB7+g7m/KDoPElum812mLfDqe0Dhgo0adNg7zu784NY3eT7Ra6vyk7mPLlwXrNcms8mddauHxQ9pD8x9STJeYLh/J8hFD260q9JuSsTGhrYZAwoS29Yj6f+8IXzRD20D7+1yXmtVFnW+sW/N/VHhuir9BVPrjvKX1/0s3Z9oi/qtN0zmha+L9pq037dbhxSGfoib6TV27al/BTZUEEuT7B7BMs/leFeJnbjF+L4n/9KSNJsQ8AQMAQMAUNgOERgtdVWc/6D2M7vr3Z+7/dwWALLsiHw0yAQ00ERTfxi/zhn+BfJ8aKLf1doMGNAzG0IGAKGgCEwuBDwf1Hr/AEp50+SO/+Reue3GTh/CM757RSDq6BWGkOgHxEQMUwfgT9GZBJ3TDrlJlzuQD79j2kwQcuMIWAIGAKGwHCHgN/75WabbTbn/8Uo5J3tUP40tvPfLh7uymIZNgR+KgREBQMxjJbJ5U++FCYiWRQmvyDrf4xg/lQ1as81BAwBQ8AQ6BME/Jcc3Icffuhmn312N7zvn+8TQCwRQ6ABAqKCKXmM73HLSD69xx+5oA31N0YwhZDZhoAhYAgYAoaAIWAIdBkCooI5Oawgk4JGZBI7dSNjezCFlNmGgCFgCBgChoAhYAh0IQIimCp6TBhFOgnDHd9LHjsmmqbBjJExtyFgCBgChoAhYAgYAl2IQEowYwgUBrGMSaT8kS1ymwYzRtHchoAhYAgYAoaAIWAIdBkCEEQRSBVd93GY3MiIVEouPoUe5PyP7cEUmmYbAoaAIWAIGAKGgCHQZQikVDAQxKH7MOPPFKX+kEuM4svGzzSYoGDGEDAEDAFDwBAwBAyBLkVAxFC2iKPgwJ8r9td9Gsa97cEUcmYbAoaAIWAIGAKGgCHQpQhACmVEHLkv85eslsWRUzz5mQZTKJltCBgChoAhYAgYAoZAFyIQE0SKL7IoKEQadR/LKK7CuMcYwRQiZhsChoAhYAgYAoaAIdCFCIgUFhU9JZcsk+OHKYsX4vjA/+pFi1I2P0NggCHwww8/hEbN/w2bMQSGVwS++eYbN8ooowyv2a+db+uvtaEywYYIWNtqCFiFOFSQC/IoW+JFNFF+kte9bOKaBnMognfffbc74IAD3KuvvuoWXnhhd9hhh7kJJ5xQ+DayTzzxRLfTTju5TTfd1J188smN4ppwNQIvvPCCW3zxxd13333nnn76aTfRRBNVRxiEoWOPPbb7+uuv3WuvveYmnnjiQVjCwV8kxofjjjvO7bbbbu7QQw8d7go83njjuS+++MJ99NFHbowxxijN/0/ZX62flFbLoAj4KdvWoAAwKURMDOOg2B83hFKkMtZsKkzyQcPpb7refPvtt5kfJNHkhmucccbJ3n///UpchgwZki2zzDLZ5Zdf3kPu8MMPD+lsttlmPcLMo3cI/P3vf8/r6cwzz8wTq6oPhDbZZJNstdVWy+WHZ8eoo44aMHjrrbeG52IM+rxXtcnJJ5881OFkk002XOKg8fKzzz6rzH9Zf62M1CCwCmPrJw2AHMCiZWN3f7etAQxJv2Xtxx9/zLg8OQyX3PJP770GOeP6z3/+E67vv/8+4+IeG1Vo15sbbrghDPazzjpr9sQTT2ReM9YWk4suuijEOeaYY3rIGsHsAUmfeXjNXbb66qtna6+9dvbxxx/n6VbVB0IzzDBD5jUaufzw7LCJc/iovao2+c9//jNbZJFFsgsvvHD4KEySy7oEs6y/Jsl1fFuFsfWTjmEdUBHLxu7+blsDCoRhlJmYQEIyy4gl/iKXskUyRS79KqMRTOptjz32CGRxn332qV2NBx54oBHM2mj1v2BVfTAQjTnmmEYw+78a7AkRAlVtMhIbLp11CWZ/F64KYyOY/Y1+/6c/2Mbu/kes8yekWksRzNhfZFLEU/cilSKZ0mIO6j2YTz31lLviiivco48+6sYaayy3xBJLuPXWW8/pcAh7iHbYYQd31113uZdeesnNP//8bqaZZnKjjz562B8V70OQ+9lnn3Vnn322O+2009ynn36ax2GzPnsvMUcccYTbfffdnV8id1tttZW76qqrwn7BKaaYwvllWrfYYospuRb7vvvuc9dee617/vnnw/7PhRZayK277rruF7/4RYtc1Y2vYOe1Iu7ee+8N+Vt66aXdiiuu6CaddNLCaO0wUiTKseiii7rlllvOnX/++Y49qzPOOKPzmkQ3yyyzON/Q3DXXXONuvvlm9+WXX7oFF1zQbbHFFm6EEUZQEs4vZ7lzzz03YHv//fcHXLwW0q2wwgpurbXWciONNFKohyuvvNI9+OCDDryorznnnDNPg72XW2+9dbg//fTTHftwqurDL6O78847z91xxx1uxBFHdOuvv36Iu84664SyKOGm2DeV13Mef/xxd+yxxwbs2H/Xzjz22GMBr+mmm875F6EgPtpoo4U9mLTZ22+/3ZEX36HdXHPNFTCn/RaZunVdFFd+77zzjgN39r/6QcYtsMACoT7iZ8b1TD36FQLHsy+44ALnt5+EpL766it3zjnnuIcfftjhpt/R1ilnHRM/o9O2pOfUzYueSf1Rj7T1Z555xk055ZTud7/7XegfpFlnjPAaTHfjjTe6lVde2a2xxhrKSrDr1hN90mtB3W9/+1t32WWXhT5P/6cdbL755mEca0nY39Qtq+J9/vnnoc9Sj37qCvufqadf//rXYQ+mXyJ3/uVN4j3stL9qLOsk73HidTDupJ80xSfOU+yO63DaaacNYzB7+zX3xLLxmP3uu+86r7FzG2+8sZt++uljsXz8bNf+iORX4pxfXXMTTDBBOE/QkpC/Yd5j/tt1111D3yO8btk1Fyy//PLu4osvDvMnZdtuu+3CYzwhcffcc08Y319++eVQni233DL0kyAw9KfdWNJu7C5rW3pGXAdF8z9ydfu00hzsNn0cg80+y9gtP+zYHYSGxondyAzaJXK/cT7znTloGSm7rnnnnTfzg6Yvexb2Wco/tv3hnhBe9OPJTJ5WHAcNmYyWyNln5QlWi/zPf/7zzBNRiQabt4E///nPma/QFlnSn3vuubNPPvmkRb7s5sUXX8z85NIjDdL1pLdHtDoYKRLaAD+RZto7prKPPPLImSfx2SqrrNLjuX4ACip2pSFc/CGdHrKeBGeeiGd+UmgJ88Q9u+WWW5RE5slrHs5bUrv6IM/Ka2wfddRRIc2m2DeVzzM+1MH2C/LhB/6WoP322y+bb775whXva5OGxpP1XF6amamnnrpH2TzZzz744INcVo4mda04qX3nnXf2qB/K4ifCzE9WuXhZPfvJM8g88MAD2VRTTdUj7/4FIDvjjDPydKocZc8gP3XbEuk3yYue6V9Ue+Sdfn3CCSeELLdrkwj5iT2ksddee4U4+mlST7QD/xJWiCXtIN1H3qSs5MeT/8K0PZnIKC9Yx21VZYjttL8qrGneFU92HYyb9pOm+CgvqV1Wh/6FPHvjjTdaxMvGbPD1L/ItsnXbH5E8ecvrKH2mfykKdcf8qLmlSdnBlXGVtkcb4PKkM+QVjdayyy6b+yuccf2RRx7Jy1NnLGk3dpe1LR5SVgfx/I9cE0yRH8xGmkqVUffY1CtzHxf32NJeYqO5lNZSbu4HJcH0b1V5A/dvToEAQerYUE+DX3LJJTMO9gDUhx9+mG277bbB/6CDDgr3IqACOrb9p0Uy//aceY1biMPyutckZa+88koupkbLs2aeeebMayUzrwHINtxwwxCHzhaTAP9GGvz9W1ZYrvdaq8xrNzKvzQn+q666ap52mYPKnG222YI8xOOUU07J/vGPf2ResxL8yIvXuubR62KkCBqsvZYxO/roo8NgwaCiAQQb4gjZZF8ZxBA/7mViXNh/5rWg2fXXX59B6JUOGOy9994hjL2W+M8+++xKogfBbFcfb775ZubfpkM65Im64vLa55BmU+ybyucZH+qgzfkTuCE/5EMGkiYM2BMs47VTwd9rfuWVqS68Nijbc889M6+hz6jPcccdN8j+5S9/yWVxNK3rlsjRzTTTTBPSX3PNNTOvOQ3t2msegx9EWCauZybVQw45JLwkMCjRt/SSAlFjDx39iTxTfl7I6CvtTPyMTttS07zEz6zq1+3aJGUrIphN66ldO/CrKDmMTcvqtVmBRFAnEIlTTz019GUOyqmdYveGYBK/rA3Hec8LETnqYNwOn7ifNMUnykqLM61Dr1kO45nmHkgTe9MwRWM2h0Y32mijvC9cd911efp1258i8CIAxnrxkT/kC3+/chS8mpZduEJQ//jHP2aXXnpp5leSQloQVdJmjhviD8Li71eNWp6HYJ2xpN3YXUYw0zpgDiqa/8lHU0yJM5iNCCTzFEb3sY1bhDMlmZBLXYOSYFJgEZYjjzyypS3wRo/miA5w9dVX52G77LJL8Cs6sJMLJY7tt98+xCnSDKrRsk/p7bffzmMCvCZXaWoYbKS1SzWbvOWRVzSQMRnJE4wc/pMnQdYvhedvpQr2y2UhDMJKw+kEIw0q+++/v5IN6Yw//vghbQgSDUrGL8EEf7+cJq+8M3NKPz6gA+6UkwtSLIOM/P22geBdNqhU1YfSAefYNMW+qXz8rNgt0i/SSLtUObEh2DIio/6TRPLKCebOO++c++HgBYL4tAGZTupacWObuqWeuGjHMkwuPFOTFf5q//RDaUgkL40sEy4kITZLLbVUSGuDDTaIvQvdekZv2lLTvOiZVf3abx/I81vVJlOC2Uk9qU+WtYNJJpkkz0vTsvrPtIW68J8By/yniPJ0cNCn1V57SzDr5L3l4clNFcbt8In7SVN8kmyE26o6hGgpP9JMVo3Z++23X8CYFSmZpu2PVRrqiZWk2PitV8FfCoemZVc5Dj744DjZ4GYVimcy10BEMIy/kFp99aPJWFI2dpNu0VxQVQdF839TTHnuYDbwg/iirNzHpFL38gNzLhFLbOqYa9BpMOMlyHgiVKPw37oMHcB/h05eWX8RzJVWWil/hhx+z1V4vkgEywYarMkbHTG+tJn+rLPOUhKFNlol0ikiySxf8hbLxdtqJxhpUGHZLDZ+32p47o477hh7ZyeddFLwZzCTUWcGg9joFD/5TwmJXhb8frcQpWhQIaBqoikbpJpi31Q+LmPs5sWHsqI5x/CGzT2fvcL2e3SDP5MS9+mnbFQXqaaPukGeFxJpSTqp6/Dwip/nnnsuaMj9XtiQV56JplJG9ez3Fsort9HGI+/3bra0c9q8NNZozNoZPaM3balpXvTMqn4dL3lXtcmUYHZST03aQdOySlOprSRxffClDeqQq7cEs04bjp+duqsw7k980nxw364Ob7vttjAG33rrrSF61ZjNy5ff1xyWuTUmNm1/vJRSR2w9YdzHQLJYfkdzjBvTtG0IV9pBangZYZWL5/r9/2GFIn2RjOO0G0vKxm7SKJoL2tVBOv83xTTO+2B0Qxpjgik3BJKw+BKxTMmliOagJJhSj/sDKYX17w+QhMbPBCfTXwSz6DuYmli0p84ffAj50YBdZqfaWOVdNhM8cRnE2plOMNKgkn570R+WCc9le0FsRBrRbMqoM6e4MMiQd5ZcUiMCq8+5FA0qxKmaaMoGqabYN5VPy6J7fygllFfaCbUJNBto2NnXCkFEmwsusRaYNMrqghcJtR/2YGE6qesQseAHLXLR/kOe6Q8y5DHK6hkBbftQPotsJtZ2puwZTdpS07yUPZO8qg7Vr/GrapOSFyHtpJ6atIOmZdWWjXi7BmXChInD1zl111uCmY4nRW34/55a/FuFcX/iU5SbdnWYxmk3Zs8xxxwBY7ZLYZq2P+LMM888IY1LLrmE2wxFBfVGP5Zp2jbKcFV6EGjGA/VtziewVY2xW6buWFI2dpNO0VzQrg7S+b8TTFWGwWaLTMa2CKUIpmxkCEtJZkw2ByXBlBaHb2cVGZawaPi8tckMS4KJpobnayJi8OCevYfst2FPYtHFZvAqI80oe9ramU4wKhtUtA8zJZj+ZHMoVx2CyeEPMCgimCzvENYfBLMp9k3ly+qBjgee7DdkrxsvO5Tx9ddfDx+Dx82+UTSEuNEGx6asLpCBnBJHBLOTuo6fJTcDivaRsX8KTQATyZNPPhmeV5dgqqyUraidy0/PLbPLJoYmbalpXsqeSR7Tfo1fFflJCWYn9dSkHTQtKwfOaEf+CwwUpcWw7Ycwrr4mmDwobcMtD09uqjDuT3ySbITbdnWYxmk3ZrPFAYx1OKZp++N57H8mDfb/Y7RKcPzxx4d7fpq2jSpc80S9gz32KBO0CsdBUEyTsaQpwWxXB+n83wmmoRCD9Ie6wWDHl4im7JhYyh1rLrVMPuiWyCksZI1lQjRFqWH5kQ4X7yXsDcGM09GzmjRaiADLFeRJSydKB5u9lyyVUq4qo2VXTtCmhn0xDFYcyNBbR1OMygaVgUYwi+pDgxRLRZA7mabYN5XXc4ps7TeEtEKstQyuemQPnP88U2gXkLjYlNUFMunk3El/iJ8l95AhQ0Je0HZwQE5Gm/rrEsxtttkmpMPBnNRQT7T19957Lw3qcV/Wx5oQzKZ5KXsmmasimEVtMiWYndRTk3bQtKwQA8Yk/1myHtiz1YYwroFCMIsw7k98eoDiParqkHGHLTCMw9r7qL5eNGZziA58GbO03aVp+yOPaApJh73caPzYh87cGGuOm7aNKlxRBJAeB1VltGLDOMfY0WQsKRu7SbtIg1lVB8RJ5/9OMCWdwWhEKCmb3LJFLMUfdA+RBHMuuUUusQcdwQQcHWrhUygimSy96LQ45Co+fNMJwdSbEHsMAVeDAM9v2mi1aZ5PEvnvhpFE2DOjgzJojLQPJwQW/DAx67AQkxeaMfKEVpSDEAwy+pQE0ZtiVDaoDBSCWVUflFfaAJb8qC86CKYp9k3lw0MKfrSJn/181A1bDTDS/PKlA148OBlOJ49NWV0gkxJM/JrWNXFSw9YL8gkRFklHqy5NF8tg4Iqpav/s22LSJC0OOageIKocKME/1q6k+dB92TOaEMymeSl7JnkqIphVbTIlmKTRtJ6atIOmZX3ooYfyF1/GIcYTDIcjqWvqieunJphVGPcnPgGMgp+iOnz11Vcz/13LgBerFpyOxhSN2fj77zKHg3rgSzuRadr+FI9PVpEWX5zA9t8oVlCwm7aNKlxFmvmnNQgGBrLJc0Uwm4wlxC8bu4sIJvJFdVA2/zfFlH7BJwX5csdgMyKTshmb5cYWqZS/5lFsLhFL5gfc8I9BSTApGG/eNGouVPTSEtLI2UsXm04IJt8WU/qQACZHffqmaaPl3wq0FEyaE088cZ5fBnM2LtcxN910Uz55M5CJcJIm2rB4MmiKUdmgMlAIZlV9gN2mm24a6ot2wF9GQggwTbFvKh8eUvCDtpp6QZuALVJFvegTT/hrWSlOoqwukCkimE3rOn6W3GzUp12SJ7Qh+jwR97r4/h2mqv0TzkuP8kkb1eeVSId6qmPKntGEYDbNS9kzSaeIYFa1ySKC2bSemraDprjzd5aMI9QL46ZeVDnEoa9HxGNKUb2VkYCmeS9KG78qjJs+oyk+RXlK6xBlhvoHfd3/uUBLtHTMZv+x5PlmI+ONTNP2p3h6mdWLHSQwNU3KXoUrmlERQtoLez01D/FpP0yTsQT5srG7rG2ldVA1/zfFlDqhfuI9rORxMJiYTMpNuVJyCcEUuYRIxgST+5hoDkqCCSg0PoijJi8aOcuS2s+CjEwnBJO4DA586oIGB8GUtlSNNtYY6ll81gh5lhFiw9IB+dDGbwZ2GrH/R55YrK2bt0O0qiLU/h83Mg4SFE0ETTDSPhom8NiUEUze9Chn0R7MFJcqUqDvQGoPJgMuAzUXDTk2ZfWBDKcoNVCBbfwpnKbYN5WP8yg32GvyBqf4jVjLOPjTllJTVhfIaTDXCVHFbVLXipPaaNdZzpMGi9PeLOX7f3AK30xkAsNUtX+lyTIZaaksfC2ALyswOdQxZc9o0pb0nLp5KXsm6ZT167I2Wfb3tE3qSdilfZL8lLWDumUlDQx1S3uEVNJeOTTC3jq+U0kfJL9Vpqy/dpL3sueUYdzJM5riU5SntA7pFxw69f8mViQeDmbGYzYrVvvuu2++UqBInbQ/4qKhZCzR9Ur0zWaljV237FW4kg7L8nzLU0STtsghn3gOqjuWkF7Z2F3WtoiT1kHZ/N8UU+ZS2j3a4MFmIJKYmFCKaMZ+IpcimjHBlPaSuZmxfFD/VaTvUMH45eXwd2aedMmrz2wPbvhLRv9G32dp8heU/PWeH9A7TtNXdPg7Qa+tq5VGf2JUKwN9JNSuPsDWa8/CVfTIptg3lS965rD2621d+8HG+UHf1W1bVeWjvvzyVf4XklWy/R3WX3lp1ybLytXbeipLF/+mZfWTRfhrUK+9qkr2JwvrFOOyDDfFpywdv4cwzD11xnLGbHD2BK4suWHi31dlJ7P+s0XOr3iU5rvJWNJu7C57SF/3I09eC/+Gtez5w4u/55alWaWeMJ5ct8jgL784vtxdQTBbELEbQ8AQMAQMAUPAEDAEDIEcAUghZLGMTBIuGSKJRCoB3ZMG7kA+vaOctiqm2YaAIWAIGAKGgCFgCBgCgxKBMiqIPxfEUeRRAMRhcXxpNk2DKaTMNgQMAUPAEDAEDAFDoAsREEEUmUwhKAoXkZRsLIOfEUwhY7YhYAgYAoaAIWAIGAJdiIDIoYoeaytTIomM5GUrnmxbIhcSZhsChoAhYAgYAoaAIdClCEAUuSCWMiKZMYlMZZBVXLnz+D7A9mAKDbMNAUPAEDAEDAFDwBDoMgTKqGCZP/CgpcSIiMrGzzSYoGDGEDAEDAFDwBAwBAyBLkdAS+GQSpFF2YKGe8nhh6zkU3/bgynUzDYEDAFDwBAwBAwBQ6ALEYiJooqPn0xKNOMwZOJ7EU0jmELPbEPAEDAEDAFDwBAwBLoQARFEbMikjO4VLn9s+cW2iCi2EcwYLXMbAoaAIWAIGAKGgCHQhQikRBEI8ItJI/dFfpKVHWT8z391oISYMQQMAUPAEDAEDAFDwBDoGgSKqGAgidGeS90DSiyPuyjMNJhd03ysoIaAIWAIGAKGgCFgCBQjUEQUU+0lMUUmsTGS0T1+Qcb/mAYTNMwYAoaAIWAIGAKGgCHQpQgEUug1likt5F5hQCO3bA71xAZ/jGkwY1TMbQgYAoaAIWAIGAKGQJchACkUYZQtCHSPLVPkRpMZk00jmELLbEPAEDAEDAFDwBAwBLoQgZgwqvgxsVQ4JFJGftzHsvm99/wvJVUssw0BQ8AQMAQMAUPAEDAEugYBkUR9x1IFT2li3XvTYApBsw0BQ8AQMAQMAUPAEOhCBEQadWBHEMhf99iSiYloLCe3EcwYNXMbAoaAIWAIGAKGgCHQZQiIFBYVuygMPxFN4nAvOfwD+fQetkRehKj5GQKGgCFgCBgChoAh0AUIFFFBEciiMCAxDWYXNAwroiFgCBgChoAhYAgYAp0iEJNIuSGYGN0r7Zh4EhbfSwbblshjNMxtCBgChoAhYAgYAoZAlyEAURRZTIuehsWEsshN/JCW/7El8hRNuzcEDAFDwBAwBAwBQ6BLEAiE0GsssWO3CCQwyD9246d7bORZOg+y/scIZoDHfgwBQ8AQMAQMAUPAEOg+BKCCgRQOXRaPESijibF/kduWyGMUzW0IGAKGgCFgCBgChkCXISCCiI0WMjUKj/1jv9Qd0vE/psGMETO3IWAIGAKGgCFgCBgCXYRATAUDOYxIpk6LFy2XK4w4iqe0TIPZRQ3IimoIGAKGgCFgCBgChkCKgEihSGIcjl+Zv0in4hMvl/cO02DGSJrbEDAEDAFDwBAwBAyBLkKgjAqW+QONtJe4kdMBH5FO02CCjBlDwBAwBAwBQ8AQMAS6GAERRpFF2fhjII4yCuMed2qHcP9jGswAjf0YAoaAIWAIGAKGgCHQfQiICgZiOJRIyh3bQgY/+eOHW0Zu02AKEbMNAUPAEDAEDAFDwBDoQgRECmVLW8l9vPSdQiN52YQrjhHMFC27NwQMAUPAEDAEDAFDoMsQiEkiRddeytRfsIhIxuG48yV1f/NfvaZimW0IGAKGgCFgCBgChoAh0BUIlFHBWHuJDJeIJ8AonvwVFu79jxHMrmg+VkhDwBAwBAwBQ8AQMASKEcg1j34PpogikilNDOTRy+hQUCojeVsiL8bZfA0BQ8AQMAQMAUPAEOgaBEQcRRBV8Pi+iHjG4cThnssIphA02xAwBAwBQ8AQMAQMgS5EQCQxEMMSDaZkIJkY3eMu0mYawQQZM4aAIWAIGAKGgCFgCHQpAiKLqYZS93E4EOlecHGPrIhmuPc/tgdTCJltCBgChoAhYAgYAoZAFyLQQg6HaimBIaWJ8X1MQOVWOqbB7MJGZEU2BAwBQ8AQMAQMAUNACMSkET/uRRglI1uaSslIXrbiGcEUYmYbAoaAIWAIGAKGgCHQhQikBDOGQGEijrpPZUQ4FW4EM0bI3IaAIWAIGAKGgCFgCHQZAiKFcbFTQql7ySiO/HUv2wimkDLbEDAEDAFDwBAwBAyBLkRApFBF173Io/yx5YcMV3zfIucD7ZBPjIi5DQFDwBAwBAwBQ8AQ6CIEYioowqjiE8aFf2zkF4fLjZxpMGO0zG0IGAKGQB8j8MMPP4TB+Ze//GUfp2zJGQKGQF8g8M0337hRRhmlL5IabtMoI4sx2ZQMhcQtG5n85PhQtwK93OA1H330UXbCCSdkG220UTbrrLNm88wzT7buuutml156afbjjz/2ScHHGmuszE8e2fvvv98n6dVJhDLxzK222qqOuMkMYATuuuuubLnllsumnXba0E7fe++9AZxby1oTBJ5//vns17/+dTbOOONk77zzTpOoP5msxrO33377J8uDHnzMMceEcW677baTV6V99NFHB/ldd921Uo5AlfPLL79sK/tTCTTNo+SH5Vw0LLAZd9xxQ71+/vnnHT/Ok8iMdjHbbLMFHnDxxReHtJZccsnsF7/4RXb++ed3nPZgiOgJYuBE2Kmbe/+iHMLhTQqXH/Z//vOf/Pr+++8zLljooDXXXnttNtFEE0GzC6+ZZpqpTwb9UUcdNaTfH516k002yVZbbbUedXT44YeHZ2622WY9wrrdowyzgYjLt99+m40xxhh5+4SI9Ec7GohlH0x5Kmtzf//73/O6PfPMM4eLIms8e+utt37y/Gqc22abbWrl5W9/+1vAe6eddmorr3IOZILZNI+S748xpKyNtwW6DwQ0Rn722Wcdp3bwwQfnfRFOsM8++2S8zP/85z8P/quuumrHaQ+GiCKWsR2TSdzplRJLkUzI5XfffTd4Cebxxx+fN6bpppsuO+CAAzII5wUXXJDtuOOO2WijjRbCZ5lllgwtZ29Mf3bqGWaYIRt77LF7ZE8DrxHMHtBkZZj1lPzpfW644YbQDtGuP/HEE9nTTz/902fKctAYgbI29/XXX2err756tvbaa2cff/xx43R/iggaz4xg/hTotz5TdVGXBEu+PwhmWRtvzXH/3PUFwZx//vnDWAs3uO+++zI0mhiIJ1rMe++9t38yP5ykKq1kbItspsSSe2kv5RbZlPZy0GowX3zxxczvpwiNiaXxr776qkcVs3SFqpw3mfnmm69QpkekEo/+6tRMTmOOOaYRzBLci7yrMCuS/6n99thjj9AGeZs2M3wiMLy1uXYoazwzgtkOqf4PV1381ATzp27jvSWYkEm/TzAss1MWMz0REJksslOCKRKKxhJiKXKZajAH5SGfFVZYwd10001u9tlnd//617+c318R9pumP55kOk8ynWfa7tRTT3VbbLFFEBkyZIg799xz3bHHHusef/xxd/PNN7tnnnnGTTnllO53v/udW3TRRVuS8tpQ5xut82+NboIJJnBXX321u/LKK50nrs7vkWyR5ebOO+90Z599tvOaVecJRo9wPPxymjvvvPPcHXfc4UYccUS3/vrrB7l11lnH+f167ogjjnC777678xrM8IyrrrrKee2Xm2KKKZxfUneLLbZYYbr+zc15Ta6j7BNOOKFbaKGFnN+TWopRUSK+EbkLL7zQ+Tc+9+mnn7qll17arbjiim7SSSdtEReOxx13nHvwwQed19a5p556ynktsvNLwUHWk393zjnnuIcfftjh9tsWQn7AJjV+D5s7/fTTQzl9g3cLLLCA23rrrd3oo48eRNthpvTi/L/77rvOv5m7jTfe2E0//fQSCTZ1R10vv/zyzu/XcX6vpFt44YWd3w/WIld0QzmvuOIK9+ijjzq/L8otscQSbr311nM66PHFF1+4HXbYIaT50ksvOf92HcpOWcCrnbn88svdrbfe6l5//fXQLr2GrLTOy9KK8+j3f4Y6pHzKYxyvLmaq8zp9x2tsnd9jF/rMYYcdFj8uuMEHnPy+qYANnnXbS7u68wOku+eeexz95uWXXw5tYMsttwxYxhnpbZvzy0ShjZImbTcei/oD0zjvqbtumTWe0S5vv/12x5jBGDnXXHOFMVL9LU6/aVkYn/zLf5xEGBdo07Rl+hxG45xfIncnnnhiizz98frrr3fPPvus8ysAYWxmbN1ll12cXyJ3Rx11VIt8eqNyes1yaAekRznoi7///e+d3zubRgn3ddtgYeShnu3aleI2zaPkNRcpnd7kue64Go8nRWOe8lJl+z2WYe5lvvAUyC2++OJhPqAuGAv8ErnzSpeWJNrNacyjzD3MO/Fc2pKIv9l2223d3HPPHbybjGNxOu3yEssONDd4cxWdFI/zmh76IYx4Mkoj+PmfQWX8AJGNPPLIQSvkSWbbsrF5HHw80cpltfzsSUEII1wX+zU4YBMbvWVqWcIPkkGejcnsQ0gNS2akV6W18mQ2f6aeje0HzZCc8jj55JNnI4wwQossefSDcctjeQP585//HN7i4vRw+06VffLJJy3yZTdoh/1E0/I80uDt0E8GLdGURz9ItMh7UhfkHnjggWyqqaZqCSMtPwhkZ5xxRktafuLItzXE+fekMPMDT5BthxlCZfkHs3STN/VKmp6053msc6jq0EMPDW/KcT5xzzvvvJk2qdNW0nDuPelvKXd6Qz2yJzeNC/7+JSkVL70vy+OMM86YvfHGGy3xmmCmOq/Tdzj0ov1P6TP9C10oIwfZ1DabtJequuNte9lll+2BoZ+cs0ceeSQve1+0OTRPqiuWjGT6C1Oln9p1y0w8jWdTTz11nneVgS1FH3zwQUvynZSlaGsPfYvnsGQpo/YU78GkD/iXjx55o634l87g32QPpn+p6pEW/Z5ypaZJG0zj6r5Ou5Ks6qJuHiWvuYh0epvnOuNq2XgSj3kqU5ntlQyF8wFl1zgR78GsO6fRdtR+q2wO/sqo3dUZx4hTNy9KfyDa0kpi66JcXIwfcsuWHzYX3EsXY92g3IPpNY6hMTHhajKvqkyviQvy8T5HNS4a48wzzxz2bvo3qmzDDTcMskxE8SCbdmoqwGvzgqzXNLU8nslypJFGCmH+zbslLL558803M69hCXIs93ttQri8xjCINc2j1yiFtDhlyLLsY489lt14440Z+1MpZ50NzjQabStg8jnllFOyf/zjH5nX6oY0SOe0007LixHnEeJyyCGHZLfccktoqNQN5Jg4dOKLLrooA4+//OUvwQ/SDOYy00wzTfBfc801M69VCXXCIS3iH3jggUGsHWZF+ad+2EZBOjzzuuuu0yPziZaJ649//GP48sALL7yQhxc5OJlIWlxeI5Z5LWYg+5NNNlnwY68PB3vowB9++GHm35qD/0EHHRTu27VZ8CZtXl4g4bSR//mf/wl+tGGR7aK8yS/N42WXXZbtvffemfLIhKIXo6aYxXVep+9o4kxf2piwKKdfjQjZbtpe1CeL6o4Jl7Tpx0OGDMmoU79C0PI8HtoXba6IYPY3pqrn2K5bZuIIO07W7rnnnpnXwme0GdocuNFHZTotS28IJi/P5INr0003zfxqUcbp8fHGGy/3b0IwSWeppZbKLrnkksyvLGUaV371q19lr7zyiooa5pMmY1YeMXHUaVeKorqom0fJi2A27Td6bmy3G1fT8aRszIvTTN1ewxpe5iknL/S8LJNO+jIdE8y6cxp90K/0hLbB/Me4G19+lSqEFRFM8lNnHKubl7TcA+k+JpW4MXAZ3CKVsuUnconNWBATTO4H3SlyEUY+DVLH8NZEI+LS3gxNkuz7iD/VAXgaYPxyV5582qkJ8MvXIU20lbGBFPCsOeecM/YudHMoAFkmwtTUyaO0gJAF0iCtVLPJ2zT+EHJIbJXxS7dBFvIsrZLkN9988xAGYVXjVB7RyqXykEKeC6nRZmulxWBP2AYbbBC8aKh8roSLOpBhQEBOJAT/Ksyq8r/ffvuFtNDOyqheY42KwopsOhllJU9HHnlkiwgDvt8+EcL8Foo8zC/nBT/KVsfcfffdQYuNHRs0Szz3/vvvj717uKvyCNFSmaXNbYqZ6rxu30EjT779kmhLXllRwF8vLE3aCwmpHEV155fFQ9q0VQZMDO0GUquT3n3V5ooIZn9jGgqU/NQps6IIu5133llewaYuqBP6v0ynZemUYDKW8SJFPtK6ffLJJ/OVgyYEk/FGYxblYh7gQAvPiD+P1LQNCqPYbtKuiKe6qJtHyYtg9kWeyUfZuFo1npSNeaSXGr9FJuDNV1/SQ7d8VpC64BLBbDqn8eJN/FiRpDxovikimHXGsaZ50XMHmq0+IPKILXcRscSP+tclcolNO+cadAQTrRwNCW0UFd/OMNkjz9uqjCbJlVZaSV65vfLKKwf5vfbaK/dLOzUBDHaky3Jv3GHQYOGfEpA8schR1qkRqZNHtFIYlv14Jhen6ZlI40sbqM8666wgX/aD9pA0isgQHRgtFJe0cMrjGmus0SNJNKakxZJWnBfc2kLAm2xqnnvuuaA59XsvM7+PK6SBdlSmCrOq/ENy/d6ysBQjMqx65XR3HcMJcMoEkYyJsOKCPeHx5NeUYCot8Kato730+3Jz8oo2ocq0y+Ntt90W6pBtHpimmKnO6/ad1157LWBCP1G7YWJiSQwNmibKpu2lqu7oj1pF8PuHg/Y8fcmJMexNmysimP2NaZx3uZuUWdjFKwiko5dxXkY1tnZalk4JJisv9CG0qUV9zO+d7NHHhEFqq5x+j30aFL42wnPQZso0bYOKV2a3a1fEa5pHyXfab8ryWjauthtPisa8omdIU6ktYLEM4y91wSWC2XRO65Rg1hnHmuYlLttAc4tUyiZ/uCGRIpQimyKW8k8JJmPEoCOY7JtRY/QHfNrW31//+tcgH2vBNEkWDYJ8qJX0/YGgPO20UysALSWyJ510UvDiVCYTJ1edE5plnZrEmuSRTzMJkyq7HemFyBEfElLHVOVRS/NV+YHwyXDqv2g/DPH5QLlMFWbt8j/HHHOE8kHcMKrXOnWFvJaKWHIpMizlkV9ItUxTgklnhuCDTRF20jwq/dRul8dUvilmVXVe1Hd4Hn9+QFlYosTwosM99S3TtL20qzsINO1GGPK1BrY0QAhl+qLNFRHMYYGpyhDbdcqMfBl2mqTBjP2zmE7L4g/VhfjxT509mFqhivtQnAYv/uQvfomLw2O3ypnu/0XGH1gJ6fDyLdO0DSpeatdtV8RrmkfJi2D2VZ7LxtV240nRmJfiwT176ak3PtuWmqAJ82GEi2A2ndPUdptqMOtwgKZ5Scs3UO6lrRS5jG3mHYWLbIpYimjGBBP3oNRgUlkiCu32FaKp0rLl/vvvn9dz1SSJho2GXodgavlvwQUXDGlzCIa4qOTrmLJOTdwmeZRWl/0n7DH0Jy8Lr6JN7XE+pb1lv2QdU5VHbcZHE1mWH/wxNGztD2T/Em/FTJbSEtclmO3yP8kkk4T60UEPDdZ1CaY0PCyvFRm2VVD/cbtsSjCVBi8p/lR62APLHjkGQtJuRzDb5THNd1PMquq8qO/wPPbmknf2OGOkweZ7dTJN2gtx6tYdWw3ATlr8VVZZJTyyr9pcEcEcFpgKtyK7rMySrcJOByhFMJuWRd8nTrcO8ey11lortIN46VvtSYd8GBNoK7/5zW+U3RZbW3WaEEz6RGp4ieY5EDSZpm1Q8WK7Sbsinuqibh4lL4LZF3kmH2VzUbvxRONVPOaRXmr4VCB4+xPfaVDYpkYYlwhm0zmtLwlmOo41zUuPAg4gD9qnLmWLe8hk0ZWSTZFMtJeDlmCiCWEZhwYp7aHAks2SmAY09hSp4RKuQa3o7SVtXMinnRo/zL///e+wzEc+IG8ivtob+X9S5b/q1CwfUlmxaXmUoK4AACaNSURBVJJHJgOWG8mHlj7jtNh7yf47GkuVQcNJGv6TRD3E2OMFQWNJiYaIqcqjTvYtssgiPdKi3ORHf5k4ZMiQ8FwGew7IyOjgQhHBLMKsKv8cHKJsxNPyn+q1LsEEP0g8ba9oL6SW9OOXmaYEU1pc/iEmNtQJ+W9HMKvySBtbZpllQj1q72NTzKrqvKjvUAY0OuSdQxoQMvYLg2GMe5P2QppVdYcWjPRYbpWhvsgDh4JoY33V5ooI5rDAVOWSXafMkq3CLiWYTcuivaATTzyxHpfb2vdYRTDRNvJyRfvggFtsOCjCthrqsQnBLPqahw50suQu07QNKl5sN2lXxFNd1M2j5EUw+yLP5KNsLqoaT4hXNObhnxq9IPOXualh2xV1yqV5uumc1p8Es2le0vINpHvmbhHM2KaeuWKSKT9sEcvYHrQEkwrTqS4aJfuEeCNFY8kAxalZToap0UpTpopuOkmmnVrpYLP0znP+8Ic/BJu9X9rjF8uVuaVVY+lAFYxs0zxqozSfJPLf/QuPY8+bPveBZrBdviB9OizEcicDOmQMrSh/cUg548/4VOWRfTWQOeJwUECkFNKov/eUBkvaBLSYItoQdr31srwJNjJlmBXlnzj8F7hO/VMuGdVrTHQUVmZLg8Lnl0QyGdx0WhwCGh8ca0owdeKRE/wYyBBuvVCBGeUUnkX5LMrjq6++mrFsSX2wf5mTo5immFXVeRnB5Dk6pMSpZfIgrT9hmCbtBfmquhMp4t91GBAx2tsngtlXba6IYA4rTEPBhv7UKbPkq7BLCWbTsjAZq9+TJ5mTTz451Dt1X0UwkddXKyCTIpnsMdX+S9JoQjDJj//uccgK45m2TZEO7UCmaRtUvNhu2q5UF3XzKHkRzL7Is/JfNq4WjSdVY57Si+2HHnooV4IwJzG3YDgjwfhOXXCJYBLWZE7rT4LZNC/ID0QjQpmSzJRUKhw7JZkx2RzUBJMKjAcKNdDYZnk8/YwQ8ZpOkmmnJg0ZNErxM4sOvEi2yOYzHMRHA8n+ESZpTNM8cjKSk7rKCxoEaTXpwGzWrmP4tqgmCIiICCfpsuc0HgCq8sizIKaasEhHn0EhLcotg7aZ/OKPlkufEVFZsPmuoUwZZoSn+Y/3MvLNNn1JAFnVaxOCyQTFW7jyxtKrcIa8sF8nNk0Jpl6cIJR8MkpLu3oe5Bwsi/a46blpHiG9ik+6/sP3Eg12E8yq6ryKYOoUv9pWTD6UmbrtBfmquqM+NVnyYoRWWO2YVQ1MX7W5IoJJ+sMCU54jU6fMkq3CTv0VoijTpCzE4Xu8am98lUP7ONFM4t+OYPJizMqH0mDcUB9TvdYlmPQflRdbh79IO35ZVlmbtEHFie2m7Yo8NcmjyiKCybN7m2flv2xcTceTdmOe0kvtf/7zn/k3nRkrpbSgTsYff/xQ3/H80mRO62+C2SQvabkHyr0IJvnBLWIptxRc8o/JZUoseXGnXQy6Qz5pZf3v//5veOPVN9KYwDhUsP322+cnVNM4miSLBhjto2TpQUaTfHxaXGG8icUkJv4UgmSqbAZTdWwInT7d0zSPPANtF4RGAzrpMbk2/Q9W3sL5jIwGdT4Jxeb6uPPzvKo8Eo5hyYjlXWHIZ344/U7jjA1aV+T0Nov2gk9bXHPNNeH7adSrTBlmCk/zj/Z23333zbWjklOe9GF4+bezIRXgLMIMeWHfrfZ2xvGbEkzigit1CBnkG6mkzTdEWd5mYkQbW/Ss+LlpHsEP7aj/56hYLHfXxayqzov6jh6ApkWEATv+/qBksOu2l3Z1x7I83z8VIaGOOOQTt+G+aHNMPNQTl7SlKk9/Y6rnyK5TZmSrsBMRjwkMceqWBVkmKPq4Xhp5ceYUMXtDqfsighl/Log0aL/sg2ccIA7jBsSVfEFOdtttN8QqDeVkKZzDoOxVpA9AclndqtrGVLcNlj28SbtqmkfVXToX9TbPlKVqXE3Hk6oxrwwX/BnPWVaHVDI/MVfTLvjsH32I58Sm7pxWh2CysinTyThWNy96xkCzY4JJH9W9CKaIpWwRTO5FMGWjveQalH8V6QecQuM7iPNv4OHvogoF+snTd5Dwl4Oe5Dq/POp852n8JP6Skbxz9YUhPU98ne/EHSfnG1D4i0w/QXSchiL6hhn+Ckx/ISn/1PaN3VGPdZ7ZDjPy74ms84Ny+pg+u/fbDsJfm3ky3mdpKiFPhkIdxmnj5zWSEqll+/1VIY912sKwwKxOpuu2lzpp+cnY0TfLTF+2uaJn/BSYtitzUT7r+DUtC/2DvuzJQ53kC2VIo924URgx8WQsoF15cpSEFN/2tg02aVfKQdM8Kp7s3uaZdNqNq30x5lFOT1yc18gq623tvpjT2j6kpsBAykvNLKNsbBHlnn4pf9nqq7qPI+HHhQztu6sIZgzEsHT7t/PwX7d+f5nzb+fD8tH2LEPAEDAEDAFDwBAwBCoRKCKMiqAwEU6RSPkjV+Q2gikE+9j2f6fm/CccnD9J7vzypfPLNs4fpHB+Sa6Pn2TJGQKGgCFgCBgChoAh0DkCRaSxiFBKjieJVEpjmYYZwey8Pkpj+r1Wzh/AcP6fGoKM3zfo/ClF578FVhrHAgwBQ8AQMAQMAUPAEPgpEBBZ1LNjsshyN0aEExsTlsGHuhVfNuFGMEGhn4z/JJL78MMP3eyzz+7ifXL99DhL1hAwBAwBQ8AQMAQMgcYIiBjKFolUQvhzxf66T8O4tz2YQs5sQ8AQMAQMAUPAEDAEuhQBSKGMiCP3Zf6SlRYTOcWTn2kwhZLZhoAhYAgYAoaAIWAIdCECMUGk+CKLgkKkUfexjOIqjHuMEUwhYrYhYAgYAoaAIWAIGAJdiIBIYVHRy8glsmXxQhwf+F+9aFHK5mcIGAKGgCFgCBgChoAhMGgRgApypQd5KHARTZSf5HUvm3imwQQFM4aAIWAIGAKGgCFgCHQpAjExjCGI/XFDKLnQUOoeebmxdRnBjJE0tyFgCBgChoAhYAgYAl2IAKQRA4HExKQxeAz9Sf25x8iWVtMI5lDAzDIEDAFDwBAwBAwBQ6BbEdBey5RAgodIo7ARmSy6Jyyk4X9sD6YQMtsQMAQMAUPAEDAEDIEuQ0BUMBDDRIMJFPhLJtZwxmGxP27TYA7CRvTNN9+4UUYZZcCWbKDnb8ACN5xnbCDV+0DKy7Cq1m4scx1sf/jhhzBx8ne+ZgyBbkZABLKIZMoPO3YLL/xkJIOgmT5CYNxxx838IJV9/vnnfZRidTJHH310eN6uu+6aC/71r3/N/L8GZZtuumnuN5AcO+64Y/bzn/888//V3pItP/lllMP/xWY2zzzzZBdffHFLuN0M3wiU1ftPUaqBlJe65R9rrLFCX//yyy9rRZH8+++/H+SHxzLXKmgvhZ5//vns17/+dTbOOONk77zzTi9Ts+iGwPCLgF8ez7hkdI/tX8KyH3/8MVzc48ZPl/977Oz777/PsOXm3gim0OwDe4wxxoDCZ5999lkfpNY+ib/97W/heTvttFMuPNdccwW/0UYbLTSCPKAfHEOGDMmWWWaZ7PLLL6+d+uSTTx7yN9lkk7XEOfjgg4M/+HHts88+LeF2M3wgsMkmm2SrrbZaj8yW1XsPwWHgMZDyUre4o446augXdQmm5EUwh8cy18WmN3J///vf83HnzDPP7E1SbeN2Ml62TdQEDIE+RADiGBNL3cuOyWURyRTBFMk0gtmHlTMQCOYNN9yQLbLIItmpp57ahyUrTuqiiy4Kg/MxxxxTLFDg+89//jPk78ILL2wJnX/++UNaxx9/fPbQQw9laDTNDH8IzDDDDNnYY4/dI+Nl9d5DcBh4DKS81C2uCGOnBHN4LHNdbHoj9/XXX2err756tvbaa2cff/xxb5JqG7eT8bJtoiZgCPQhAjG5jN0ikyKa2PKLtZgimGgvuWwPpjYN9IE95phjui+++MJ5DabD3d/mqKOOcrvssovzGkyHe1ibgw46yHlNo/ME0+2www4dP/7bb791fgJ1I4wwQsBuIO8f7biQXRCRPX5+udH5LRDuk08+6YISD7si+hUJ58mQ8wTT4W5nJO81mG6CCSZoJz4gwv3WIueXrN288847IPLT15noq/Gyr/Nl6RkCQsCTyvwTRfLDLvL3vDYXid3yxG/QEky/n8adfvrp7umnn3aeabsFFljAbb311m700UdX+YO91VZbOa/xc7/97W/dZZdd5u69917nWbjzS81u88037yFPJAbCc8891z344INhs+viiy/u1l133TC5NiGYfmnZ3Xrrre711193U045pfNv0W6xxRZryZ9u7rrrLnf99de7Z5991s0666zud7/7nbvzzjt7EEyvwXSXXHKJW2mlldwf/vCHEJ0y+reJQEK9dklJuq+++sptt912buSRR3YnnXRS7k9juueee9xVV13lXn75Zee1Um7LLbcMeUSIPJx99tnutNNOc59++qnz2kc300wzhYNFJ554Yp5OkcNrUtyNN97oVl55ZbfGGmu48847z5HnCy64wI044ohu/fXXD9Gwl1566aIkWvyaYNgScegNde21qaHeKQvPXHHFFd2kk05aJB7ahuTffffdgM3GG2/spp9++hb5Ju3qgAMOcK+++qrbbLPN3EILLdSSzu233x4wmnbaad2ee+6Zh913333u2muvDRPyhBNOGOLRBv3+21zGL8mFdnrccceFtgrOTz31VMDa7zkLcu+995675ppr3E033RTa+rLLLuvWWWedQBLzhLyjHc5+eTHk84477mipR9JabrnlXFrvcdpxHVRhqvIce+yx7vHHH3c333yze+aZZ0K7pD8suuiicbKl7rK81MWiKGHqm+fTh8855xx39913h7Fh4YUXdquuuqr71a9+1RKtaZ8UYfRattAvGQ/Ajb73+9//Pow98QMkL4JZVmbixPjX6QPxc+SO06iqQ8kzBjC+MPb5PddulllmcX7/uPvwww/dk08+WUmKm2KtdlPUD3ixZV7AMF/Qfzrpj1X9o+54yXhM23n44YfD2MyYSp+ebrrpBJvZhkC/IVBGEnlgIIs/+1lu65NFcZxYRnGIMOiMJ16ZH2DzvTXgw+VJQOYJYEt5WXqaYoopsqmmmqqHvB/0Mu1hUiTf+Qtl/UQSDq/wnHZ7MFEts09N+ZLtK63H0jayXjvYQ5bDRJ40B/94D6YfHIMfm/pltLz21ltvySvYfiIIsp7Y5f6ouz3J6PE88HzkkUeCnCeXPcIpg9fa5umUOTjIg+xee+0VRLbZZpvCtDzhLUsi+DfBsCyhF198MdOeVdUBNvVwxBFH9IhWJs+hpfPPP79Fvkm78hNmwID9i6lZa621Qthuu+0Wgij3n//855DHOM+455577sxrDvMkDj/88BDXvwC1YEy9Yzx5zbzWuCWMdDy5z9Ooi7N/QeqRDml5zXpIK613PaAJpirPEkss0eNZ1MEJJ5ygZCvtorzUwaIqUeqb8YU9yWm9sP/xpZdeaonepE8SUfKMM2n6YA+OsZG8xq+iMiNfhn9ZH4ifIXdZGkX9gjjKS1oO7v3LSOZfapV0od0Ua7Wbon7AlgPlgyU9TNP+2G4srzNePvDAA4XzCmPzGWecUYiDeRoCfY0Ay+IY7PhiHogvLYvHtn/JzA/44KY/DUqCOc0004RBY8011wyTqNf0ZP5tMPgdeOCBLXWigZiT115DlD366KPhBDMnwhl4dt9991zev2FmmkghpexzvOKKK3qQxXYE8x//+EdIm2cweHhtYfY///M/wY/9azEJ9hrB4E9eOBl+5ZVXZpweH2+88XL/viSYDHQ8C0I5xB/ieeGFFwLhwG+FFVYIWLA/0r+VZyI/e+yxR5hAX3nllRyrMocmFxFMBnivxQjP5OSr12CEiwZaZZpgWJQOjZ8T65Rr6qmnzk455ZSMNL0mLMfVa2jzqEXyXmuRbbTRRkEeonbdddfl8k3a1S233BLS8FquloNZPBPSTh7vv//+kLbX3oV7sAL3xx57LPPaoMxrOYK/15bledDESvwZZ5wxO+SQQzKexUCB8ZraEOdPf/pT9tprr2VXX3115jX8Lc+ri/Obb74Z2jHP8lscQnuAVHmNWHhWWu94NsU0Ls/MM8+c0a/9KkK24YYbhjzTZj/44IPwvKqforzUwaIqTdU35V9qqaUyv4qQQSw07kwyySShnSsNydd56SOO5MvSp+3E/U/yVQSzCP+qPqC8x3ZRGlX9gvEV8srFOAY5PfLII0P98dKs9hI/I3WrbGVYpFjH7SbtB0UEs0l/rNM/2o2XfHVEh7B4eWKvJuMrX9qgjIwttHMzhkB/IiBCyTPklp2SS90zT4tkyi1yydgw6AgmheLQCVdMUi699NLQWUWSVFEarHbeeWd5BRtyQedmsJI57LDDgt9EE02UffTRR/IOtl/KCGHEaUcw/fJZ0OxgxwaNKfFFJr777rtwYAI/TlnHxi8jhc+WENaXBNMvW4U8QFhERNj8fuihh2bpKcvtt98+yBZp++K8xu6iyR1CTTmKDofEcWN3XQzjOLHbL5eFZ/ql8BatHzJ+a0SOAR0MUyW/3377BXm0oTJN2hXtVC80fulbSWR+CTjPI/mgPUgzz4tHbNDagyETt7Rlmlj9EnqPMhJ3zjnnDHH8do88KUgmdc3nWzBNcKadkAfymJqiem+KqcrDYbq33347fwT4aYL2y5y5f5mjKC91sChLD3/VN+RSbQZ/DpFw8AlcWImQkXxTglmVvt/uouTz/FQRzCr8i/pAnnjkqEqjqF9wiA8sKEdstBoDuWpnhF0VFjHWajdF/aCIYNbtj+SzSf8oGy9ReoAJX9ZIDzdSRsI22GCDdrBYuCHQKwREJmUz/8uNLVIpf4gl7phgwr+46EPMV4OOYMYIP/fcc0Ez5ffYZH5vY+iovMHGRoNV+obIUjgdmwkboDBaCtGyX5zOE088EeSJ045gKh7ECu0T2ku/Vy3zm/FDGvoGJNop0oN8UGGp8XuvQnhfEkyI80gjjRTS9fsRw9t0OugpH2UDpsKL7KLJvROCqbTbYSi51Ea7DbZFJ+BJk+VWLn3TtEoefND8sSSoJeom7Yq8+X2cIT9o0WUgDORRxIEtCtxzsRUCIhhf+orBWWedFZLQxOr3uirJFptld9KifaENRWtSZurg3JRgNsVU5fH7i3tk0+/pDWWRZryHQORR1AabYBEllTtV37wUpMbvLw55Q5spI/mmBLNp+lUEswr/oj6gvMd2VRpF/YJVH9qcP8gTJxM07Pg3IZh1sVC7KeoHRQSTjNXpj3EB6vSPsvGSVQfKDsmO+zNuTrgTxoqZGUOgPxGIyaTcPC8llyKV2PCSmGByzyWiOSgJJtqXon1adFR/WKKljsoGegYM5Ln0AV72WHHPp4BSA6CSb0cwqRiIjZYjFU+29vPxKR/8GHiKDJMp4XUJJkvRsSnag0m4P3gUcFJ+WKb1h3wyBuPYlA2YsUzqLprchXUTDWZdDNPn654XDcp32223yavSbic/xxxzhPR4YcA0aVfIs9xLflj6lWFSwc8fnAleIiqqlzKbJUeMJlZ/eCjcpz/+9H7Gvk+9UJAe+zj9YbJctAnOTQlmU0yryqN2tcUWW+R5L3NINiajdbAoSw9/1fcbb7zRQ8wfrAr1yAuAjOTr9knJN02/imC2w195rbLbpZH2C5bEWQqnrTGmsOVH20woY6yZLntuUyyq2k0ZwazTH8lfk/5RNl5qe0tZf8afucKMIdCfCEAkMTGhFNGM/aS5pO2LXGKLWIpkDkoNJkCw1ECnZC8mmh4IE0vK+NUlmADtT1eHOCKY8803X7j3J58JbjEMjBog2hFMlvGQReO13nrrhb1/7E2CCOAvgslEz/1vfvOblmfpRstY7Qim9mv6k7eKGmx/AjekHx/yiQVY/iFP0oytssoqcXBWNmC2CCU3RZN7JwSzLobJ4/NbabzqaEyI1E6erRTUlQ5CaRJMNVSklbYr/CA42m/JXjrqivRY1qMjYyCv+LH/kv2etI+ii0kcUzWxBoGhP2it0dZCLkmf/cjsxcU0wbkpwWyKaVV50PaQ904J5lAowtaXMiwkU2Srvln5SA0vMeQNIiHTtE82TV/yVQSzHf7Ka5XdLo20XzAOazsImOhi3268VaPqmSpbXayr2k0ZwazTH8ljk/5RNl5qewArbUX9WX5VmFiYIdBbBGIymbpFJJmL4gsyqTARSxHNoHTrbaYGWvwhQ4bkgzmDhIwOr/SGYIoActIxNUxKGizbEUxpV/kXidjooIEIJtoKSCjL9BwEig0HjqYYquFqRzC1vyz9+Lo0pDHBxI+T3SzPy7AnlLKheYgx1YC5//77S7St3VcEsy6GZRnSwQIwTw37UJkYWdIUuauS5wQy+ICjtlNoEqxLMMkDLxukg3Zb+7JiwsSLDuQPGV6aUsPeSw5l0eExVRMrbXTbbbfN/Lf5WpJhjzLp77vvvsG/Cc4imODA4BKbonpvimlVeXpDMOtiEZcndau+i/6BSoeQ/GfD8mhN+iSR6qTPlhkZyVcRzCr8i/qA0o7tqjSK+sWSSy4Z2hdjBuTMf8c3vNzwUlXXqGx1sa5qN2UEk7y064/INOkfZeOlvqTBH2Skhj5Fn/af0EqD7N4Q6FMEIJUYEciUZOLP3KJwEUvZIpjc4x6UGkxpC9BiapJDoyPtI1oiAJDRYFWHCPAPM5rg2UQOycNwMELaJybndgTTfy8vDLKcXMZA2nBDJInPgCijU82QSZFMNE7af4l8O4KpvXycltaEg+2/pxmeFxNMTRj8swWNBKO9oCnB1Nu7/3ZjwFTkSnkvsouIRicazHYYcpiAgVkEMc0LYTowQ56oS/KPZpD/JQZXPlciUyRPmP8eYcZBIeRJR6ZJu1IcHURjY7/aq/8+pYKDrcNkaBv1ORf2iepTVmjttQ+0amKlD6AJpe5jTZD2fIlgtsM5bqtkUBortpHwDOFfVO9NMa0qT28IZl0sWioiuVF9g6c0cbQn/23H0DZoH9rqQNQmfRL5Oukz9slIXv29Lv5VfUBpx3bTOuQFHyz4FBbjJiSUPsQ2grpGZauLdVW7qSKYdfpjk/5RNl6yf5+ygAuHptRnUIpwoBR/xjMMYzIHPtMXw7rYmZwhUIZASih1T3vUWI4f97rwp03Kxs3FODIoNZhsLJ944olDp2QZSp8JoZPq4juPMhqs6hBM4vgPFuffDoRwiYywj2388ccPz2hHMPWpGQgln8rRErTyR5rsAcJAHnizVRjLSyK5mszbEUz2eYlMkU9OO4sQoyFlcJMBB6VLPnhDV1w+SxQbNKxxvhgM231mpGii64RgtsOQvJBvNuuXGcibBnY+BaJyUiY0TGk9pvLxHloOLXBiWKZpuyIeJJd45IW2Af56SVK6PGP55ZfPcaetqz1Qp/6PBSRaqcFEaL/9/u/0O8+CsOq0M5iwZQPTDue4rSLPp7TAjzyxpxbihymqd/ybYFpFFHpDMMlHHSyQKzOqb7UJ7uO9rTqopfhN+iRxSI9xQs9J049fhiRPPVQRTORS/Nv1AeKkJk1DGPD8tF+UfRMSWb4hqi8gpM+I74WBnpNikWJd1W6qCGad/tikf1SNl7zYausMdRBvI6BPySAHVlzxC4vCzTYEOkUgJpRyx3ZMKuUWuYRgxiSTeWtQEkzARbPD0qdIFNo/PjHk/7EkfMcyJlQid/r4dFw5Gmw1SCuMdDiVzgQCGfD/RBE+V8E3M5msGbTaGQY9Nsgjz/4jtFac4kWDxEATf5aI9FgqpRwMLOzL42Pb5AuSq49w88yiD63jz1vyggsuGAgVz4R4n3zyyWGDfYwHshySYuO9iCY4sCE/JVzIMrlIgwep0yeWCCsynFamDPHyVicEk7TLMNTHrsmX9kQW5QU/tD5oYEXS/F8dho/AF5W1SB6NIdq+lAh20q5In5OumkD+5L9PWWTQeLO0qAMWtEFeBPy/ULWIa2JNyUcshMYELQztiHbBp7LY8xWbMpyL2iovRCKZ5EufVymqdz0jrYMyTKvKw6eywI3lxnamLC91sChLW6SH9s8yMH2YlzdWCc4666zCaE36JO2JpfZ//etf4dAffZb0ORRW9CFutT99Tq2szGQsxb9dHygqTJpGUR0yAbE0Tr4ZW9gKwjhH+2R1hfqLtxEUPQe/plhXtRte2Gj3XEyWqanTH5v0j6rxku1dzFuqO8b5vffeO992Q95YKufFjS+OFClF0vzbvSFQF4GYTOLGyI++K1IpOyWV0l5iMx+ixRy0fxXpB6vw/5l+wnO+Q3Lb58YDGP6G0g94HaftiUz4iz5PcGqlwX88e61RqawnO+Gvzvw/+Tj/IeMecr7iHfn2g1iPsCIPP0E5rwkuCsr9fEMLfxnpNbi537B0FGGIn18Crp0NcPGTTe220hTH2hlpKMhf+3lNTvgf94ZRW8S9tib8PWTV/8AX4dySSHRDvjzJClfkXekcKJjWwSItiH8Ja/mvcPoY/QL/dqaTcjdJv93zFd60DyhebFeVxX8E33nS5PyLf/irT/+nFXlUr7l0fvk89FnaTpXpDdZV6fY2rG7/aDdeEu5fukvHeTDG+JeM3mbZ4hsCOQKeT+ZuOfyLF18aCpf8uMcfI3csg1tmUBNMFbKbbP5L2+9rCiTTawm7qehWVkPgJ0MgJT0/WUYG8IO9ZsP5VZ/wMuT36DrGKgwTktcCOq9ldX5lxfltHpWlMKwr4bFAQ6AjBGJiGCdQ5o+M13AGURFR2cThMoIZIzmcutFm+GW5oDHxB5FCKfzGeef3bg6nJbJsGwLDFwJGeurVl9+L6/72t78FYb+FJRBKv+zvWCnBEOb/VS24y34M6zJkzN8Q6B0CEEaRxNSOUw7kMdJi6l7xkTWCGSM2HLv9Zm/n9+44vzcvNA7/H7bO/+/0cFwiy7ohMHwhYKSnXn3xMuw/wRW277AVQcbv33Z+D7tja087Y1i3Q8jCDYHmCEAIRRQVm3sZEU7dx2H4xfcimqbBFFrDue0P/Dj/Oaawj4l9TmYMAUNg2CFA32OAZR8hA7GZagTYZ/jaa685f7jS+S8hOP9f8rX3ERvW1dhaqCHQCQIiiNjxGKZ7hcdpyy+2RUSxjWDGaJnbEDAEDAFDwBAwBAyBLkQgJYpAgF9MGrlv55fLeMd/daBdCKgV2RAwBAwBQ8AQMAQMgW5GoIgK4ge51JK37sEplpdbRDS/9w4jmN3cqqzshoAhYAgYAoaAIdD1CEAHuSCKGLljO/XnPiWWuYyPaAQTNMwYAoaAIWAIGAKGgCHQpQikRFIw4K8w/OSWjYYzNvhjbA9mjIq5DQFDwBAwBAwBQ8AQ6DIEIIUijLIFge6xZeq4jWAKLbMNAUPAEDAEDAFDwBDoQgRiwqjix8RS4Vo+R0Z+csdL5SGu//kvJVWqZhsChoAhYAgYAoaAIWAIdA0CgRRGh3pU8JQm1r03DaYQNNsQMAQMAUPAEDAEDIEuRECkUVpIQSB/3WNLRqfL8Yvl5DaCCTJmDAFDwBAwBAwBQ8AQ6FIERAqLil8Uhp+IJnG4j+VCuP+xJfIiRM3PEDAEDAFDwBAwBAyBLkCgiAqKQBaFAYlpMLugYVgRDQFDwBAwBAwBQ8AQ6BSBmETKDcHE6F5px8STsPheMti2RB6jYW5DwBAwBAwBQ8AQMAS6DAGIoshiWvSyMMnH4bgxIcz/2BJ5iqbdGwKGgCFgCBgChoAh0CUIBELoNZbYsVvaSWCQf+zGT/fB4X/yNLzDCKZQMdsQMAQMAUPAEDAEDIEuQyAnhUOXxePipzRRpDP2L3LbEnmMorkNAUPAEDAEDAFDwBDoMgREELEhkKlReOwf+6XukI7/MQ1mjJi5DQFDwBAwBAwBQ8AQ6CIEYioYyGFEMnVaXJpLYJG8ZLFjNzKmwQQFM4aAIWAIGAKGgCFgCHQpAilhjGGIyWPqL9Kp+ITn8t5hGswYMXMbAoaAIWAIGAKGgCHQRQiUUcHYH3e8fC7NJjBJTjLB9j9GMLuoEVlRDQFDwBAwBAwBQ8AQSBEQYYxJIjKiiTG5lEwcLjnsEO5/jGCmKNu9IWAIGAKGgCFgCBgCXYKAqGAghkP3X8od24IDP/njh1tGbtuDKUTMNgQMAUPAEDAEDAFDoAsREClMiy4SKe1mUTh+cXzFMYKZomX3hoAhYAgYAoaAIWAIdBkCMUmk6EUHeASJZGOZ2B1Ipv/5r15TMc02BAwBQ8AQMAQMAUPAEOgKBKqooMKwtQ8z9hNAIpjcB1n/YwRT6JhtCBgChoAhYAgYAoZAFyLAMjgGopiSRcER+8fL5jGVlNuWyIWa2YaAIWAIGAKGgCFgCHQpAhBDEUi5gUKEEbfCY/84XP4hvv8xDSaImDEEDAFDwBAwBAwBQ6ALERAVDMSwRIMpGUgmRvfYihf7mwYzwGQ/hoAhYAgYAoaAIWAIdCcCIouphlL3cTgI6V5oiWDKP9z7H9NgCiGzDQFDwBAwBAwBQ8AQ6EIEtKcykMOhWkpgSGlifJ8S0FjeNJhd2IisyIaAIWAIGAKGgCFgCAiBmDTiJ5KZ+hMGqYSMSkbyskU6jWCCiBlDwBAwBAwBQ8AQMAS6FIEiIikoCBOZLJMrkjGCKQTNNgQMAUPAEDAEDAFDoAsRKCKO0kQqTPeCJ/XXvWwjmELKbEPAEDAEDAFDwBAwBLoQAZFCFV33KakkXH7IcMX3ih/kfKAd8okRMbchYAgYAoaAIWAIGAJdhEBMBUUYVXzCuPCPjfzicLmRMw1mjJa5DQFDwBAwBAwBQ8AQ6DIEyshiTDYlAzS4ZSOjE+hyE2YEM0BkP4aAIWAIGAKGgCFgCHQnAtI8SksZk0kQEYHELdIpGcUlDMM9xghmgMF+DAFDwBAwBAwBQ8AQ6E4ERArj0scEMvaXOyWWqb8RTCFitiFgCBgChoAhYAgYAl2IgMiitJPSZAJFFfmMw5WG4DOCKSTMNgQMAUPAEDAEDAFDoAsRKCKRIptpmPzjZfNYRkTTCGYXNiQrsiFgCBgChoAhYAgYAkIgJ4UFJ8Ulgy1yiTsllfKTjBFMEDFjCBgChoAhYAgYAoZAlyJQRDBFILEhjbGRXyyjcPxCuP+x72AKFbMNAUPAEDAEDAFDwBDoMgREBQMx9GQSQqklcIUJEmkoY3/JIiP//w9jWNlX5IjEywAAAABJRU5ErkJggg==;" vertex="1" parent="1">
          <mxGeometry y="430" width="268.67" height="140" as="geometry" />
        </mxCell>
        <mxCell id="1AfLMDBqWOaOHhTdISSM-59" value="" style="shape=image;verticalLabelPosition=bottom;labelBackgroundColor=default;verticalAlign=top;aspect=fixed;imageAspect=0;image=data:image/png,iVBORw0KGgoAAAANSUhEUgAAAT4AAABGCAYAAABVPvgoAAAMPmlDQ1BJQ0MgUHJvZmlsZQAASImVVwdYU8kWnluSkEBoAQSkhN4EESkBpITQQu8IohKSAKHEGAgqdnRRwbWLCNjQVREFKyAWFLGzKPa+WFBQ1sWCXXmTArruK987+ebeP/+c+c+Zc+eWAUDtBEckykHVAcgV5otjgvzo45OS6aQegMCfMiABcw43T8SMigoD0IbOf7d3N6AvtKv2Uq1/9v9X0+Dx87gAIFEQp/HyuLkQHwQAr+KKxPkAEKW82bR8kRTDBrTEMEGIF0txhhxXSXGaHO+V+cTFsCBuA0BJhcMRZwCgehny9AJuBtRQ7YfYUcgTCAFQo0PsnZs7hQdxKsTW0EcEsVSfkfaDTsbfNNOGNTmcjGEsn4vMlPwFeaIczoz/sxz/23JzJEMxLGFTyRQHx0jnDOt2K3tKqBSrQNwnTIuIhFgT4g8CnswfYpSSKQmOl/ujBtw8FqwZ0IHYkcfxD4XYAOJAYU5EmIJPSxcEsiGGKwSdLshnx0GsC/Fifl5ArMJns3hKjCIW2pAuZjEV/DmOWBZXGuuBJDueqdB/nclnK/Qx1cLMuESIKRCbFwgSIiBWhdghLzs2VOEzrjCTFTHkI5bESPM3hziGLwzyk+tjBeniwBiFf0lu3tB8sc2ZAnaEAu/Pz4wLltcHa+NyZPnDuWCX+UJm/JAOP2982NBceHz/APncsR6+MD5WofNBlO8XIx+LU0Q5UQp/3JSfEyTlTSF2ziuIVYzFE/LhgpTr4+mi/Kg4eZ54YRYnJEqeD74ChAEW8Ad0IIEtDUwBWUDQ0dfYB//JewIBB4hBBuADewUzNCJR1iOEx1hQCP6EiA/yhsf5yXr5oADyX4dZ+dEepMt6C2QjssFTiHNBKMiB/yWyUcLhaAngCWQE/4jOgY0L882BTdr/7/kh9jvDhEyYgpEMRaSrDXkSA4j+xGBiINEG18e9cU88DB59YXPCGbj70Dy++xOeEjoJjwjXCV2E25MFReKfsgwHXVA/UFGLtB9rgVtCTRfcD/eC6lAZ18H1gT3uDOMwcR8Y2QWyLEXe0qrQf9L+2wx+uBoKP7IjGSWPIPuSrX8eqWqr6jKsIq31j/WR55o2XG/WcM/P8Vk/VJ8Hz6E/e2KLsQPYWewkdh47ijUCOtaCNWHt2DEpHl5dT2SrayhajCyfbKgj+Ee8oSsrrWSeY61jr+MXeV8+f7r0GQ1YU0QzxIKMzHw6E74R+HS2kOswiu7k6OQMgPT9In98vYmWvTcQnfbv3II/APBqGRwcPPKdC2kBYJ8bvP0Pf+esGfDVoQzAucNcibhAzuHSAwE+JdTgnaYHjIAZsIbzcQKuwBP4ggAQAiJBHEgCk2D2mXCdi8E0MAvMB8WgFKwAa0EF2AS2gp1gD9gPGsFRcBKcARfBZXAd3IWrpxu8AP3gHfiMIAgJoSI0RA8xRiwQO8QJYSDeSAAShsQgSUgqkoEIEQkyC1mAlCKrkApkC1KD7EMOIyeR80gncht5iPQir5FPKIaqoFqoIWqJjkYZKBMNRePQiWgGOhUtRBeiy9BytBrdjTagJ9GL6HW0C32BDmAAU8Z0MBPMHmNgLCwSS8bSMTE2ByvByrBqrA5rhtf5KtaF9WEfcSJOw+m4PVzBwXg8zsWn4nPwpXgFvhNvwNvwq/hDvB//RqASDAh2BA8CmzCekEGYRigmlBG2Ew4RTsN7qZvwjkgk6hCtiG7wXkwiZhFnEpcSNxDriSeIncTHxAESiaRHsiN5kSJJHFI+qZi0nrSb1EK6QuomfVBSVjJWclIKVEpWEioVKZUp7VI6rnRF6ZnSZ7I62YLsQY4k88gzyMvJ28jN5EvkbvJnigbFiuJFiaNkUeZTyil1lNOUe5Q3ysrKpsruytHKAuV5yuXKe5XPKT9U/qiiqWKrwlJJUZGoLFPZoXJC5bbKGyqVakn1pSZT86nLqDXUU9QH1A+qNFUHVbYqT3WuaqVqg+oV1ZdqZDULNabaJLVCtTK1A2qX1PrUyeqW6ix1jvoc9Ur1w+o31Qc0aBpjNCI1cjWWauzSOK/Ro0nStNQM0ORpLtTcqnlK8zENo5nRWDQubQFtG+00rVuLqGWlxdbK0irV2qPVodWvrantrJ2gPV27UvuYdpcOpmOpw9bJ0Vmus1/nhs6nEYYjmCP4I5aMqBtxZcR73ZG6vrp83RLdet3rup/06HoBetl6K/Ua9e7r4/q2+tH60/Q36p/W7xupNdJzJHdkycj9I+8YoAa2BjEGMw22GrQbDBgaGQYZigzXG54y7DPSMfI1yjJaY3TcqNeYZuxtLDBeY9xi/JyuTWfSc+jl9DZ6v4mBSbCJxGSLSYfJZ1Mr03jTItN60/tmFDOGWbrZGrNWs35zY/Nw81nmteZ3LMgWDItMi3UWZy3eW1pZJlousmy07LHStWJbFVrVWt2zplr7WE+1rra+ZkO0Ydhk22ywuWyL2rrYZtpW2l6yQ+1c7QR2G+w6RxFGuY8SjqoeddNexZ5pX2Bfa//QQcchzKHIodHh5Wjz0cmjV44+O/qbo4tjjuM2x7tjNMeEjCka0zzmtZOtE9ep0unaWOrYwLFzxzaNfeVs58x33uh8y4XmEu6yyKXV5aurm6vYtc61183cLdWtyu0mQ4sRxVjKOOdOcPdzn+t+1P2jh6tHvsd+j7887T2zPXd59oyzGscft23cYy9TL47XFq8ub7p3qvdm7y4fEx+OT7XPI18zX57vdt9nTBtmFnM386Wfo5/Y75Dfe5YHazbrhD/mH+Rf4t8RoBkQH1AR8CDQNDAjsDawP8glaGbQiWBCcGjwyuCbbEM2l13D7g9xC5kd0haqEhobWhH6KMw2TBzWHI6Gh4SvDr8XYREhjGiMBJHsyNWR96OsoqZGHYkmRkdFV0Y/jRkTMyvmbCwtdnLsrth3cX5xy+PuxlvHS+JbE9QSUhJqEt4n+ieuSuwaP3r87PEXk/STBElNyaTkhOTtyQMTAiasndCd4pJSnHJjotXE6RPPT9KflDPp2GS1yZzJB1IJqYmpu1K/cCI51ZyBNHZaVVo/l8Vdx33B8+Wt4fXyvfir+M/SvdJXpfdkeGWszujN9Mksy+wTsAQVgldZwVmbst5nR2bvyB7MScypz1XKTc09LNQUZgvbphhNmT6lU2QnKhZ1TfWYunZqvzhUvD0PyZuY15SvBT/k2yXWkl8kDwu8CyoLPkxLmHZgusZ04fT2GbYzlsx4VhhY+NtMfCZ3Zussk1nzZz2czZy9ZQ4yJ21O61yzuQvnds8LmrdzPmV+9vzfixyLVhW9XZC4oHmh4cJ5Cx//EvRLbbFqsbj45iLPRZsW44sFizuWjF2yfsm3El7JhVLH0rLSL0u5Sy/8OubX8l8Hl6Uv61juunzjCuIK4YobK31W7lylsapw1ePV4asb1tDXlKx5u3by2vNlzmWb1lHWSdZ1lYeVN603X79i/ZeKzIrrlX6V9VUGVUuq3m/gbbiy0Xdj3SbDTaWbPm0WbL61JWhLQ7VlddlW4taCrU+3JWw7+xvjt5rt+ttLt3/dIdzRtTNmZ1uNW03NLoNdy2vRWklt7+6U3Zf3+O9pqrOv21KvU1+6F+yV7H2+L3Xfjf2h+1sPMA7UHbQ4WHWIdqikAWmY0dDfmNnY1ZTU1Hk45HBrs2fzoSMOR3YcNTlaeUz72PLjlOMLjw+2FLYMnBCd6DuZcfJx6+TWu6fGn7rWFt3WcTr09LkzgWdOnWWebTnnde7oeY/zhy8wLjRedL3Y0O7Sfuh3l98Pdbh2NFxyu9R02f1yc+e4zuNXfK6cvOp/9cw19rWL1yOud96Iv3HrZsrNrlu8Wz23c26/ulNw5/PdefcI90ruq98ve2DwoPoPmz/qu1y7jj30f9j+KPbR3cfcxy+e5D350r3wKfVp2TPjZzU9Tj1HewN7Lz+f8Lz7hejF577iPzX+rHpp/fLgX75/tfeP7+9+JX41+HrpG703O946v20diBp48C733ef3JR/0Puz8yPh49lPip2efp30hfSn/avO1+Vvot3uDuYODIo6YI/sUwGBD09MBeL0DAGoSADS4P6NMkO//ZIbI96wyBP4Tlu8RZeYKQB38fo/ug183NwHYuw1uv6C+WgoAUVQA4twBOnbscBvaq8n2lVIjwn3A5oivablp4N+YfM/5Q94/n4FU1Rn8fP4X9s98Qp13PZkAAACKZVhJZk1NACoAAAAIAAQBGgAFAAAAAQAAAD4BGwAFAAAAAQAAAEYBKAADAAAAAQACAACHaQAEAAAAAQAAAE4AAAAAAAAAkAAAAAEAAACQAAAAAQADkoYABwAAABIAAAB4oAIABAAAAAEAAAE+oAMABAAAAAEAAABGAAAAAEFTQ0lJAAAAU2NyZWVuc2hvdHaCcMYAAAAJcEhZcwAAFiUAABYlAUlSJPAAAAHVaVRYdFhNTDpjb20uYWRvYmUueG1wAAAAAAA8eDp4bXBtZXRhIHhtbG5zOng9ImFkb2JlOm5zOm1ldGEvIiB4OnhtcHRrPSJYTVAgQ29yZSA2LjAuMCI+CiAgIDxyZGY6UkRGIHhtbG5zOnJkZj0iaHR0cDovL3d3dy53My5vcmcvMTk5OS8wMi8yMi1yZGYtc3ludGF4LW5zIyI+CiAgICAgIDxyZGY6RGVzY3JpcHRpb24gcmRmOmFib3V0PSIiCiAgICAgICAgICAgIHhtbG5zOmV4aWY9Imh0dHA6Ly9ucy5hZG9iZS5jb20vZXhpZi8xLjAvIj4KICAgICAgICAgPGV4aWY6UGl4ZWxZRGltZW5zaW9uPjcwPC9leGlmOlBpeGVsWURpbWVuc2lvbj4KICAgICAgICAgPGV4aWY6UGl4ZWxYRGltZW5zaW9uPjMxODwvZXhpZjpQaXhlbFhEaW1lbnNpb24+CiAgICAgICAgIDxleGlmOlVzZXJDb21tZW50PlNjcmVlbnNob3Q8L2V4aWY6VXNlckNvbW1lbnQ+CiAgICAgIDwvcmRmOkRlc2NyaXB0aW9uPgogICA8L3JkZjpSREY+CjwveDp4bXBtZXRhPgpHPNuBAAAAHGlET1QAAAACAAAAAAAAACMAAAAoAAAAIwAAACMAABWsk/w8DgAAFXhJREFUeAHsnQd8lUW6xp+THnoJPUBQ6gLSVNi76tJ2VUCl35UaMLQgIITem/TeRSAhJEGkCLsIeH+r3r1XF0G90kRZYaV3EkIqaec+z4QPjrmgl0DwsPnGX3KS73znm5l3Zv7zvO87QceNxCQn7GJbwLaAbYF8ZAGHDb58NNp2V20L2BYwFrDBZ08E2wK2BfKdBWzw5bshtztsW8C2gA0+ew7YFrAtkO8sYIMv3w253WHbArYFbPDZc8C2gG2BfGcBG3z5bsjtDtsWsC1gg8+eA7YFbAvkOwvY4Mt3Q2532LaAbQEbfPYcsC1gWyDfWcAGX74bcrvDtgVsC9jgs+eAbQHbAvnOAjb48t2Q2x22LWBbwAafPQdsC9gWyHcWsMGX74bc7rBtAdsCNvjsOWBbwLZAvrPAYw0+J/8JVYfjzpi5/nznat79pPrtYlvAtsDjZ4HHEnwW8Hw8AQ8PwACIEHK6QPBRDIXDAi/rzcwC0jMfRa12HbYFbAs8qAUeP/ARNj7eQBZfz8Q6ceisE0fOAudigYTUWxB8UKv8zOeNqmTdnoRu0QJApZJAvUCgdqADZYs4QP4hLf2nSvRnHme/ZVvAtsCvYIHHBnxSdZ5UVt5ewHcXnNj8lRP7jjkRG0/YyXDm20O2oIuCVP2ZGdnVOEU3FgfVpie/vAnisgEOvFALaN/QgcolHUgh/OxiW8C2gHta4LEAn6DjRcCkEzhRe7Owea8T1wk8H99s8OSJaQk9cS9LLiwh5uHhREBxTxQtCPj6EIC8npIGxCU4ERefRVfXYeKN5Us50PMFB16t7zDur1zgRx17zBN72A+1LfAvZAH3Bx+hJ7fyJuEzZ08WPqLS8+LvXlR+glJeCD2Nr6CXwZidFGajap74Yz1v1CnviUCqOf2ncjPDiVNXs/D1yQz8x6EM/HAmC+lUhXLF//S8AwOaeiCDbZRbbpfH1wJOE0TWBpY97vfqie77pXvu9Vn7+qO1gNuDT3MtgzCZvTsLe750ws+PsCNI8pIlBnqsswwhN6SVD5rV8jEurTU0ApnusdaB2pOa7sR7+9IQ+WkaklP4HhVqFyq/0GYeBKT1yYf3miXq36Vo4bnT4lNbLHCoubKbN2MDGZmZ3Lju3oe7dOuRXcoJL7XXk7usl6eXaW8G4x1qt+t9useLfXLyuvqVlyWnPfOyrn/lZ7s1+AQUb6q7lZ9mIepTJ3zp2gp4up5XRZNYoK1XzQNT2vujfHGPbNCyTmWQ9b4r8DJNg7KvCYgHTmdgypabuEgl6E2XePDLHuj0jANJN/l5ffghFB8uMl/JyhxFdsnMykRKKitzg+JBQwkagkSGjMqSwbjBjz/+iIBSpVCyZMlfBX6u0FKbNCwedCs8OMCZLkBW+x28dv78BZw9cxrFihdDpYqVULBgQar4O30S8E6ePIkCBQqgXPnyD61POdtp7Mmxz2Ib1U675N4C7gs+LmJB7+vTTozYoBgaJyjBk9fQk6v6RAUPLO3pj9JFPDiJs13tX2JWNnTYPt544FQG25wK/b/aS5VwYHE3Byox+fHA2V5WooV45vQpHD9+wixY5y3tq/q1UASTBg0bPrTFl9upJWWSkpKCbdu2oWJgIFq0bIn0tDRcuXIFvXsFIySkD/69y+tISkwywMltPff1OdrHU4DjV7oCt7eKJzNUB745gL1796Jbt24oVLgwE1kZxp5bt25FRPg6FC9eHDdv3sSgwUMMdG7E30C7Du2NndN4vW/fPmjQoAHGjB2LxAftE9vp4+PDOc957wK4NNpv08aNeLJqVTRt2hQ3+bs7qXvLno/Dq9uCTwtZa3rMtkzs/ZYJBao9QSivisCmKn28HZjRxQ+/q0bXhheUVLmforN8+twmur1L/5KtvNr+1oGRrTyQ/ICqT2DzooJas3o15s2bg7Jly91eGFoAWsy/e+45LF68hKov9Z6LQs9Rsdwm11err65qw/Vn6329uj7H9bp2J8HlyuXLGDxoEJ6q9xSmTJ2K5KRkXCb4unftgv4DQtG1W9d7QsK1znv9/JM6c/zi+hm9ZVQdN43LbNPFixdRp25dAy2pNV9mqzZs2IA1776L6I3voUKFCkZVHTt2DANDB6Bt27bo0Kkz4uPjUbJECcyaNRNp3MWWLF0qIyCV4OsdHIxGjRphwsQJSHABX852qC2u11x/1nt6nlyKo99+y/Eti1JUxlLLUqPx8dcR3LMnmjVrjpGjRyMp6aebhvUsvarcDYqu91jvW9fMh+7yzXrfes15i+t1159z3udOv7sl+DRufvTkvqHaGx6VxZ1Nrkj2nMgr42lhKJnR6lkvTG7nz8qyXdvc1Kdpl5jqxMCIFBw+nonAsg4s7ELVx5jhg8T7NKkEvg2R6xEVFYXw8AgULVrUxJUseOl9f39/s7ju1nb10/NWPEqqxoc7ihaV3CfFp6QwLBdV6kgLUde1+KyFYj1X7+vLXL91n6tC0X0XL1ygC+iPYsWKm43l0qVL6EHg9es/4J7gUxutOKDqV/zsdh1sh9qTsy26z8Ti2H/ZSb+n817TH/ZP13yZqRLgjh8/jhkzZ5k+6R4nd6qkpETExcWhAtWpPuvDUMLOD3dh3pzZeH/zFgRWKG8UWDonifqge0qVLn1b8UnFNmz0NMZPGG9grvZ5sl6rH5ZdLNvK5ioCr9qguKHpN5WewDxl0kT069cfjRs/i1RC1goVGHvS1ZYCvT0mbIsZC/bdspPVd1c7qT26L40bpPn51v2yjdTk/ym3niv7q/ykreyfijVWsgtvMGOgZ6u/eR3vNA3I5Te3BJ8Ukx+zqWs/y8LqPU74M6Gha3lZNICePCi4IsQfT1Xy1LzOdUxObrm+dnyThpnvp3IRUfG95sBrDaj67jK//r/9ssAXERGOqMhIbN32gVkAmuTWBNfrLyUN4mJjTTyqYKFCuEAwSQUFBJRE6dJljIvl5AS+euUqzvM9P6qhQMW1GL/SgtHzZSspuuTkZMReu4arV6+icOFCKFeuPF8L33bB1I7ExESz2BQX06K/SGhI8fUbMMC4lXdzC7XAYgkhQd2XYDZtJAwKsQ6psQIFCrEtd9w8s/gIDCky9SXhxo1stVS6lElKGJeQbb7Gtk6kIpNqG/zWWwRHJgrTBmpzMt3yVKpk1al2SsVFrl+Pv/x5B2bNmYNSAaXMJlGM7ycSkpofhfhZ2UOubi8pvqep+CZQ8SUkGuDJXpfY7iJFiqAwv1TU1mu0/1UqX8GmNFVdaao61SmQyWa7du3Cu6vfwchRo1DrN7UNRAIYwlCY4wb7qM1Km5tV5BanpCQbIF+7GouSHMsyZcqYMVafrDFTHxV+KFumNPuQhPPnzpvx0b3ljcpVSOlO7FDQ1ucvnDvHI1vx/FwZ2rUMn+dhYK3nWmMlO2o+yf7nz541Mdyy5crRTnm8cC0j3OerW4JPfZDLOJ5u7hdH6X7q3Fwe2k+TURtWzSBPLA/2R1E/ZSKNx3Gf5sy+3YL0sQuZGEzVd+26E23/zYHRTHQ8DMW3nuDbQPBt+2A7inMRy8XVJFTRRPu5yaadOHRAf9SrV5+gK431EREEkwcXeiqa04VSDGv7Bx9g8+bN5jk3blxHzZq1MHbceFQOCjJxOqmG/V/ux4plywwcCxFqNwibipUqYfjwEXx2PdMmLfCwYUNRv359jB4zFqlcdJe4MH4OfOrH9evX0TckBK+//ieqsOvYsnWLAWA8r1evUQMjRo5CjerVs0GsTvMzn3/+GVatWGEWni9T/+l0E37frCmVZajp54//PIGpU6bgH/84Zp5lEhSEzOtduqA743oboqJpi3Dj6ioBs2jRQhw8eJDueRLBVZTAcqIL7+vcqZPpowdtNmfuPGMjxf56B/ck+KT4JiCFaX1BbzZd4iOHj2D69OmoVbs2tOGsJtA++eQTo7gUtE5NTUHnzp3Rs2cwgeaDyIhIo+jTM9IJy8LqHAKpQqdOnWbA0p1quSXjpUOHDjPQ8ubiOHr0KPu+HEeOHLkNuzp16yA09E3UrFULNwkvufM7dvzZ9HHM2HGmHWcJKIErLe0munXvgU5sR8ECBY1S8+IY/0BlvHTJYnz33VEU8OfGx/v++OJLjGf2M23RXIrjmIT274c+ffsyLpqJxbSbXPAe7E+//v1NXNSamxoqdyluCT6t4UQeCekXkYVzV+Te5S34lG3l3EWrxt6Y3tGPkzn30NPAitHCUEKKE/0JviM/ZKJxbSY5umSf69M9uSmW4rPAFxOzEUXl8riAT7u01JhKTgCqTQqYDxo4EN8d/ZaT+EV06NiJKqcI9n7xBZYzZiVFFRAQYBZ5hQqBOMHJP/Pt6YzT1ce8BQuMYlAd+/fvx9dffYnmLVqgUMFCRvXNnDGdCrQEFi1eCl8/X0LoEoYPG8bP1sM4glMK0Yrx3UvxaZEIEH0IPrmfTZs1Y4ytnVFMp5nUmTt7tlGWywg5qSNvTo6vvvoKw4YOQfPmLcwCFgxO/PAD27EITzzxJOOh840iOn/+PAEyxfRx0KDBhHMGirDvpamQomNisG7tWgO+guzPmdOn8dFHu7Fn927MmDGTbm0pQqUgChDy48aMMQOcE3xydSdOnMjD9fFYvHAh/va3/zRwbNSoIRUlk10JCdiyZTOCgoJQvXoNM0a7+XyN59Rp09G61cs4eeo0Pv7kY4SzLYJotWrVTQZZqiyVz+gV3MPYfNiwMBPHPUc1NiJsmAHeW7R1Cdr/8pXLWLl8OZVnAhYuWmzUnObCrp07MXnyJLORtXn1FTRp3MT8ieVfP/rIgFD1CX6KxV67egUjR47kOPphCNVxUcJfG8ES2vSll19GWNhwo+y1GfUJecO4/cpqt27dBlWeqMI5VexXy9obw/7CN7cEn0AUlwx0X0VXiZlRbq4GJr/Ql1y/rfpSGJPr1sIHw1/2M26q6nyQIldXB5zfikrB3kOZ+M2TDoSHMPbxAAkaV/Ct5MKvRyWlWJEFOL1269YdTZs2NW6TYl5W0c4uV8oC37lzZ7E+MgoVypfl4XDGzbibj+BE379vH8Lp4tWlQlFsyUG3V5DZQ/dr85at8NFBSj5LsUQvniRXPEcA0rM3bdpM5RSJpVSCVZ+sijNUFMOp+NTO+wffGzw2UghrCICiVD5qC3uKGGY1BaiIyA1se3mz+EYODzPq553V79IF9KPaymBSyoH/+u/PMG7sGIygy9ihXTsmHRKpVvqiSpUqRoXJ1VW7pXhjCL61a9YY8MmlU7wqKjoGGzfGIJJ16VoqXVO5fhPGjTXzcS6BKpvfVnwE34gRw7Fw4SLsITRnzZrNGF0TJBH4GidtPNoQPAl3SwUprtiVSrJ58+ZGxWXxnOBfP/4E0wjoVaveYRKmDvuYbmwsF74XlWXzFi0xLCzMbCTh69YQplsJz/UEamUzlt7c+E6eOoV+7Ks2t6EEovr5IcE3cfw4o+r79uvLa4zn8l65vy2bN0Or1q0xavQYE+99j3aOiYlGJGPJ5emOa94oKx9Nm0RFbcDqNWtRuXJl417379uHYE/G8hUrUatGTWTSJibGxzrdtbgt+GKTgG4rMpHMf3jgkYCP6qzHH3ww7KWHB740gm9oTAo+P5CJmlUcWN+H4HsAl90VfKvfeQft2rc3iuf2IznhWrT8g3E1FcORi2MKF5oWtz/dFZV+nKjFixWDFq4mqM6kaVHOZSzr0KGDBOIGnkH0MRO9IBMTcgN1pEMgkPLQIvLl3wumpCZT6V0zyiyDsPns88+xjW7pEoKvNsEp1RTGRXe/4JOrG9yjO1544fcGxgKL+u7PtuxiwmHRwgVYQLjouVI8urdDx44YEBrK+F6CgYpAI8UzgG6YFOc0ZpWv8e8c5ZZVCaqCCZMmmSMrsofcwBj2be3aNYh5bxPjeQGmj9HR0XT538caLvIyjFdJWavv43lkRQZzBZ+AJAUVVKUKVtLtlIJ7/vnnDfQUGmAHTKzTk5vFNdpM8UgpYIUY3p42DY2b/JaZ2lHcaGBifHPnzjHZ+brMPqv/2sQSGTvMVnwt6W6H4eq1WAN2uaVzOJZKUFlzwZPtU7wxlqGCBVTqRRgf3b5jB93vWVi2fIU5eiPgyU766tC+HerUqYuJtItCBxPHj2dM9CqGM6ygTVPzROpv79//zthnBCZNnsK51gJnzpxFSO9eeObZZ/nZKWxr9pzThqjnuGtxS/DJXvFUfCFrs3Al7tG4umJEu+e8MbGtn0mkSAU+SOE85z9U4ERoeAr+5/tMNKjpwKoeD8fVVXIjmtnJnTs/NEkF13amUVJqoiooH8V75H6kMd5VvUZ1hI0Yyd/98UavXowbVTRBeykYLUpNUsWklPGU0lDAXEmTAlQoGwiAdVRDUXStBT4tsP37v8T27dsM3LTYtPgEGsW2Fi9ejNp16uQafHKfenTvhjZtXsGgIUNMzEh99Gdbdn74IRZxIc+bvwCNGjbANwcOYsjgQTwew2RJ166IJ/isQ9NSbf2ZGdXBYwN5xs1CQkIg8E0mCAUxqVUdBs8JPm0G0VQ2mzZtwrp14XSvyxkAySbjqfhUDPj4eSVCpHpSeXA8IeGGiX8tXbrMxOaUWBEElJiIi4vFFsZO91FVG+jQ5rp+ioef23foALmqulfu7+yZM7GUgBL4NEaCk1xlS/EJfJcuXc4G+1P1zPlBK4uqTULjuWTRIuxjCGPlqlVMoATgg+07MH/+PKwLj0C1qlVvJ6HUl86dOqIG46eTGAfNTGdsevCb+P6776m6C5hNhw/kXfqTPI61lzdVZBheadMapwm+3pxPbV5pY5RkziM2erY7FrcEnwyVyvOlIzZl4vA/dbQhe23mlQEFOc5PPFPLC0u6+8PnVkxRg5ybonmncjYuCwMJvjMXsvDi08Dktjw4eydpln3TfXx3VXxKbmziItIxEdcYnxaSFMaRw4fNAvO9BTABS4eIFZ97o3cvBAUFYSZdMQXvzWxmOwS+E8dPmIVyN/BJ+VWsGIjP6EJOoMvUkMH8nsG9TCxHWd/ddIelmpYuW07w5V7xWeB7jbG9gW8OpBvLNrIIwgLfgvnzMX/BQgO+g4cO482BoejTpy+CqbriqYrUf9lKYBOQKlQIxOw5c02cr0+fPAAfwSRlqaxxfx7TiaaLqDjpIsbX1BapJSWgZsx4mxvGPgwcOMgoJI2NXF7FyBo3aYJRo0YThI6fgO8pgk9nMu8FvlCeM6zBeOHEyZNNPbKT+q7nzJ09B98y4bGM8b6SJYob8C1cMN+ECYLoplpZen2mc8cOqFGzplFy2jjf4oajTXO04pmWjuS81oF5zW/FRuVBKKsf3LMHXn3tNbzJM5t3y9Lr+e5W/hcAAP//iPHBNwAADsxJREFU7ZoJmFTFuYa/7tlHdlEWkRlQoyIIjmLiDQZEIApGZAmyLwMIKGoCosIQQLjAIOA67PsyCAITEAGjF5XBRGK8Q54nQkwENDIqizKs07P0cr+vmgM9gPfh4hCbe6p46J4+p07V/39V9db/V7fn2ImTIURZCdGiGA/w8pYgXt8aQlIyEAxeOiPZFYLss0KyBwsGJaPeVV7z2asbF1ECtFWivvd3PzKW+yB/htzvQa+7vCgqvYgGTz0SYkOxsbFYsngRli9bhjVrc1C5ShX4/X54PGeM1V+xcXGIi/Ge7kzyFfmK6FcIA/unIyU1FZMzp6Dw5EnwYVNvSuZk7Nm9B7Nmz0Z8fDxK2W5yYgKWZWdj4fz5WLpsOWrXqolJkzPx0Z+3Y8XKVahSuRIK2W58bAzms86KFSswe85cNLilAfZ9+SWGDxuGxk2aICNjNAoLC3Hw0CH06tEdg4YMQc+ePXHixEl4vWfslB9HjxxB71490f6hDnhs6GOmjgyULW9u3IgXpk/H9Bdfwm1s9+DBQ+hPf5o2bYqx48bhpPxhSaD9X+bvw+CBA3HfffdjxNMjcOToMQwe9AhSUlLw3HPjUVLKwaAeiQnxyM5egQULaD99uqp6daNT9vJlWLVqFRYuXIRatWqhuLjYaDI6Y5TpY+q06Xw8ZK7379cXaWlpeHbkSOTmbsOokc+iW/fuGPr4E/Czn0927sRTw36Lnr16IT09HUXFJYiNicG3336LPr17oXmLFnj66Wfg4aTbvHkzMidNQtaMmWjUqBGKiooQw7rHT5xAvz690fLeVhg+fDgKqNN/TpiA/H37sHjJEj7rPTMXggE8+thjqFipIjIznzc+rlu/Hi9Su8VLlyGVGsh/Z9506dwJN950E8aNew5e9pU5aSI++WQnlnM8k5OTUEJ7VVd9yO4iaiHfNVay/8H27enr4+eMpxEqCl880Qg+QS45AXj37yH8bmWQA0HlCA/B5FIVLX1/wIOB98VhUIsEBNiZ4HsxRRAt8YcwNqcIb//Fj6pVgOk9vGh0jQe+cgJfNmH0xhtvoMIVV5gJ6ExgTcYSf4AbRRChiN3CmbS6/8iAAQRfigGYAz65OmVKJvbs2YOZswg+gtMB33KBb8ECLOGCEfgmZ2bi3S1bsGjxYtRLTTV9fbbnczz7zAgUHD5M8M3BzQ0Evn0Y8dRw3Nq4MUaNyoDP58OBgwfRu2cPDBo8BD34/n3g68MF3r79Q1y8j54GXxLBt3HTZrz0wjRMe+ElNL71VrN4Z2RlYd26HLz6ahaasC/5LljMmTsXOWvXYsbMWWhAe7RYn6Y9h2njPEK6YoUKxkdpI2DLx+zXVpYB3+rXX8d8ga9mzdPgGzM6w0yLKVOnGY0FxAGE7223pWFkRgYhUYxlS5dyI5iHiRMnoVWre/FxXh7BNwy/euAB/JbvIf4rpo0LFi7GvLlz0KdvXzzx5G8MXHJzc5FBcA5/6il07tTJ+FPKMT167BgGpPfFPS1bmTbU73+9/TYmjB+PEc88g44dHjJ2lZSU4q0//AFTn3+ebQxHhw4dUVJSgo1m05hGSC418I8E38Ndfo0bb7wRY8aMRVJSErZufR+juVn1pl0DB/Q3sFPjavsQYV25chVurrEoKChAet8++NWDD3KTGnrOeBqDovAlKsEnnRSEHPcBT2YHsHsfEE8Qcs1essLuOMGAmtU9yOqXjLrVLi7qE/Rk54d7/BiZ7cPJQqBZI2Bixxiojx/igqAVx4hv7rw5XPwvcAHcayIBXVcJBAJoeEtDTsDHCYTwDm1unHpRPf3v0b0r6qXWw4svv2IiJAeaz40bi88++wxLuDCciC+J0dCiRYsxe/ZMRpi/Z6RQF1vefY+LYhSuvbYumt19N9s4gZ2MDq6uUQN/3ZHHdl820dgXX/wLjz46BLfffjsmMDIpLCT4DhzgAm1vFnm/fv0YxZwb8R3hYurcqSM6d/41hg0fZurIBYFv3bp1yJw8CTNnz0EaQSOYFRQcwbixv8PevXvR/BctuCgr4dN/fIpdu3aiX/oA9O7d20BX0fLaNasxheBu3qI5brrpZtSvfx1aE0wLFy3CnNmz8Pv1G1Dj6quNTiYCJPRfYxRYu3ZtAz7BQpGbBjNrxixTTwDr1rUL7mh6J0E30dirKHzsmDHI+++P8WrWDFx//fUmCty+fTtat26Dmowg/0kbBaSD3AwaN2mMjNFjTHR48NBBAnoE9u//xkRSlSpWQtt27ZBIIEk7RbAjR42i7oUo5fMzZmRh45tv4ufNmqHONXWQn5+Pjz76czgyJDy9XExxhNRaZgiTGcmtXrOWftdHMZ91xr7t/fdxc7gZmVOmmk1Pfi5euBDZK7LRsGFD3HDDT4xt+V/ls604jB8/gZlYMr779js83KUTOnbqbKLQs8czcv5F099RCz6t5YRYIGdHCNPWBbngfxg0LkR0pbacC2jeJBZTuyZBmaJAdqEpr1Jc1d1/NIQnlvqwJz/A9BkY38WLZjd4UFh8Oqu8EHPOrUNRlIZs25aLt5gOBQk6RTdOEfgUaQ0aNLjMpHbui8hC5Px5c3HlldXRtVs3s5hpsikbNrxhwJSe3h8xhITaS0xMxLatuXh/63uMvoYyta1s0kBFJRvWr2NkVcy2qplFlnbHHVjAKOvhrl1Rt26KSeNWrFhu/lbaWlJSjGNHj2LmzBmMglrhP35+N5/3lUl1ZYiPKfGsWTNxB9tr3eaXBlpaoILxDoJ186ZNjBZ7IoV9CBwmDTx+3EBRC54JGaozXb2/XVvc9bO7jI/aSZVSC1I5OWvxpz/+kT150LZtW0aW7fF+7lbkbt1qNo1KFSsaPT7Ytg3bmdIPfGQQqlataha+n5qseX2V0bF7j55mlyslJOYyaktNrWeiK5+v0Bw1fPP11yZ9Fjg6EQxf79+P1atWYhfT3mRG6vXq1UNXapWXt8Po8JA0YltKJXft2oVVK18j/A6gTp06GKK0lXZlvfqKSX/btnvA6BKj9JY2vfPOO9jC/9JY9X7RvDnaUDvNF41jTEwcduR9jE2bNmIwo+2rCHfZ7YDvlZdeRO1rrkHHjp34DBfbqS36ww//hLeotyI7zZ1q1OGeli3R4p6WRqOTHKu53DDS0m5Hm1+Gxyry6MJUisKXqAWfo1WpHxiVE8D2ndrxwyBy7l2Kd0EgFPKgW4tYDL03kZMw3Keuc+2ctwjSpvB+QWEI43N8+OBvAa0rPHCnB8+244JjinuhAD1vJxEXE+LjzC7uRHoRt8xE9vE85nsLnVAUp1nsY7TkFC0AnYt5eKOI6Uxk24oyY2h8CQdDZ4S6p3MxyeEn7eMokiQoZr+6rlQ7wIhHC0C2hlhTgNQDij50LcA2SiSKGjmr6JLaUV/FtCWyGFu4Iyn1Ux8aFNmjdhURaiOQTbG0KchdS+mgzqUiS2S9ePpWyDp6j/RR9ZXua8wcv3VNOkk/9XlaZ12TnxRBZ3fGJ9l0yn8956P/AnQ8d/AA7TJzgc/Jjxj64/Xw/DdiPKSpoKa+9Yx8EuDUtzZjRWsqssPYxA0qxHM9taf60kVnryoO3KRJrNpkncgNU3XMnOC7T3rLkVMlgRroeT911bjEKhrgZ/mjonuJ9P18Y2UqROlLVINP+sdS5/yCEEauDmFvPhfcvwl+QcKvReNYPNkmHrWqaGKGR1BTQhNPH51rulNKzu36KoDpm4ux63N+YJ20n3iY4nrNeaWiQc6Rcima4IGISK9sox7zBUjZa2U/GWDQ+BhzeHrmnokgQ4JG3JmL/EuLJMg+I6+rrrTQxNd9gUfRhVI8LXBnsemzc89p1O8v5TVqynrfV76vjmNLGLZlgeaA8Gybzu7DsckAUeAgDJx2YxjtOLY71yL9VluBAIHLorpOMW1SU2+EpoKSoi0BUP+dzwKa/hYspJU5i+XciHxWz6mOc1/PawIZXUx7ZbU7ZzxMnbL6OP5E+njafkV/mhMRPule+JmggbCZ+xrrs9oO2xRjrjvtRft7VINP4nHsEc8x3n2IX3SsCeKLb5gC87zPuRf+q3xfxSdBSpvatTW96PyzOLRpFIuqyfxGKzz/TIeyrYSM+6ogiPV5pXjzL6X85lDg8ODW65jidvDiyisYKSn4Kyfola+nP7w1LU4HFD+8tfJp4UJtutB65WPVmVbUr8qF6PZ/qas2fyyf1PflVKIefBJTEVYiN9cvvgvh+c0h7PhnOFXQ5nQaKKwTnk7lJ7+ieqXa3HxRrbIXt6R4kXqVB5USGSGwm8PHg9h9IIRPvwzgOH8VpE2ZUT+aN/LgN228qMbzvSI+z43UFquAVSCKFLgswCe99PMSRX6FPNrY8Ncgcj7mlwiMAgUmHs8YAJ6GYDkJbCI/RXjqn/2oLz9/puIAVtfDaRzPSAi5lBoedLkTaN1AqU04GrzYn8SUkwu2GauAVeA8Clw24JPtyhAEtyRGVQeOAR/sDiLvc2DvIeDQER3WO0g6j6flcEmRmwNXHU8lJ3hwdWXguhpA0/rAT+t7UTlJB8Thzpy65dC1bcIqYBUoRwUuK/DJb6FN5/o6a0vil5MljMIO88f6Jwk9P69fWvSdad/DjhII4AqEX9UrwvYoGtWXGEqRbbEKWAWiV4HLDnyOlAKczt4UhcUx+lJq+e8+SxOAlYLz1wEmGv1fvqR0zLbvVgGrQBQocNmCL1I7pcAC4Y9RdM5nU9ofQ3nbp1Xg4hX4fwG+i3ffPmkVsAq4UQELPjeOuvXZKuByBSz4XD4BrPtWATcqYMHnxlG3PlsFXK6ABZ/LJ4B13yrgRgUs+Nw46tZnq4DLFbDgc/kEsO5bBdyogAWfG0fd+mwVcLkCFnwunwDWfauAGxWw4HPjqFufrQIuV8CCz+UTwLpvFXCjAhZ8bhx167NVwOUKWPC5fAJY960CblTAgs+No259tgq4XAELPpdPAOu+VcCNCljwuXHUrc9WAZcrYMHn8glg3bcKuFEBCz43jrr12SrgcgUs+Fw+Aaz7VgE3KmDB58ZRtz5bBVyugAWfyyeAdd8q4EYFLPjcOOrWZ6uAyxX4H60gPPH2YfGjAAAAAElFTkSuQmCC;" vertex="1" parent="1">
          <mxGeometry x="-60" y="300" width="181.71" height="40" as="geometry" />
        </mxCell>
      </root>
    </mxGraphModel>
  </diagram>
</mxfile>
